<?xml version="1.0" encoding="utf-8"?>
<!-- Generated by IcoMoon.io -->
<!DOCTYPE svg PUBLIC "-//W3C//DTD SVG 1.1//EN" "http://www.w3.org/Graphics/SVG/1.1/DTD/svg11.dtd">
<svg version="1.1" xmlns="http://www.w3.org/2000/svg" xmlns:xlink="http://www.w3.org/1999/xlink" width="512" height="512" viewBox="0 0 512 512">
<g>
</g>
	<path d="M250 312c0 7 1 69-6 102-1 4 3 4 5 7l51 33c2 2 3 8 3 8l1 18-68-16-12 32-12-32-68 16 1-18s0-6 2-8l52-33c2-3 6-3 5-7-7-33-6-95-6-102s-8-5-8-5l-62 13-128 49c0-23 2-26 9-31l183-131s5-63 5-113c0-24 12-78 27-78s27 54 27 78c0 53 5 113 5 113l183 131c6 4 9 7 9 31l-128-49-62-13s-8-2-8 5z" fill="#000000" />
</svg>
