<?xml version="1.0" encoding="utf-8"?>
<!-- Generated by IcoMoon.io -->
<!DOCTYPE svg PUBLIC "-//W3C//DTD SVG 1.1//EN" "http://www.w3.org/Graphics/SVG/1.1/DTD/svg11.dtd">
<svg version="1.1" xmlns="http://www.w3.org/2000/svg" xmlns:xlink="http://www.w3.org/1999/xlink" width="512" height="512" viewBox="0 0 512 512">
<g>
</g>
	<path d="M294.739 260.175c0.73-0.447 1.376-1.032 2.068-1.542 25.357-18.618 50.618-37.367 75.94-56.032 23.243-17.132 46.463-34.301 69.733-51.397 2.396-1.761 4.646-3.61 4.971-6.864 0-0.983 0-1.968 0-2.952-0.616-2.207-0.943-4.466-3.024-6.042-10.797-8.179-22.853-13.127-36.445-13.275-17.78-0.192-33.912 5.557-48.334 15.657-25.569 17.908-50.821 36.267-76.199 54.447-13.787 9.877-27.629 19.681-41.382 29.607-2.093 1.512-3.863 1.737-5.998 0.19-1.886-1.365-3.971-2.454-5.979-3.648-17.641-10.49-35.065-21.344-52.983-31.37-3.978-2.228-3.857-2.247-1.106-6.005 9.556-13.055 13.726-27.451 9.71-43.442-5.335-21.251-17.703-36.398-39.031-43.396-8.839-2.9-17.998-2.958-27.029-2.219-15.868 1.297-29.292 7.815-39.19 20.717-6.037 7.871-9.556 16.752-10.796 26.567 0 5.165 0 10.33 0 15.496 0.789 3.439 0.749 7.013 1.884 10.412 5.104 15.288 15.338 26.094 29.357 33.5 12.636 6.674 26.233 11.15 39.306 16.837 22.003 9.572 40.445 23.561 54.782 42.899 2.073 2.797 2.214 4.873 0.069 7.791-13.563 18.449-30.801 32.256-51.638 41.652-12.107 5.461-24.611 9.97-36.745 15.346-12.005 5.319-22.342 12.787-29.39 24.265-4.319 7.032-6.984 14.533-7.625 22.754 0 5.165 0 10.331 0 15.495 1.318 1.134 1.175 2.802 1.544 4.276 3.26 13.038 9.578 24.113 20.749 31.996 14.185 10.011 30.107 11.888 46.759 9.393 32.34-4.846 48.566-34.912 47.414-57.841-0.639-12.709-5.344-24.051-14.638-33.414 1.577-0.969 3.006-1.905 4.486-2.749 20.245-11.533 40.155-23.628 60.012-35.805 2.573-1.578 4.148-1.252 6.424 0.384 38.175 27.437 76.414 54.781 114.631 82.155 8.737 6.259 18.142 11.188 28.46 14.269 17.439 5.209 34.413 4.651 50.506-4.577 4.494-2.577 9.283-5.032 11.438-10.3 0-0.984 0-1.969 0-2.951-0.691-4.693-4.532-6.759-7.833-9.175-16.657-12.193-33.24-24.489-49.86-36.735-18.895-13.922-37.804-27.826-56.676-41.779-12.744-9.425-25.504-18.834-38.267-28.235-2.123-1.565-2.558-2.837-0.075-4.36zM169.248 212.616c-12.945-8.11-26.992-13.9-41.1-19.576-7.723-3.106-15.577-5.922-22.762-10.254-26.867-16.193-25.254-49.661-7.503-65.449 10.39-9.24 23.019-10.878 36.288-9.402 23.046 2.565 35.455 21.014 36.889 39.633 0.705 9.149-2.591 17.629-8.781 24.699-1.052 1.2-2.273 2.252-3.326 3.451-4.778 5.443-4.75 12.16-0.013 17.683 3.035 3.539 7.133 5.565 11.028 7.884 17.6 10.481 35.204 20.956 52.803 31.439 0.933 0.555 1.827 1.174 2.944 1.896-6.285 4.53-12.337 8.891-18.528 13.351-10.465-14-22.989-25.988-37.939-35.355zM425.365 380.699c0.286 0.212 0.494 0.527 0.982 1.061-10.231 5.098-20.567 5.704-31.187 3.429-10.336-2.215-19.72-6.639-28.29-12.763-37.159-26.563-74.275-53.187-111.466-79.702-2.486-1.772-3.128-2.57-0.168-4.607 6.874-4.733 13.511-9.817 20.189-14.831 1.411-1.060 2.407-1.497 4.105-0.242 48.585 35.922 97.216 71.779 145.835 107.655zM238.611 281.609c-16.238 11.894-34.187 21.18-51.364 31.64-7.12 4.339-14.405 8.406-21.586 12.644-1.474 0.868-2.91 1.844-4.222 2.938-7.732 6.452-8.261 14.495-1.042 21.547 6.001 5.866 9.208 12.979 10.341 21.049 2.307 16.434-8.115 35.179-24.095 41.784-15.6 6.45-31.44 6.108-45.736-3.591-19.457-13.201-23.757-47.532 0.986-65.44 8.36-6.051 18.067-9.276 27.472-13.095 16.147-6.556 32.176-13.263 46.469-23.505 16.439-11.778 29.567-26.547 39.882-43.84 2.376-3.981 5.207-7.184 9.011-9.896 47.49-33.862 94.84-67.917 142.352-101.749 13.097-9.326 27.567-14.99 44.066-13.655 5.282 0.427 10.315 1.808 15.375 4.623-6.095 4.501-11.885 8.78-17.68 13.055-56.725 41.857-113.36 83.836-170.229 125.491zM243.443 250.322c4.36-0.002 8.235 3.783 8.304 8.109 0.067 4.244-3.8 8.228-8.114 8.352-4.422 0.127-8.523-3.918-8.464-8.346 0.058-4.354 3.889-8.111 8.274-8.115zM154.91 365.215c-2.955-9.723-9.496-16.408-19.609-18.483-18.164-3.725-36.776 11.905-37.014 30.699-0.103 7.649 2.571 14.176 8.203 19.353 11.692 10.745 31.146 9.418 42.338-3.056 7.394-8.241 9.265-18.051 6.082-28.513zM125.393 388.814c-6.98 0.018-12.033-4.615-12.102-11.092-0.085-8.146 8.366-16.424 16.757-16.414 6.325 0.008 11.22 5.719 11.154 13.011-0.074 8.18-6.938 14.474-15.809 14.495zM152.796 136.588c-5.685-10.659-15.33-15.396-27.338-16.012-11.064 0.387-19.847 4.869-24.738 15.276-6.612 14.069 0.295 31.258 15.385 38.99 13.428 6.88 27.958 3.588 35.389-8.184 6.138-9.722 6.664-20.015 1.302-30.070zM130.164 163.355c-8.311 0.121-16.832-8.136-16.863-16.34-0.025-6.392 5.165-11.298 11.974-11.322 8.867-0.033 15.986 6.607 15.931 14.854-0.049 7.107-4.886 12.718-11.042 12.808z" fill="#000000" />
</svg>
