<?xml version="1.0" encoding="utf-8"?>
<!-- Generated by IcoMoon.io -->
<!DOCTYPE svg PUBLIC "-//W3C//DTD SVG 1.1//EN" "http://www.w3.org/Graphics/SVG/1.1/DTD/svg11.dtd">
<svg version="1.1" xmlns="http://www.w3.org/2000/svg" xmlns:xlink="http://www.w3.org/1999/xlink" width="384" height="512" viewBox="0 0 384 512">
<g>
</g>
	<path d="M383 256l1 1-6 6c-21 21-47 48-78 69-36 24-72 36-108 36-83 0-130-49-185-105l-7-7 1-1c39-40 67-64 94-81 32-20 63-30 97-30 83 0 146 60 191 112zM192 336c44 0 80-36 80-80s-36-80-80-80-80 36-80 80 36 80 80 80zM186 227c0 19 16 35 35 35 7 0 14-2 19-6v0c0 27-22 48-48 48s-48-21-48-48 22-48 48-48c-4 5-6 12-6 19z" fill="#000000" />
</svg>
