<?xml version="1.0" encoding="utf-8"?>
<!-- Generated by IcoMoon.io -->
<!DOCTYPE svg PUBLIC "-//W3C//DTD SVG 1.1//EN" "http://www.w3.org/Graphics/SVG/1.1/DTD/svg11.dtd">
<svg version="1.1" xmlns="http://www.w3.org/2000/svg" xmlns:xlink="http://www.w3.org/1999/xlink" width="418" height="512" viewBox="0 0 418 512">
<g>
</g>
	<path d="M257 128c19 0 33 14 33 33v188c0 19-14 35-33 35h-221c-19 0-36-16-36-35v-188c0-19 17-33 36-33h221zM273 349v-188c0-9-8-16-17-16h-221c-9 0-18 7-18 16v188c0 9 10 18 19 18h221c9 0 16-9 16-18zM320 213l98-53v192l-98-53v-86zM401 190v0l-64 33v66l64 33v-132z" fill="#000000" />
</svg>
