<?xml version="1.0" encoding="utf-8"?>
<!-- Generated by IcoMoon.io -->
<!DOCTYPE svg PUBLIC "-//W3C//DTD SVG 1.1//EN" "http://www.w3.org/Graphics/SVG/1.1/DTD/svg11.dtd">
<svg version="1.1" xmlns="http://www.w3.org/2000/svg" xmlns:xlink="http://www.w3.org/1999/xlink" width="288" height="512" viewBox="0 0 288 512">
<g>
</g>
	<path d="M288 113v15h-20l-24 291c0 16-13 29-29 29h-141c-16 0-29-13-29-29l-24-291h-21v-15h80v-20c0-16 13-29 29-29h70c16 0 29 13 29 29v20h80zM95 93v20h98v-20c0-8-6-14-14-14h-70c-8 0-14 6-14 14zM230 418l23-290h-217l23 290v1c0 8 7 14 15 14h141c8 0 15-6 15-14v-1zM137 401v-241h14v241h-14zM208 160l-11 241h-14l10-241h15zM94 160l11 241h-14l-11-241h14z" fill="#000000" />
</svg>
