<?xml version="1.0" encoding="utf-8"?>
<!-- Generated by IcoMoon.io -->
<!DOCTYPE svg PUBLIC "-//W3C//DTD SVG 1.1//EN" "http://www.w3.org/Graphics/SVG/1.1/DTD/svg11.dtd">
<svg version="1.1" xmlns="http://www.w3.org/2000/svg" xmlns:xlink="http://www.w3.org/1999/xlink" width="512" height="512" viewBox="0 0 512 512">
<g>
</g>
	<path d="M224 32c124 0 224 100 224 224s-100 224-224 224-224-100-224-224 100-224 224-224zM224 72c-4 0-8 4-8 8s4 8 8 8 8-4 8-8-4-8-8-8zM48 264c4 0 8-4 8-8s-4-8-8-8-8 4-8 8 4 8 8 8zM76 351c4-2 4-7 2-11s-6-5-10-3-5 7-3 11 7 5 11 3zM78 172c2-4 2-9-2-11s-9-1-11 3-1 9 3 11 8 1 10-3zM132 97c-4 2-5 7-3 11s7 4 11 2 5-6 3-10-7-5-11-3zM143 412c2-4 1-8-3-10s-9-2-11 2-1 9 3 11 9 1 11-3zM224 440c4 0 8-4 8-8s-4-8-8-8-8 4-8 8 4 8 8 8zM232 270c8-4 10-14 6-22-3-5-9-8-14-8l-38-64c-2-4-7-4-11-2s-4 7-2 11l37 63c-3 5-3 11 0 16 2 2 4 5 6 6v122c0 4 4 8 8 8s8-4 8-8v-122zM316 415c4-2 5-7 3-11s-7-4-11-2-5 6-3 10 7 5 11 3zM319 108c2-4 1-9-3-11s-9-1-11 3-1 8 3 10 9 2 11-2zM383 348c2-4 1-9-3-11s-8-1-10 3-2 9 2 11 9 1 11-3zM380 175c4-2 5-7 3-11s-7-5-11-3-4 7-2 11 6 5 10 3zM400 264c4 0 8-4 8-8s-4-8-8-8-8 4-8 8 4 8 8 8z" fill="#000000" />
</svg>
