<?xml version="1.0" encoding="utf-8"?>
<!-- Generated by IcoMoon.io -->
<!DOCTYPE svg PUBLIC "-//W3C//DTD SVG 1.1//EN" "http://www.w3.org/Graphics/SVG/1.1/DTD/svg11.dtd">
<svg version="1.1" xmlns="http://www.w3.org/2000/svg" xmlns:xlink="http://www.w3.org/1999/xlink" width="512" height="512" viewBox="0 0 512 512">
<g>
</g>
	<path d="M479.8 226.1c0.5 2.9 0.101 6-1.2 8.9-3.8 8.4-14.699 11.9-22.5 6.7-3.699-2.4-6.099-6.4-6.8-10.7-0.8-4.7-1.599-9.4-2.599-14.1-4.401-20.4-11.7-40-21.901-58.2-12-21.4-27.899-40.4-47-55.8-18.2-14.7-39.2-26-61.5-33-20.7-6.5-42.5-9.301-64.2-8.901-1.3 0-2.6-0.099-3.899-0.099-3.2 0.3-6.3 0.3-9.5 0.599-6.5 0.5-13 1.5-19.5 2.7-12.8 2.4-25.4 6-37.4 10.9-20.8 8.4-40 20.301-56.8 35.1-16.8 14.7-31.099 32.099-42.099 51.4-12.4 21.601-20.401 45.301-24.1 69.9-1.7 11.2-2.4 22.9-2.099 34.2 0.2 5.5 0.7 11 1.3 16.399 0.7 6.301 1.7 12.7 3 18.901 5.099 23.901 14.401 46.8 27.901 67.1 12.9 19.901 29.3 37.5 48.199 51.801 19.5 14.699 41.7 25.899 65.1 32.8 24.6 7.3 50.7 9.8 76.3 7.599 25-2.2 49.7-8.8 72.3-19.8 11.3-5.401 22-11.901 32.101-19.3 9.899-7.2 18.8-15.3 27-24.401 4.099-4.5 8.199-9.099 11.8-13.899 3.599-4.801 6.899-9.801 10.099-14.901 6.2-9.901 11.901-20.099 16.8-30.8 3.801-8.401 7.801-16.8 11-25.5 1.601-4.101 3-8.3 4.101-12.601 0.899-3.699 1.5-7.399 2.2-11.199 0.8 8.599 0.199 17.399-1.301 25.899-1 5.401-2.099 10.901-3.599 16.2-1.401 5-3.099 9.8-4.901 14.599-3.599 9.7-7.8 19.301-12.8 28.5-5.8 10.7-12.8 20.601-20.599 30-7.7 9.301-15.901 18.101-25.101 25.901-18.3 15.401-39.199 27.7-61.5 36.3-23.199 8.901-47.8 13.7-72.599 14.5-25.4 0.901-51.1-2.7-75.3-10.399-23.2-7.401-45.3-18.601-64.9-33.101-19.2-14.099-36-31.2-49.8-50.5-6.9-9.7-13.099-20-18.401-30.7-5.399-10.899-9.699-22.099-13.3-33.599-5.7-18.099-8.599-37-9.5-55.901-1-19.5 1-39.1 5.2-58.1 5.2-23.8 14.7-46.5 27.4-67.3 11.5-18.7 25.8-35.7 42.199-50.3 16.401-14.6 34.901-26.801 54.801-36.2 23.199-10.901 48.399-18 73.899-20.5 9.8-0.901 19.7-1.3 29.601-1.2 12.699 0.099 25.199 1.599 37.599 4.099 24 4.901 47 13.7 68.099 26.101 21.401 12.5 40.7 28.8 56.7 47.7 14.8 17.599 27 37.4 35.901 58.599 4.399 10.3 8 21 10.8 31.8 2.2 8.5 3.901 17.101 5.3 25.8z" fill="#000000" />
</svg>
