<?xml version="1.0" encoding="utf-8"?>
<!-- Generated by IcoMoon.io -->
<!DOCTYPE svg PUBLIC "-//W3C//DTD SVG 1.1//EN" "http://www.w3.org/Graphics/SVG/1.1/DTD/svg11.dtd">
<svg version="1.1" xmlns="http://www.w3.org/2000/svg" xmlns:xlink="http://www.w3.org/1999/xlink" width="416" height="512" viewBox="0 0 416 512">
<g>
</g>
	<path d="M184 172c0-13 7-20 20-20s20 7 20 20-7 20-20 20-20-7-20-20zM224 344h16v8h-64v-8h16v-120h-16v-8h48v128zM208 48c57 0 106 20 147 61s61 90 61 147-20 106-61 147-90 61-147 61-106-20-147-61-61-90-61-147 20-106 61-147 90-61 147-61zM208 447c53 0 98-19 135-56s56-82 56-135-19-98-56-135-82-56-135-56-98 19-135 56-56 82-56 135 19 98 56 135 82 56 135 56z" fill="#000000" />
</svg>
