<?xml version="1.0" encoding="utf-8"?>
<!-- Generated by IcoMoon.io -->
<!DOCTYPE svg PUBLIC "-//W3C//DTD SVG 1.1//EN" "http://www.w3.org/Graphics/SVG/1.1/DTD/svg11.dtd">
<svg version="1.1" xmlns="http://www.w3.org/2000/svg" xmlns:xlink="http://www.w3.org/1999/xlink" width="512" height="512" viewBox="0 0 512 512">
<g>
</g>
	<path d="M362.949 432.46l0.001 11.795h84.772l0.001-84.772-11.795-0.001v64.637l-132.019-132.018-8.34 8.34 132.018 132.019zM152.648 432.474l-0.001 11.78h-84.678l-0.001-84.679h11.782v64.567l131.874-131.874 8.332 8.333-131.875 131.871zM152.639 76.279l-0.001-11.779h-84.669l-0.001 84.669h11.781v-64.56l131.859 131.861 8.331-8.331-131.86-131.859zM363.162 76.264l0.001-11.764h84.559l0.001 84.561h-11.766v-64.476l-131.688 131.689-8.321-8.32 131.69-131.689z" fill="#000000" />
</svg>
