<?xml version="1.0" encoding="utf-8"?>
<!-- Generated by IcoMoon.io -->
<!DOCTYPE svg PUBLIC "-//W3C//DTD SVG 1.1//EN" "http://www.w3.org/Graphics/SVG/1.1/DTD/svg11.dtd">
<svg version="1.1" xmlns="http://www.w3.org/2000/svg" xmlns:xlink="http://www.w3.org/1999/xlink" width="512" height="512" viewBox="0 0 512 512">
<g>
</g>
	<path d="M400 203c0 11 0 22-2 33-2 10-5 20-10 28-4 7-10 13-18 17-7 4-16 6-24 6-13 0-31-4-42-9v-133c0-9-7-17-15-17h-1c-9 0-16 8-16 17v303l-80-26v-358s28 4 75 18 67 21 84 31c8 5 15 11 21 17 7 7 13 14 17 23 8 16 10 33 11 50zM87 358c-4 2-8 3-11 6-1 1-3 3-2 5s4 4 6 5c6 2 13 3 19 3 7 0 15 0 22-2 5-1 9-3 14-5 30-10 41-12 41-12v42c-14 2-36 4-50 4-30 1-60-4-88-13-9-3-19-6-27-12-4-3-8-8-10-13-2-4-1-9 1-13s5-8 9-11c9-6 18-10 28-14 8-4 17-7 26-10 35-12 111-37 111-37v47s-62 20-89 30zM512 346c0 5-2 9-5 13-6 7-14 11-22 15s-17 8-26 11c-54 19-171 59-171 59v-48s92-30 133-44c6-2 11-4 16-8 2-2 4-3 3-6-1-2-4-4-6-5-6-2-13-3-19-3-10 0-20 2-30 5-29 10-97 32-97 32v-49s45-14 67-16c8-1 23-1 31-1 26 0 54 3 79 11 5 2 8 3 14 5 9 3 18 8 25 14 4 4 8 9 8 15z" fill="#000000" />
</svg>
