<?xml version="1.0" encoding="utf-8"?>
<!-- Generated by IcoMoon.io -->
<!DOCTYPE svg PUBLIC "-//W3C//DTD SVG 1.1//EN" "http://www.w3.org/Graphics/SVG/1.1/DTD/svg11.dtd">
<svg version="1.1" xmlns="http://www.w3.org/2000/svg" xmlns:xlink="http://www.w3.org/1999/xlink" width="384" height="512" viewBox="0 0 384 512">
<g>
</g>
	<path d="M334 147c32 35 50 80 50 128 0 104-86 189-192 189s-192-85-192-189c0-48 18-94 51-129l1-1h-18l-8 8-23-23 41-40 23 22-9 9v18c31-30 72-50 116-53h2v-38h32v38c43 4 82 21 113 49l5 5v-19l-9-9 23-22 41 40-22 23-9-8h-18zM200 318c14-4 24-15 24-30 0-14-10-27-24-31v-129h-16v129c-12 4-24 17-24 31 0 15 10 26 24 30l8 18z" fill="#000000" />
</svg>
