<?xml version="1.0" encoding="utf-8"?>
<!-- Generated by IcoMoon.io -->
<!DOCTYPE svg PUBLIC "-//W3C//DTD SVG 1.1//EN" "http://www.w3.org/Graphics/SVG/1.1/DTD/svg11.dtd">
<svg version="1.1" xmlns="http://www.w3.org/2000/svg" xmlns:xlink="http://www.w3.org/1999/xlink" width="416" height="512" viewBox="0 0 416 512">
<g>
</g>
	<path d="M208 48c115 0 208 93 208 208s-93 208-208 208-208-93-208-208 93-208 208-208zM208 447c59 0 111-27 146-69-20-8-66-24-93-32-2-1-3-1-3-11 0-8 4-16 7-23 4-8 7-21 9-32 4-5 10-14 14-32 3-16 2-22 0-28 0 0-1-1-1-2-1-4 0-23 3-38 2-10-1-34-15-52-9-12-26-26-58-28h-18c-31 2-49 16-58 28-14 18-17 42-15 52 3 15 4 34 3 38v2c-2 6-4 12-1 28 4 18 10 28 14 33 2 11 5 23 9 31 3 6 4 13 4 24 0 10-1 9-3 10-28 8-72 24-90 32 35 42 87 69 146 69z" fill="#000000" />
</svg>
