<?xml version="1.0" encoding="utf-8"?>
<!-- Generated by IcoMoon.io -->
<!DOCTYPE svg PUBLIC "-//W3C//DTD SVG 1.1//EN" "http://www.w3.org/Graphics/SVG/1.1/DTD/svg11.dtd">
<svg version="1.1" xmlns="http://www.w3.org/2000/svg" xmlns:xlink="http://www.w3.org/1999/xlink" width="256" height="512" viewBox="0 0 256 512">
<g>
</g>
	<path d="M193 396c21 0 42-6 63-20v65c-18 8-34 15-48 18s-28 5-45 5c-19 0-35-2-50-7-14-5-28-12-38-21s-17-18-21-28-6-25-6-44v-140h-48v-58c16-5 30-14 42-24s19-21 26-35 11-37 14-59h62v112h96v64h-96v101c0 24 1 40 4 47 2 7 7 12 14 16 9 6 19 8 31 8zM240 431v-29c-15 6-31 10-47 10-15 0-28-3-40-10-10-6-17-15-21-25-2-6-4-17-4-52v-117h96v-32h-96v-112h-32c-2 16-7 36-14 50-8 16-17 29-30 40-11 9-23 17-36 23v31h48v156c0 21 2 32 4 38 3 8 10 15 18 22 9 8 19 14 31 18 13 4 29 6 46 6 16 0 28-2 41-5 11-2 23-6 36-12z" fill="#000000" />
</svg>
