<?xml version="1.0" encoding="utf-8"?>
<!-- Generated by IcoMoon.io -->
<!DOCTYPE svg PUBLIC "-//W3C//DTD SVG 1.1//EN" "http://www.w3.org/Graphics/SVG/1.1/DTD/svg11.dtd">
<svg version="1.1" xmlns="http://www.w3.org/2000/svg" xmlns:xlink="http://www.w3.org/1999/xlink" width="480" height="512" viewBox="0 0 480 512">
<g>
</g>
	<path d="M370 144c61 0 110 50 110 112s-49 112-110 112h-260c-61 0-110-50-110-112s49-112 110-112 110 50 110 112c0 40-21 76-53 95h146c-32-19-53-55-53-95 0-62 49-112 110-112zM112 320c35 0 64-29 64-64s-29-64-64-64-64 29-64 64 29 64 64 64zM368 320c35 0 64-29 64-64s-29-64-64-64-64 29-64 64 29 64 64 64zM368 208c26 0 48 22 48 48s-22 48-48 48-48-22-48-48 22-48 48-48zM112 208c26 0 48 22 48 48s-22 48-48 48-48-22-48-48 22-48 48-48z" fill="#000000" />
</svg>
