<?xml version="1.0" encoding="utf-8"?>
<!-- Generated by IcoMoon.io -->
<!DOCTYPE svg PUBLIC "-//W3C//DTD SVG 1.1//EN" "http://www.w3.org/Graphics/SVG/1.1/DTD/svg11.dtd">
<svg version="1.1" xmlns="http://www.w3.org/2000/svg" xmlns:xlink="http://www.w3.org/1999/xlink" width="449" height="512" viewBox="0 0 449 512">
<g>
</g>
	<path d="M259 288c0-21 11-31 32-31s32 10 32 31-11 32-32 32-32-11-32-32zM127 288c0-21 11-31 32-31s32 10 32 31-11 32-32 32-32-11-32-32zM449 251c0 20-9 36-27 45 1 5 1 9 1 14 0 38-19 71-58 98s-85 40-140 40-102-13-141-40-58-59-58-97c0-5 0-10 1-15-18-9-27-24-27-45 0-14 5-25 15-35s21-15 35-15c13 0 24 4 33 13 36-25 79-39 129-41h7l29-98 86 17c8-19 21-28 41-28 12 0 22 4 31 13s13 20 13 32-4 23-13 32-19 13-31 13-23-4-32-13-13-19-13-31l-69-14-24 77c50 2 94 16 129 41 10-9 21-13 34-13 9 0 16 3 24 7s14 10 18 18 7 16 7 25zM375 82c-4 0-8 1-11 2s-6 4-8 6-5 6-6 9-2 6-2 10c0 8 3 14 8 19s12 8 19 8c5 0 9-1 13-3s8-6 10-10 4-9 4-14c0-8-3-14-8-19s-12-8-19-8zM18 251c0 11 5 20 14 27 7-19 19-37 37-53-6-4-12-6-19-6-3 0-7 0-10 1s-6 3-9 5-5 4-7 7-4 6-5 9-1 6-1 10zM355 393c34-23 50-51 50-83v-9c-1-6-3-12-5-18-6-16-15-30-30-43-5-4-10-9-15-12v0c-36-25-79-37-130-37s-95 12-131 37v0c-5 3-10 8-15 12-15 13-24 27-30 43-2 6-4 12-5 18v9c0 32 16 60 50 83 36 25 80 37 131 37s94-12 130-37zM417 278c9-6 14-16 14-27 0-9-3-17-9-23s-13-9-22-9c-7 0-14 2-20 6 18 16 30 34 37 53zM289 358l13 12c-20 20-45 30-77 30s-58-10-78-30l13-12c16 16 38 24 65 24s48-8 64-24z" fill="#000000" />
</svg>
