<?xml version="1.0" encoding="utf-8"?>
<!-- Generated by IcoMoon.io -->
<!DOCTYPE svg PUBLIC "-//W3C//DTD SVG 1.1//EN" "http://www.w3.org/Graphics/SVG/1.1/DTD/svg11.dtd">
<svg version="1.1" xmlns="http://www.w3.org/2000/svg" xmlns:xlink="http://www.w3.org/1999/xlink" width="512" height="512" viewBox="0 0 512 512">
<g>
</g>
	<path d="M256 64c105.9 0 191.7 85.7 191.9 191.5l55-52.5 9 9.1-70.301 67.9-66.599-67.9 9-9.1 51.099 52.4c-0.3-98.5-80.5-178.601-179.1-178.601-98.8 0-179.2 80.4-179.2 179.2s80.4 179.2 179.2 179.2c78.6 0 145.5-51 169.5-121.601l12.401 3.5c-25.601 76.101-97.301 130.9-181.9 130.9-106 0-192-86-192-192s86-192 192-192z" fill="#000000" />
</svg>
