<?xml version="1.0" encoding="utf-8"?>
<!-- Generated by IcoMoon.io -->
<!DOCTYPE svg PUBLIC "-//W3C//DTD SVG 1.1//EN" "http://www.w3.org/Graphics/SVG/1.1/DTD/svg11.dtd">
<svg version="1.1" xmlns="http://www.w3.org/2000/svg" xmlns:xlink="http://www.w3.org/1999/xlink" width="320" height="512" viewBox="0 0 320 512">
<g>
</g>
	<path d="M94 350c-2 2-4 2-6 2s-4 0-6-2c0 0-79-87-80-88s-2-3-2-6 1-5 2-6 80-88 80-88c3-3 9-3 12 0s3 9 0 12l-67 74h285c4 0 8 4 8 8s-4 8-8 8h-285l67 74c3 3 3 9 0 12z" fill="#000000" />
</svg>
