<?xml version="1.0" encoding="utf-8"?>
<!-- Generated by IcoMoon.io -->
<!DOCTYPE svg PUBLIC "-//W3C//DTD SVG 1.1//EN" "http://www.w3.org/Graphics/SVG/1.1/DTD/svg11.dtd">
<svg version="1.1" xmlns="http://www.w3.org/2000/svg" xmlns:xlink="http://www.w3.org/1999/xlink" width="224" height="512" viewBox="0 0 224 512">
<g>
</g>
	<path d="M129 269c-5 3-9 14-9 19v160h71v16h-160v-16h73v-160c0-4-6-16-11-19-9-6-22-15-43-30-18-13-50-36-50-97 0-49 29-94 29-94h166s29 44 29 93c0 61-31 85-50 98-21 15-35 23-45 30zM40 64c-7 13-24 45-24 78v2h192v-3c0-33-17-77-24-77h-144zM112 256c7 0 13-2 18-6 9-6 20-13 35-24 14-10 37-26 42-66h-190c2 15 7 28 14 39 9 13 20 22 28 27 17 12 29 21 37 26 5 3 10 4 16 4z" fill="#000000" />
</svg>
