<?xml version="1.0" encoding="utf-8"?>
<!-- Generated by IcoMoon.io -->
<!DOCTYPE svg PUBLIC "-//W3C//DTD SVG 1.1//EN" "http://www.w3.org/Graphics/SVG/1.1/DTD/svg11.dtd">
<svg version="1.1" xmlns="http://www.w3.org/2000/svg" xmlns:xlink="http://www.w3.org/1999/xlink" width="384" height="512" viewBox="0 0 384 512">
<g>
</g>
	<path d="M192 64c106 0 192 86 192 192s-86 192-192 192-192-86-192-192 86-192 192-192zM192 416c88 0 160-72 160-160s-72-160-160-160-160 72-160 160 72 160 160 160zM242 247c-4-11-8-21-13-31 25-11 47-24 63-39 15 19 26 42 28 67-26 0-55 1-78 3zM271 156c-15 12-34 23-56 32-12-22-24-41-38-59 5-1 10-1 15-1 30 0 57 11 79 28zM142 138c15 18 28 39 41 62-34 10-72 16-113 17 11-36 38-65 72-79zM319 272c-4 33-21 63-46 83-3-14-5-28-9-43-3-13-8-26-12-38 21-2 45-3 67-2zM194 256c-43 18-79 46-104 78-16-22-26-49-26-78v-7c49-1 95-8 134-21 4 8 7 16 10 24-6 1-10 2-14 4zM219 278c6 16 11 32 15 49 4 15 7 31 10 46-16 7-34 11-52 11-31 0-59-11-81-29 22-30 53-54 90-71 4-2 11-4 18-6z" fill="#000000" />
</svg>
