<?xml version="1.0" encoding="utf-8"?>
<!-- Generated by IcoMoon.io -->
<!DOCTYPE svg PUBLIC "-//W3C//DTD SVG 1.1//EN" "http://www.w3.org/Graphics/SVG/1.1/DTD/svg11.dtd">
<svg version="1.1" xmlns="http://www.w3.org/2000/svg" xmlns:xlink="http://www.w3.org/1999/xlink" width="512" height="512" viewBox="0 0 512 512">
<g>
</g>
	<path d="M60.48 267.078c2.083-1.943 4.648-2.16 7.327-2.157 43.754 0.053 87.508 0.086 131.262 0.118 55.993 0.040 111.987 0.081 167.98 0.11 24.396 0.013 48.794-0.007 73.19-0.003 3.732 0.001 5.389 1.527 5.389 4.855 0.001 18.557 0.004 37.113 0.015 55.67 0.021 40.395 0.047 80.789 0.071 121.185 0.003 4.164-3.014 6.003-6.807 4.188-10.675-5.11-21.353-10.213-32.039-15.298-76.253-36.281-152.509-72.553-228.762-108.836-36.754-17.488-73.497-35.002-110.26-52.475-2.396-1.139-4.908-2.031-7.367-3.038 0.001-1.439 0.001-2.878 0.001-4.319zM437.492 441.365c0-1.333 0-2.176 0-3.020 0.001-53.748 0.002-107.497 0.003-161.244 0-3.522 0-3.536-3.436-3.541-115.416-0.156-230.831-0.31-346.247-0.464-0.771-0.001-1.542 0-2.313 0-0.038 0.235-0.075 0.47-0.113 0.705 117.209 55.779 234.418 111.557 352.106 167.564zM60.48 223.641c2.386-0.975 4.824-1.834 7.147-2.938 65.064-30.947 130.115-61.924 195.174-92.885 58.054-27.629 116.115-55.24 174.171-82.865 6.644-3.162 8.69-1.877 8.686 5.387-0.037 57.912-0.058 115.824-0.077 173.736-0.002 4.549-1.238 5.818-5.819 5.818-21.517-0.002-43.034-0.021-64.552-0.010-69.83 0.040-139.662 0.090-209.493 0.139-32.636 0.023-65.271 0.048-97.908 0.094-2.679 0.004-5.245-0.213-7.328-2.158-0.001-1.439-0.001-2.879-0.001-4.318zM437.334 53.748c-117.481 55.908-234.724 111.703-352.6 167.797 117.978 0 235.208 0 352.601 0-0.001-56.024-0.001-111.652-0.001-167.797z" fill="#000000" />
</svg>
