<?xml version="1.0" encoding="utf-8"?>
<!-- Generated by IcoMoon.io -->
<!DOCTYPE svg PUBLIC "-//W3C//DTD SVG 1.1//EN" "http://www.w3.org/Graphics/SVG/1.1/DTD/svg11.dtd">
<svg version="1.1" xmlns="http://www.w3.org/2000/svg" xmlns:xlink="http://www.w3.org/1999/xlink" width="288" height="512" viewBox="0 0 288 512">
<g>
</g>
	<path d="M256 64c18 0 32 14 32 32v320c0 18-14 32-32 32h-224c-18 0-32-14-32-32v-320c0-18 14-32 32-32h224zM248 280h-48v128h48v-128zM248 200h-48v48h48v-48zM168 360h-48v48h48v-48zM168 280h-48v48h48v-48zM168 200h-48v48h48v-48zM88 360h-48v48h48v-48zM88 280h-48v48h48v-48zM88 200h-48v48h48v-48zM40 152h208v-48h-208v48z" fill="#000000" />
</svg>
