<?xml version="1.0" encoding="utf-8"?>
<!-- Generated by IcoMoon.io -->
<!DOCTYPE svg PUBLIC "-//W3C//DTD SVG 1.1//EN" "http://www.w3.org/Graphics/SVG/1.1/DTD/svg11.dtd">
<svg version="1.1" xmlns="http://www.w3.org/2000/svg" xmlns:xlink="http://www.w3.org/1999/xlink" width="512" height="512" viewBox="0 0 512 512">
<g>
</g>
	<path d="M247.919 47.974c0-4.432 0-8.393 0-12.717 5.689 0 11.079 0 16.96 0 0 4.061 0 8.152 0 12.73 53.675 3.279 99.946 23.029 137.86 60.673 37.84 37.571 57.851 83.544 61.14 137.166 4.35 0 8.449 0 12.831 0 0 5.712 0 10.98 0 16.925-4.060 0-8.267 0-12.677 0-2.966 54.135-22.451 100.57-60.199 138.822-37.751 38.258-83.901 58.455-137.766 62.17 0 4.326 0 8.434 0 13.146-3.177 0-5.953 0-8.729 0-2.625 0-5.249 0-8.344 0 0-4.557 0-8.648 0-12.701-107.26-3.869-196.454-91.559-201.188-200.211-4.055 0-8.148 0-12.518 0 0-5.738 0-11.007 0-16.803 3.925 0 7.992 0 12.722 0 3.076-54.081 23.019-100.568 61.211-138.476 38.097-37.81 84.533-57.598 138.697-60.724zM248.734 352.258c-51.010-8.283-80.199-37.73-88.519-88.115-31.929 0-63.858 0-95.79 0 1.475 94.346 82.863 181.49 184.309 183.377 0-31.758 0-63.514 0-95.262zM160.375 246.629c8.669-49.795 37.851-78.529 87.364-86.813 0-31.824 0-63.6 0-95.376-102.924 1.125-181.833 90.365-183.351 182.189 32.081 0 64.159 0 95.987 0zM351.837 263.182c-7.761 49.939-36.129 79.451-85.444 88.75 0 31.881 0 63.756 0 95.646 111.048-5.586 182.245-102.398 180.9-184.396-31.919 0-63.839 0-95.456 0zM447.655 245.627c-2.938-98.98-89.16-181.494-182.252-180.84 0 31.88 0 63.757 0 95.189 48.826 8.801 77.335 37.198 86.096 85.65 32.001 0.001 64.074 0.001 96.156 0.001zM334.117 245.802c-3.125-37.193-37.251-66.885-69.335-68.367 0 15.423 0 30.829 0 46.199-5.79 0-11.058 0-16.792 0 0-15.672 0-31.098 0-46.521-33.681 0.485-70.025 36.674-70.144 69.857 15.247 0 30.499 0 45.808 0 0 5.871 0 11.257 0 17.015-15.624 0-30.908 0-46.217 0 3.555 41.584 39.954 69.832 71.699 70.809 0-15.566 0-31.127 0-46.648 5.873 0 11.141 0 16.872 0 0 15.666 0 31.084 0 46.543 37.291-3.93 66.917-37.211 68.472-71.898-15.413 0-30.811 0-46.074 0 0-5.982 0-11.373 0-16.989 15.382 0 30.359 0 45.711 0z" fill="#000000" />
</svg>
