<?xml version="1.0" encoding="utf-8"?>
<!-- Generated by IcoMoon.io -->
<!DOCTYPE svg PUBLIC "-//W3C//DTD SVG 1.1//EN" "http://www.w3.org/Graphics/SVG/1.1/DTD/svg11.dtd">
<svg version="1.1" xmlns="http://www.w3.org/2000/svg" xmlns:xlink="http://www.w3.org/1999/xlink" width="512" height="512" viewBox="0 0 512 512">
<g>
</g>
	<path d="M456.214 259.641c-3.644-11.326-10.458-20.822-17.691-30.047-10.379-13.241-19.427-27.535-30.902-39.894-9.199-9.91-20.13-15.798-34.415-15.324-19.194 0.637-38.426 0.149-57.643 0.167-2.622 0.001-5.289-0.19-7.807 0.779-2.026 0.781-2.479-0.026-2.443-1.945 0.089-4.868-0.085-9.743 0.050-14.608 0.384-13.68-9.981-25.164-25.067-24.803-20.651 0.492-41.324-0.001-61.985 0.223-4.337 0.048-7.159-1.358-10.123-4.462-20.189-21.146-45.218-30.653-74.092-27.435-39.216 4.373-67.747 30.557-77.379 68.955-0.744 2.965-0.23 6.243-2.163 8.909 0 6.848 0 13.696 0 20.543 0.918 13.095 4.807 25.239 11.895 36.29 2.087 3.254 2.822 6.648 2.813 10.461-0.068 32.128-0.023 64.257-0.058 96.385-0.004 3.965 0.25 7.881 0.836 11.801 1.57 10.505 9.634 19.181 19.96 21.552 5.348 1.229 10.753 0.905 16.129 0.779 3.516-0.081 5.039 1.245 6.073 4.608 2.873 9.352 7.865 17.438 15.473 23.828 7.243 6.083 15.385 9.933 24.859 10.799 3.425 0 6.849 0 10.272 0 1.358-0.835 2.852-0.217 4.269-0.408 3.573-0.062 7.052-0.596 10.392-1.936 14.848-5.957 24.627-16.668 29.703-31.739 1.71-5.077 1.612-5.121 7.161-5.126 21.7-0.007 43.401-0.001 65.102-0.003 5.746 0 11.293-0.789 16.111-4.267 1.59-1.148 3.072-1.13 4.732-0.1 5.187 3.207 10.894 4.561 16.946 4.341 2.784-0.099 4.233 0.941 5.123 3.7 6.405 19.801 19.254 32.394 40.369 35.538 4.478 0 8.955 0 13.433 0 10.004-0.349 18.428-4.565 25.901-10.861 9.271-7.809 14.793-17.793 16.833-29.296 0.306 0.719 1.436 0.779 2.446 0.805 4.854 0.126 9.738 0.464 14.562-0.125 12.918-1.578 20.903-9.029 23.226-21.364 0-28.709 0-57.418 0-86.125-0.959-3.537-1.781-7.112-2.901-10.595zM70.8 190.435c0.374-40.385 33.005-72.863 72.971-72.628 40.138 0.235 72.936 33.219 72.64 73.052-0.298 40.271-33.021 72.746-73.064 72.506-40.336-0.238-72.916-32.991-72.547-72.93zM159.749 400.962c-17.674-0.003-32.449-14.771-32.398-32.383 0.050-17.655 14.84-32.271 32.566-32.184 17.786 0.084 32.229 14.711 32.14 32.548-0.088 17.497-14.744 32.022-32.308 32.019zM289.198 351.989c-0.002 6.018-2.336 8.491-8.273 8.505-23.438 0.050-46.875-0.028-70.311 0.094-2.643 0.012-3.174-1.044-3.73-3.281-7.102-28.532-37.225-44.548-64.388-33.941-15.704 6.133-25.737 17.788-29.922 34.169-0.632 2.477-1.504 3.125-3.863 3.029-4.47-0.182-8.957 0.060-13.426-0.136-4.642-0.202-8.289-3.763-8.298-8.391-0.064-30.545-0.008-61.090 0.018-91.636 0-0.086 0.15-0.17 0.473-0.515 36.145 28.288 82.181 24.356 112.374-0.323 29.652-24.237 43.124-67.682 23.274-109.016 0.883-0.73 1.956-0.368 2.904-0.37 18.039-0.027 36.076-0.028 54.115-0.016 6.503 0.004 9.062 2.526 9.063 9.065 0.011 64.254 0.005 128.509-0.010 192.763zM410.792 222.952c1.317-0.001 2.533-0.069 3.468 1.257 7.795 11.036 17.019 21.059 23.43 33.070 1.916 3.59 3.256 7.409 4.39 11.336 0.766 2.646 0.050 3.088-2.442 3.066-12.627-0.102-25.251-0.046-37.875-0.046-12.363 0-24.726 0.023-37.089-0.009-7.138-0.020-10.686-3.557-10.7-10.601-0.021-9.47-0.039-18.937 0.009-28.407 0.030-6.112 3.371-9.602 9.465-9.633 15.78-0.081 31.561-0.025 47.344-0.033zM370.016 400.963c-17.682-0.073-32.482-14.97-32.283-32.49 0.199-17.601 14.705-32.018 32.271-32.076 17.804-0.059 32.373 14.451 32.378 32.254 0.010 17.744-14.656 32.387-32.366 32.312zM442.955 349.333c-0.009 8.066-3.133 11.139-11.241 11.156-3.293 0.005-6.584-0.023-9.874 0.013-1.194 0.015-2.542-0.443-3.574 1.167-1.749-9.634-5.753-17.861-11.91-25.162-13.689-16.235-39.080-21.126-57.871-11.178-13.321 7.055-21.922 17.718-25.522 32.304-0.619 2.505-1.735 3.146-3.989 2.874-0.909-0.109-1.843-0.013-2.765-0.018-7.563-0.037-10.555-2.965-10.56-10.437-0.015-19.222-0.005-38.446-0.005-57.669 0-30.281-0.004-60.565 0.002-90.85 0.002-7.961 2.973-10.94 10.924-10.946 18.563-0.011 37.14 0.38 55.689-0.159 9.886-0.286 17.223 3.65 23.676 10.369 1.679 1.747 3.265 3.581 5.545 6.093-13.404 0-25.72 0.083-38.035-0.035-6.327-0.060-11.906 1.727-16.734 5.789-4.922 4.14-8.207 9.286-8.611 15.812-0.767 12.352-1.005 24.755 0.018 37.071 1.065 12.833 11.955 22.121 24.927 22.148 25.148 0.053 50.298 0.086 75.444-0.064 3.506-0.020 4.609 0.73 4.569 4.449-0.209 19.087-0.084 38.182-0.103 57.273zM151.689 156.919c0 5.136-0.015 10.271 0.004 15.407 0.017 4.389 0.104 8.365 2.917 12.548 4.906 7.295-0.585 17.306-9.371 18.247-2.28 0.244-3.876 1.082-5.41 2.66-4.68 4.816-9.388 9.609-14.241 14.249-2.71 2.592-5.958 3.831-9.675 1.992-3.475-1.722-4.901-4.624-4.417-8.398 0.295-2.304 1.733-4.062 3.319-5.66 3.34-3.365 6.711-6.698 10.049-10.063 3.097-3.122 6.956-5.786 6.557-11.025-0.044-0.586 0.292-1.391 0.729-1.797 4.234-3.953 3.248-9.096 3.259-13.999 0.024-11.719-0.018-23.438 0.020-35.158 0.016-5.224 2.184-8.525 6.033-9.471 5.71-1.403 10.106 2.451 10.203 9.137 0.103 7.109 0.024 14.221 0.024 21.331z" fill="#000000" />
</svg>
