<?xml version="1.0" encoding="utf-8"?>
<!-- Generated by IcoMoon.io -->
<!DOCTYPE svg PUBLIC "-//W3C//DTD SVG 1.1//EN" "http://www.w3.org/Graphics/SVG/1.1/DTD/svg11.dtd">
<svg version="1.1" xmlns="http://www.w3.org/2000/svg" xmlns:xlink="http://www.w3.org/1999/xlink" width="384" height="512" viewBox="0 0 384 512">
<g>
</g>
	<path d="M191 101c2-2 3-4 5-5-3 2-5 4-7 8 0-1 1-2 2-3zM362 396c7 4 22 10 22 20s-16 16-42 30-33 34-61 34-26-17-37-20-35-3-48-3-33 1-42 4-23 19-38 19-26-9-56-16-60-7-60-23 11-17 7-31-7-25-4-30 10-4 19-5 19-2 22-11c1-5-2-17 5-25-4-16-2-27 10-44 17-23 14-38 23-53s32-36 37-45c9-16 9-22 8-55s-2-50-2-50c0-33 20-60 58-60h14c38 0 64 32 65 69 0 19-6 38 4 67 0 0 12 20 22 33s37 43 45 68 13 56 12 66c-1 6-1 9-3 11 3 1 6 2 8 5 3 4 2 11 0 26-1 8 5 15 12 19zM138 451c1-13-4-21-17-43s-32-58-46-65c0 0-4-2-8-2s-12-3-15 7c-2 7 0 19-2 22-2 4-9 9-14 10s-22 1-25 5 1 12 5 24-6 18-7 23-2 12 7 15 33 7 46 9c15 3 38 14 51 15 12 1 24-7 25-20zM254 386c-2-10-5-28 1-35 4-5 10-6 17-5 0-4 1-9 3-12 1-2 3-3 7-5s7-3 12-3c20 1 24 12 20 6-3-4-9-9-14-10 0 0 4-12 2-34-4-40-33-62-33-62 27 30 28 58 28 72 0 6-2 18-5 24-4 1-7 2-11 4-10 5-8-2-8-10 0-10 2-20-5-49-5-22-17-28-18-33s-1-14-9-30-18-18-15-34 5-22-8-25-23-8-24-13v-10c0-2 1-5 2-7l3-3c2-2 5-4 9-4 8 0 14 6 14 14 0 3-1 7-3 10s-2 3-3 4c-2 2 3 4 7 4 3 0 5-1 7-10 1-3 1-8 1-13v0c0-14-11-25-23-25-4 0-8 2-12 4-2 1-4 4-6 6-1 1-1 2-1 3h-1c-2 4-2 8-2 12 0 5-1 9 0 13 0 2 1 3 0 3-2 0-6-5-10-5-6 0-10 2-10 2s1-15-3-23c-4-9-18-16-24-4s-2 25 1 31l3 6c2-1 5-4 5-4s-6-3-7-11c-1-9 3-14 7-15s10 2 12 8 1 13 1 13-9 8-13 11-12 8-12 11 0 5 2 7c3 4 9 8 13 10s7 4 15 4 14-3 29-8c22-7 19-12 23-12s6 3 4 6-6 2-22 9-22 9-28 10-12 5-27-9c-1-1 10 17 17 20s20-2 30-7 15-10 21-11 9 2 5 5-16 8-23 13-19 15-27 16-21-16-25-22c-5-8-7-11-5 12 0 0-6 8-10 15s-6 13-7 19c-1 5-1 10-1 12s-12 14-18 41 2 58-8 55c-6-2-16-14-16-27s1-17 2-20c1-4-4 8-4 21s2 17 7 23c3 4 45 32 56 42s10 20 7 27-10 11-10 11 5 10 9 19 2 22 2 22 4-1 4-9-4-16-5-19c0 0 17 12 38 10 25-2 41-12 54-22 18-13 13-23 15-4 2 17-12 27-10 34 4-8 11-12 13-24s0-26-2-36zM157 125c0 1-1 2-1 3v0c2 0 3-5 2-8-1-4-3-6-4-6h-2c3 2 5 6 5 11zM211 113c3 2 6 5 6 10v3c2 0 3-4 2-7s-3-6-5-6h-3zM348 433c24-11 36-17 21-26-17-10-27-13-27-29 0-5 4-16 2-22-1-4-6-5-9-5l-1 1c-7 6-13 24-33 24s-27-19-28-24c-4-2-9-1-12 4-4 7-3 12 1 36 6 31-5 54 1 64s18 18 33 10 28-23 52-33z" fill="#000000" />
</svg>
