<?xml version="1.0" encoding="utf-8"?>
<!-- Generated by IcoMoon.io -->
<!DOCTYPE svg PUBLIC "-//W3C//DTD SVG 1.1//EN" "http://www.w3.org/Graphics/SVG/1.1/DTD/svg11.dtd">
<svg version="1.1" xmlns="http://www.w3.org/2000/svg" xmlns:xlink="http://www.w3.org/1999/xlink" width="384" height="512" viewBox="0 0 384 512">
<g>
</g>
	<path d="M56 336c31 0 56 25 56 56s-25 56-56 56-56-25-56-56 25-56 56-56zM56 432c22 0 40-18 40-40s-18-40-40-40-40 18-40 40 18 40 40 40zM0 192c140 0 256 116 256 256h-80c0-48-14-94-48-128s-80-48-128-48v-80zM240 432c-2-26-8-52-19-77-12-28-30-54-52-76s-48-40-76-52c-25-10-51-16-77-18v47c50 3 92 22 123 53s50 73 53 123h48zM0 64c212 0 384 172 384 384h-80c0-171-133-304-304-304v-80zM227 220c56 56 89 131 93 212h48c-8-190-162-344-352-352v48c81 4 155 36 211 92z" fill="#000000" />
</svg>
