<?xml version="1.0" encoding="utf-8"?>
<!-- Generated by IcoMoon.io -->
<!DOCTYPE svg PUBLIC "-//W3C//DTD SVG 1.1//EN" "http://www.w3.org/Graphics/SVG/1.1/DTD/svg11.dtd">
<svg version="1.1" xmlns="http://www.w3.org/2000/svg" xmlns:xlink="http://www.w3.org/1999/xlink" width="384" height="512" viewBox="0 0 384 512">
<g>
</g>
	<path d="M192 64c106 0 192 86 192 192 0 9-1 18-2 26-12 85-79 153-165 164-8 1-17 2-25 2-106 0-192-86-192-192s86-192 192-192zM19 256c0 68 40 127 98 155l-83-225c-10 21-15 45-15 70zM214 427c12-2 24-4 35-8 0-1-1-2-1-3l-53-145-33 96-19 55c15 5 32 7 49 7 8 0 15-1 22-2zM216 175l62 186 17-58c9-22 13-41 13-56 0-21-7-35-14-47-9-14-17-27-17-41 0-16 12-30 29-30h2c-31-28-71-45-116-45-60 0-113 30-144 77 4 0 8 1 11 1 18 0 46-3 46-3 9-1 10 14 1 15 0 0-10 1-20 1l63 187 38-113-27-74c-9 0-18-1-18-1-9 0-8-16 1-15 0 0 28 3 45 3 18 0 46-3 46-3 9-1 11 14 2 15 0 0-10 1-20 1zM279 405c45-26 77-71 84-125 1-8 2-16 2-24 0-30-8-58-22-83 1 6 1 12 1 18 0 18-3 37-13 62l-39 113z" fill="#000000" />
</svg>
