<?xml version="1.0" encoding="utf-8"?>
<!-- Generated by IcoMoon.io -->
<!DOCTYPE svg PUBLIC "-//W3C//DTD SVG 1.1//EN" "http://www.w3.org/Graphics/SVG/1.1/DTD/svg11.dtd">
<svg version="1.1" xmlns="http://www.w3.org/2000/svg" xmlns:xlink="http://www.w3.org/1999/xlink" width="384" height="512" viewBox="0 0 384 512">
<g>
</g>
	<path d="M358 199c17 15 26 36 26 57 0 22-9 42-26 57s-39 23-63 23-45-8-62-23l-103-93c-11-10-26-15-41-15s-30 5-41 15-16 22-16 36 5 26 16 36 26 15 41 15 30-5 41-15l30-28 23 20-32 29c-17 15-38 23-62 23s-46-8-63-23-26-35-26-57 9-42 26-57 39-23 63-23 45 8 62 23l104 93c11 10 25 15 40 15s30-5 41-15 17-22 17-36-6-26-17-36-26-15-41-15-29 5-40 15l-31 28-23-20 32-29c17-15 38-23 62-23s46 8 63 23z" fill="#000000" />
</svg>
