<?xml version="1.0" encoding="utf-8"?>
<!-- Generated by IcoMoon.io -->
<!DOCTYPE svg PUBLIC "-//W3C//DTD SVG 1.1//EN" "http://www.w3.org/Graphics/SVG/1.1/DTD/svg11.dtd">
<svg version="1.1" xmlns="http://www.w3.org/2000/svg" xmlns:xlink="http://www.w3.org/1999/xlink" width="512" height="512" viewBox="0 0 512 512">
<g>
</g>
	<path d="M34.15 404.604c2.459 5.423 6.759 7.086 12.549 7.080 72.547-0.108 145.095-0.072 217.641-0.066 3.395 0 6.671-0.153 9.242-2.911 4.52-4.849 2.563-12.51-3.809-14.248-1.795-0.488-3.746-0.547-5.627-0.547-72.694-0.025-145.387 0.015-218.079-0.090-5.751-0.011-9.711 1.957-11.918 7.28 0.001 1.165 0.001 2.334 0.001 3.502zM34.15 332.765c2.345 5.231 6.404 7.114 12.078 7.103 51.828-0.106 103.655-0.070 155.484-0.051 3.755 0.003 7.259-0.419 9.796-3.65 3.393-4.321 1.636-11.047-3.458-13.127-2.076-0.85-4.243-0.926-6.447-0.924-51.828 0.017-103.656 0.064-155.484-0.063-5.747-0.014-9.713 1.922-11.971 7.208 0.002 1.169 0.002 2.339 0.002 3.504zM34.15 260.928c2.41 5.452 6.672 7.151 12.486 7.131 40-0.145 80.001-0.064 120.002-0.088 7.919-0.007 12.427-5.287 10.181-11.771-1.331-3.843-4.68-5.813-10.198-5.823-17.227-0.026-34.454-0.010-51.681-0.010-22.773 0-45.548 0.123-68.321-0.084-5.839-0.050-10.066 1.691-12.47 7.139 0.001 1.169 0.001 2.339 0.001 3.506zM34.15 189.089c2.379 5.471 6.631 7.203 12.446 7.167 28.167-0.169 56.336-0.047 84.505-0.096 7.772-0.014 12.342-5.737 9.666-12.099-1.92-4.562-5.972-5.5-10.456-5.496-20.287 0.021-40.574 0.009-60.862 0.009-7.59 0-15.187 0.22-22.766-0.070-5.819-0.222-10.052 1.713-12.533 7.081 0 1.167 0 2.335 0 3.504zM34.15 116.375c1.909 6.271 6.343 8.136 12.59 8.044 16.185-0.234 32.377-0.030 48.566-0.099 7.42-0.032 11.695-5.119 9.716-11.378-1.402-4.428-4.998-6.031-9.126-6.066-17.208-0.137-34.42-0.071-51.63-0.053-5.341 0.005-8.384 3.071-10.115 7.799-0.001 0.585-0.001 1.169-0.001 1.753zM383.956 380.691c0-2.743 0-4.304 0-5.864 0-85.109 0.005-170.217-0.014-255.324 0-2.348 0.055-4.656 0.909-6.881 1.496-3.896 4.601-5.805 8.478-5.604 3.807 0.197 6.823 2.154 7.994 6.248 0.617 2.15 0.708 4.288 0.708 6.479-0.009 85.107-0.006 170.216-0.006 255.326 0 1.538 0 3.078 0 4.62 0.354 0.22 0.709 0.441 1.066 0.664 0.853-1.113 1.593-2.337 2.572-3.321 19.695-19.737 39.411-39.453 59.137-59.159 4.248-4.243 8.115-5.167 12.039-2.976 4.497 2.51 5.883 7.413 3.461 11.956-0.911 1.707-2.184 3.070-3.528 4.413-26.945 26.939-53.917 53.851-80.766 80.887-2.39 2.405-3.583 2.488-6.022 0.028-27.048-27.246-54.237-54.351-81.368-81.516-5.934-5.943-5.341-13.161 1.264-16.147 4.46-2.014 7.926 0 10.972 3.010 7.686 7.593 15.297 15.259 22.93 22.903 13.088 13.106 26.17 26.224 40.174 40.258z" fill="#000000" />
</svg>
