<?xml version="1.0" encoding="utf-8"?>
<!-- Generated by IcoMoon.io -->
<!DOCTYPE svg PUBLIC "-//W3C//DTD SVG 1.1//EN" "http://www.w3.org/Graphics/SVG/1.1/DTD/svg11.dtd">
<svg version="1.1" xmlns="http://www.w3.org/2000/svg" xmlns:xlink="http://www.w3.org/1999/xlink" width="512" height="512" viewBox="0 0 512 512">
<g>
</g>
	<path d="M265.239 94.723v-19.577h-12.946v19.577c-104.088 3.414-187.719 88.606-187.719 192.913 0 6.866 0.38 13.896 1.138 20.912l12.896-0.46c0.783-21.729 18.407-38.752 40.141-38.752 22.162 0 40.203 18.042 40.203 40.21h12.946c0-22.168 18.041-40.21 40.215-40.21 21.922 0 39.775 17.637 40.178 39.464v100.232c0 15.771 12.821 28.604 28.597 28.604 15.779 0 28.611-12.832 28.611-28.604h-12.945c0 8.635-7.030 15.657-15.666 15.657-8.633 0-15.648-7.022-15.648-15.657v-99.486h0.036c0-22.168 18.028-40.21 40.204-40.21 22.175 0 40.217 18.042 40.217 40.21h12.947c0-22.168 18.041-40.21 40.202-40.21 21.543 0 39.169 16.864 40.116 38.396l12.908 0.393c0.719-6.864 1.087-13.756 1.087-20.488-0.001-104.308-83.633-189.5-187.718-192.914zM398.845 256.39c-20.115 0-37.651 11.233-46.676 27.752-9.027-16.519-26.575-27.752-46.689-27.752-20.115 0-37.649 11.233-46.677 27.752-9.026-16.519-26.575-27.752-46.689-27.752-20.114 0-37.662 11.233-46.689 27.752-9.026-16.519-26.562-27.752-46.675-27.752-16.437 0-31.089 7.358-40.824 19.033 6.347-93.654 85.021-167.918 180.839-167.918 95.792 0 174.468 74.25 180.827 167.882-9.747-11.645-24.388-18.997-40.747-18.997z" fill="#000000" />
</svg>
