<?xml version="1.0" encoding="utf-8"?>
<!-- Generated by IcoMoon.io -->
<!DOCTYPE svg PUBLIC "-//W3C//DTD SVG 1.1//EN" "http://www.w3.org/Graphics/SVG/1.1/DTD/svg11.dtd">
<svg version="1.1" xmlns="http://www.w3.org/2000/svg" xmlns:xlink="http://www.w3.org/1999/xlink" width="384" height="512" viewBox="0 0 384 512">
<g>
</g>
	<path d="M360 216c14 0 24 11 24 25v30c0 14-10 25-24 25h-15c-12 0-23 10-23 23 0 6 3 13 8 17l10 9c10 10 10 25 0 35l-23 22c-4 4-10 7-17 7s-14-3-18-7l-9-9c-5-5-11-8-17-8-13 0-24 11-24 23v15c0 14-10 25-24 25h-30c-14 0-25-11-25-25v-15c0-12-10-23-23-23-6 0-13 2-17 7l-10 10c-4 4-10 7-17 7s-14-3-18-7l-22-22c-10-10-10-25 0-35l9-9c5-4 8-11 8-17 0-13-11-23-23-23h-15c-14 0-25-11-25-25v-30c0-14 11-25 25-25h15c12 0 23-10 23-23 0-6-3-13-8-17l-9-9c-10-10-10-25 0-35l22-22c4-4 11-7 18-7s14 3 18 7l9 10c4 5 11 7 17 7 13 0 23-11 23-23v-15c0-14 11-25 25-25h30c14 0 25 11 25 25v15c0 12 10 23 23 23 6 0 13-3 17-8l9-9c4-4 11-7 18-7s14 3 18 7l22 22c10 10 10 25 0 35l-10 10c-5 4-8 10-8 16 0 13 11 23 23 23h15zM273 256v0c0-44-36-80-80-80s-80 36-80 80v0 0c0 44 36 80 80 80s80-36 80-80v0z" fill="#000000" />
</svg>
