<?xml version="1.0" encoding="utf-8"?>
<!-- Generated by IcoMoon.io -->
<!DOCTYPE svg PUBLIC "-//W3C//DTD SVG 1.1//EN" "http://www.w3.org/Graphics/SVG/1.1/DTD/svg11.dtd">
<svg version="1.1" xmlns="http://www.w3.org/2000/svg" xmlns:xlink="http://www.w3.org/1999/xlink" width="512" height="512" viewBox="0 0 512 512">
<g>
</g>
	<path d="M192 82c12 10 36 30 36 68 0 37-21 55-43 72-7 7-15 13-15 24s8 18 14 22l18 14c23 19 43 36 43 71 0 47-47 95-135 95-74 0-110-35-110-72 0-18 10-44 40-62 32-19 75-21 98-23-7-9-16-18-16-34 0-9 3-14 5-20-6 0-11 1-16 1-54 0-85-40-85-79 0-23 10-48 32-67 29-24 64-28 92-28h106l-33 18h-31zM155 306c-4 0-7-1-12-1s-32 1-54 8c-11 4-44 16-44 52s36 62 91 62c49 0 75-24 75-55 0-26-17-39-56-66zM170 210c12-12 13-28 13-37 0-36-22-92-65-92-13 0-28 6-36 16-9 11-11 24-11 37 0 34 20 90 64 90 13 0 27-6 35-14zM448 142v18h-78v81h-18v-81h-80v-18h80v-78h18v78h78z" fill="#000000" />
</svg>
