<?xml version="1.0" encoding="utf-8"?>
<!-- Generated by IcoMoon.io -->
<!DOCTYPE svg PUBLIC "-//W3C//DTD SVG 1.1//EN" "http://www.w3.org/Graphics/SVG/1.1/DTD/svg11.dtd">
<svg version="1.1" xmlns="http://www.w3.org/2000/svg" xmlns:xlink="http://www.w3.org/1999/xlink" width="512" height="512" viewBox="0 0 512 512">
<g>
</g>
	<path d="M216 448v-96h16v96h-16zM367 184c45 0 81 39 81 85s-37 83-82 83h-134v-146l55 54 12-11-75-75-74 75 11 11 55-54v146h-126c-50 0-90-40-90-90 0-40 26-74 61-86 5-28 29-52 59-52 10 0 18 2 26 6 19-39 59-66 105-66 64 0 117 52 117 116 0 1-1 3-1 4z" fill="#000000" />
</svg>
