<?xml version="1.0" encoding="utf-8"?>
<!-- Generated by IcoMoon.io -->
<!DOCTYPE svg PUBLIC "-//W3C//DTD SVG 1.1//EN" "http://www.w3.org/Graphics/SVG/1.1/DTD/svg11.dtd">
<svg version="1.1" xmlns="http://www.w3.org/2000/svg" xmlns:xlink="http://www.w3.org/1999/xlink" width="512" height="512" viewBox="0 0 512 512">
<g>
</g>
	<path d="M353.071 426.008c-8.050-0.059-16.1-0.117-24.148-0.176l0.125 0.105c0-7.738 0-15.479 0-23.152-8.291 0-15.84 0-24.1 0 0 7.973 0 15.563 0 23.154l0.099-0.098c-7.62 0-15.241 0-23.421 0 0 8.338 0 15.93 0 23.861-8.131 0-15.704 0-24.016 0 0-7.65 0-15.363 0-23.563-8.318 0-15.925 0-23.816 0 0-8.271 0-16.027 0-24.236 7.831 0 15.43 0 23.359 0 0-7.826 0-15.205 0-23.094-7.793 0-15.39 0-23.315 0 0-8.244 0-15.986 0-24.322 7.721 0 15.296 0 23.258 0 0-8.121 0-15.656 0-23.707-7.77 0-15.358 0-23.27 0 0-8.248 0-15.988 0-24.322 7.764 0 15.338 0 23.285 0 0-7.977 0-15.367 0-23.283-7.756 0-15.361 0-23.447 0 0-7.945 0-15.385 0-23.299-8.010 0-15.545 0-23.642 0 0 7.553 0 15.133 0 22.938-8.15 0-15.749 0-23.914 0 0-7.631 0-15.207 0-23.092-8.296 0-16.033 0-24.453 0 0 7.666 0 15.229 0 23.057-8.274 0-15.873 0-23.97 0 0-7.535 0-14.971 0-22.893-7.688 0-14.903 0-22.752 0 0 7.438 0 15.010 0 22.865-8.368 0-16.113 0-24.353 0 0-7.596 0-15.039 0-23.164-8.021 0-15.582 0-23.439 0 0-8.422 0-16.159 0-24.216 7.744 0 15.327 0 23.437 0 0 7.635 0 15.218 0 23.158 8.075 0 15.636 0 23.795 0 0-7.605 0-15.174 0-23.104 8.15 0 15.718 0 23.866 0 0 7.486 0 15.074 0 23.059 8.098 0 15.641 0 23.598 0 0-7.424 0-15.034 0-23.035 8.118 0 15.84 0 24.122 0 0 7.559 0 15.13 0 23.066 8.098 0 15.652 0 23.738 0 0-7.588 0-15.177 0-23.385 8.067 0 15.639 0 23.669 0 0-8.044 0-15.477 0-23.491 8.034 0 15.609 0 23.652 0 0-8.108 0-15.642 0-23.617-7.614 0-15.226 0-23.18 0 0-8.171 0-15.914 0-24.214 7.698 0 15.279 0 23.248 0 0-8.085 0-15.621 0-23.68-7.809 0-15.414 0-23.299 0 0-8.274 0-16.031 0-24.235 7.846 0 15.446 0 23.37 0 0-7.845 0-15.247 0-23.244-7.655 0-15.232 0-23.159 0 0-8.641 0-16.699 0-24.759 7.667 0 15.333 0 23 0 0.279 5.775 0.582 11.549 0.822 17.326 0.084 1.989 0.014 3.985 0.014 6.565 7.756 0 15.33 0 23.281 0 0 8.321 0 16.065 0 24.471-7.551 0-15.107 0-22.967 0 0 8.055 0 15.458 0 23.327 7.611 0 15.049 0 22.918 0 0 8.158 0 15.868 0 24.141-7.486 0-15.038 0-22.906 0 0 8.261 0 15.969 0 24.058 7.643 0 15.090 0 22.939 0 0 8.086 0 15.806 0 24.159-7.548 0-15.102 0-23.193 0 0 8.017 0 15.421 0 23.333-8.148 0-15.754 0-23.712 0 0 7.936 0 15.369 0 23.406 7.539 0 15.266 0 23.583 0 0 8.305 0 16.033 0 23.975 8.017 0 15.428 0 23.279 0 0-7.818 0-15.414 0-23.477 8 0 15.582 0 23.805 0 0-8.156 0-15.873 0-23.842 8.236 0 15.832 0 23.992 0 0 7.572 0 15.141 0 23.129 8.1 0 15.657 0 23.757 0 0-7.42 0-15.005 0-22.997 8.221 0 15.915 0 24.145 0 0 7.718 0 15.295 0 23.145 8.095 0 15.66 0 23.786 0 0-7.85 0-15.442 0-23.286 8.136 0 15.715 0 23.84 0 0 7.762 0 15.366 0 23.506 8.104 0 15.688 0 23.518 0 0 8.152 0 15.758 0 24.025-7.471 0-15.027 0-22.979 0 0 8.023 0 15.398 0 23.445 7.663 0 15.235 0 22.936 0 0 8.416 0 16.162 0 24.377-7.729 0-15.159 0-22.965 0 0 7.996 0 15.525 0 23.586 7.657 0 15.084 0 22.888 0 0 8.25 0 15.98 0 24.344-7.491 0-15.063 0-22.942 0 0 8.008 0 15.391 0 23.17 7.676 0 15.119 0 22.943 0 0 8.104 0 15.824 0 24.195-7.497 0-15.055 0-23.163 0 0 8.215 0 15.809 0 23.736-8.131 0-15.706 0-24.019 0 0-7.662 0-15.375 0-23.355-8.15 0-15.573 0-23.526 0 0 7.656 0 15.23 0 23.252-8.206 0-15.9 0-24.188 0 0-7.91 0-15.846 0-23.781 7.755-0.002 15.508-0.002 23.286-0.002 0-7.988 0-15.389 0-23.035-7.818 0-15.313 0-23.102 0 0.003 7.997 0.003 15.61 0.003 23.222zM353.070 283.008c-8.038-0.076-16.077-0.154-24.116-0.23 0-7.619 0-15.238 0-23.064-8.055 0-15.619 0-23.877 0 0 7.916 0 15.529 0.002 23.146-7.619 0-15.238 0-23.088 0 0 8.227 0 15.723 0 23.123 7.883 0 15.275 0 22.912 0 0-8.033 0-15.668 0-23.305 8.064-0.020 16.129-0.039 24.189-0.049 0 7.736 0 15.473 0 23.725 7.479 0 14.25 0.145 20.999-0.162 0.964-0.043 2.562-2.24 2.614-3.492 0.281-6.615 0.162-13.248 0.182-19.877 7.754 0 15.507 0 23.285 0 0-7.988 0-15.389 0-23.037-7.818 0-15.313 0-23.103 0 0.001 7.999 0.001 15.61 0.001 23.222zM305.44 329.967c8.148 0 15.694 0 23.279 0 0-7.836 0-15.252 0-22.814-7.857 0-15.434 0-23.279 0 0 7.667 0 15.076 0 22.814zM329.454 354.029c7.812 0 15.334 0 23.017 0 0-7.889 0-15.42 0-22.895-7.898 0-15.431 0-23.017 0 0 7.815 0 15.218 0 22.895zM328.645 377.896c0-8.086 0-15.633 0-23.104-7.914 0-15.469 0-23.065 0 0 7.924 0 15.443 0 23.104 7.855 0 15.298 0 23.065 0zM352.502 401.613c0-7.67 0-15.061 0-22.484-7.883 0-15.43 0-22.913 0 0 7.785 0 15.164 0 22.484 7.86 0 15.297 0 22.913 0zM423.958 259.781c-7.914 0-15.311 0-22.853 0 0 7.801 0 15.215 0 22.701 7.805 0 15.334 0 22.853 0 0-7.705 0-15.002 0-22.701zM400.18 306.088c0-7.916 0-15.182 0-22.682-7.864 0-15.411 0-22.99 0 0 7.762 0 15.17 0 22.682 7.776 0 15.195 0 22.99 0zM423.99 307.168c-7.875 0-15.286 0-22.748 0 0 7.824 0 15.367 0 22.779 7.806 0 15.199 0 22.748 0 0-7.732 0-15.029 0-22.779zM281.828 330.988c0 7.91 0 15.336 0 22.973 7.836 0 15.346 0 22.923 0 0-7.855 0-15.285 0-22.973-7.66 0-15.073 0-22.923 0zM400.328 331.063c-8.030 0-15.562 0-23.119 0 0 7.885 0 15.43 0 22.844 7.912 0 15.444 0 23.119 0 0-7.762 0-15.050 0-22.844zM280.874 307.207c-7.853 0-15.265 0-22.756 0 0 7.742 0 15.164 0 22.881 7.676 0 15.071 0 22.756 0 0-7.695 0-15.119 0-22.881zM280.885 377.787c0-7.961 0-15.377 0-23.090-7.658 0-15.039 0-22.736 0 0 7.748 0 15.285 0 23.090 7.617 0 15.004 0 22.736 0zM376.006 377.781c0-8.004 0-15.553 0-22.975-7.889 0-15.283 0-22.768 0 0 7.842 0 15.271 0 22.975 7.648 0 15.060 0 22.768 0zM401.061 377.725c7.916 0 15.305 0 22.736 0 0-7.877 0-15.422 0-22.957-7.755 0-15.138 0-22.736 0 0 7.781 0 15.193 0 22.957zM281.811 401.561c7.813 0 15.347 0 22.859 0 0-7.725 0-15.115 0-22.559-7.741 0-15.15 0-22.859 0 0 7.644 0 15.016 0 22.559zM377.23 378.973c0 7.889 0 15.277 0 22.656 7.836 0 15.276 0 22.923 0 0-7.646 0-15.029 0-22.656-7.769 0-15.198 0-22.923 0zM280.897 402.793c-7.869 0-15.267 0-22.781 0 0 7.811 0 15.221 0 22.854 7.691 0 15.102 0 22.781 0 0-7.655 0-15.067 0-22.854zM401.122 425.57c7.866 0 15.278 0 22.756 0 0-7.748 0-15.172 0-22.883-7.681 0-15.075 0-22.756 0 0 7.711 0 15.135 0 22.883zM353.389 307.164c0 7.859 0 15.389 0 22.842 7.791 0 15.189 0 22.841 0 0-7.773 0-15.17 0-22.842-7.661 0-15.080 0-22.841 0zM215.629 67.89c0 47.912 0 95.824 0 144.063-47.798 0-95.159 0-143.125 0-0.087-1.57-0.253-3.157-0.253-4.745-0.014-44.785-0.016-89.569 0.005-134.354 0-1.655 0.244-3.31 0.374-4.964 47.665 0 95.332 0 142.999 0zM88.856 195.542c36.755 0 73.126 0 109.38 0 0-37.056 0-73.761 0-110.391-36.647 0-72.901 0-109.38 0 0 36.847 0 73.432 0 110.391zM448 67.89c0.13 1.654 0.373 3.309 0.374 4.964 0.021 44.785 0.019 89.569 0.005 134.354 0 1.465-0.159 2.93-0.263 4.721-47.612 0-94.985 0-143.116 0 0-47.969 0-96.004 0-144.039 47.666 0 95.333 0 143 0zM431.781 85.248c-36.779 0-73.151 0-109.38 0 0 37.063 0 73.769 0 110.374 36.655 0 72.909 0 109.38 0 0-36.856 0-73.442 0-110.374zM69.673 449.869c0-47.811 0-95.393 0-143.395 47.521 0 94.901 0 142.692 0 0 47.568 0 95.275 0 143.395-47.284 0-94.666 0-142.692 0zM195.555 323.154c-36.827 0-73.080 0-109.473 0 0 36.969 0 73.674 0 110.385 36.68 0 73.052 0 109.473 0 0-36.939 0-73.527 0-110.385zM328.922 425.832c0 7.898 0 15.797 0 23.959-7.996 0-15.693 0-23.876 0 0-8.125 0-16.037 0-23.949l-0.099 0.098c8.033 0 16.066-0.002 24.1-0.002l-0.125-0.106zM117.781 113.348c17.506 0 34.807 0 52.305 0 0 17.754 0 35.367 0 53.148-17.444 0-34.744 0-52.305 0 0-17.601 0-35.216 0-53.148zM353.389 166.496c0-17.14 0-34.003 0-51.031 16.801 0 33.443 0 50.337 0 0 16.921 0 33.864 0 51.031-16.67 0-33.39 0-50.337 0zM167.313 406.998c-17.645 0-35.026 0-52.587 0 0-19.234 0-38.295 0-57.652 17.415 0 34.88 0 52.587 0 0 19.066 0 38.217 0 57.652z" fill="#000000" />
</svg>
