<?xml version="1.0" encoding="utf-8"?>
<!-- Generated by IcoMoon.io -->
<!DOCTYPE svg PUBLIC "-//W3C//DTD SVG 1.1//EN" "http://www.w3.org/Graphics/SVG/1.1/DTD/svg11.dtd">
<svg version="1.1" xmlns="http://www.w3.org/2000/svg" xmlns:xlink="http://www.w3.org/1999/xlink" width="418" height="512" viewBox="0 0 418 512">
<g>
</g>
	<path d="M296 165l-23 15v-116h64v116l-23-15-9-6zM385 64c19 0 33 13 33 32v286c0 19-14 34-33 34h-143s-25 4-25 19v13h-16v-13c0-15-11-19-25-19h-143c-19 0-33-15-33-34v-286c0-19 14-32 33-32h150s18 8 18 15v329l8 6 8-6v-329s10-15 18-15h22v146l48-32 48 32v-146h32z" fill="#000000" />
</svg>
