<?xml version="1.0" encoding="utf-8"?>
<!-- Generated by IcoMoon.io -->
<!DOCTYPE svg PUBLIC "-//W3C//DTD SVG 1.1//EN" "http://www.w3.org/Graphics/SVG/1.1/DTD/svg11.dtd">
<svg version="1.1" xmlns="http://www.w3.org/2000/svg" xmlns:xlink="http://www.w3.org/1999/xlink" width="288" height="512" viewBox="0 0 288 512">
<g>
</g>
	<path d="M32 160v-64h224v64h-224zM48 112v32h192v-32h-192zM256 64c18 0 32 14 32 32v320c0 18-14 32-32 32h-224c-18 0-32-14-32-32v-320c0-18 14-32 32-32h224zM272 416v-320c0-9-7-16-16-16h-224c-9 0-16 7-16 16v320c0 9 7 16 16 16h224c9 0 16-7 16-16zM48 240h48v16h-64v-64h16v48zM48 320h48v16h-64v-64h16v48zM48 400h48v16h-64v-64h16v48zM128 240h48v16h-64v-64h16v48zM208 240h48v16h-64v-64h16v48zM128 320h48v16h-64v-64h16v48zM128 400h48v16h-64v-64h16v48zM208 400h48v16h-64v-144h16v128z" fill="#000000" />
</svg>
