<?xml version="1.0" encoding="utf-8"?>
<!-- Generated by IcoMoon.io -->
<!DOCTYPE svg PUBLIC "-//W3C//DTD SVG 1.1//EN" "http://www.w3.org/Graphics/SVG/1.1/DTD/svg11.dtd">
<svg version="1.1" xmlns="http://www.w3.org/2000/svg" xmlns:xlink="http://www.w3.org/1999/xlink" width="512" height="512" viewBox="0 0 512 512">
<g>
</g>
	<path d="M444.596 305.736c-2.614 36.988-8.627 73.098-27.53 105.848-9.3 16.113-21.38 29.432-38.875 36.732-13.168 5.494-26.889 7.65-40.95 3.578-18.854-5.461-29.518-19.609-30.346-39.334-0.56-13.342 3.611-24.854 12.206-34.934 3.456-4.055 7.025-8.057 10.047-12.426 9.146-13.225 8.099-26.906-2.785-38.686-7.572-8.197-15.351-16.205-22.894-24.428-11.525-12.564-17.015-27.225-15.023-44.41 2.152-18.572 11.917-31.85 29.050-38.695 28.727-11.477 57.18-11.498 84.482 4.861 26.062 15.615 38.738 39.418 42.039 68.922 0.277 2.48 0.442 4.979 0.563 7.473 0.087 1.829 0.016 3.665 0.016 5.499zM428.501 307.705c0.688-16.936-2.047-32.807-11.211-47.107-22.808-35.596-65.040-39.131-94.113-26.96-13.473 5.64-20.113 18.372-19.074 33.187 0.675 9.615 4.629 17.598 11.070 24.52 8.396 9.021 17.046 17.82 25.177 27.076 8.296 9.443 12.149 20.621 10.482 33.271-1.404 10.654-5.732 20.037-12.7 28.314-4.376 5.197-9.036 10.414-12.157 16.361-8.599 16.381-1.762 40.969 24.337 41.48 11.746 0.229 22.349-2.914 31.842-9.852 12.193-8.91 20.304-20.971 26.56-34.438 12.684-27.299 18.122-56.282 19.787-85.852zM156.405 108.891c11.273 1.984 22.835 2.972 33.765 6.139 33.326 9.659 46.808 49.226 26.385 77.402-6.801 9.381-15.358 17.492-23.131 26.167-2.111 2.356-4.355 4.595-6.432 6.98-10.346 11.878-11.236 24.91-2.25 37.905 3.495 5.055 7.693 9.617 11.519 14.445 12.487 15.762 14.38 36.311 5.086 53.443-6.98 12.865-18.106 19.137-32.304 20.398-23.338 2.078-42.83-5.805-58.574-23.086-14.695-16.127-23.322-35.451-29.62-56.031-7.362-24.060-10.865-48.746-11.452-73.807-1.136-48.493 39.419-89.824 87.008-89.955zM157.384 125.011c-36.291-0.058-68.668 29.271-71.474 65.564-2.005 25.932 2.7 51.054 9.65 75.854 4.709 16.803 11.667 32.566 22.391 46.482 9.044 11.734 20.317 19.973 35.255 22.645 24.208 4.328 39.881-7.84 37.6-30.266-0.619-6.082-4.13-12.135-7.324-17.611-2.814-4.822-7.305-8.633-10.593-13.219-14.619-20.399-13.421-41.894 3.189-60.647 1.544-1.744 3.172-3.415 4.744-5.135 7.404-8.106 15.439-15.732 22.076-24.426 15.441-20.228 5.569-48.417-19.029-54.746-8.642-2.222-17.647-3.037-26.485-4.495zM241.344 87.433c-0.263 11.926-5.128 21.535-15.692 27.605-10.964 6.299-23.602 1.844-28.798-9.695-6.154-13.668 0.279-32.174 13.27-39.573 15.268-8.696 29.666 4.896 30.842 16.022 0.192 1.819 0.249 3.652 0.378 5.641zM225.272 87.099c-0.265-1.079-0.192-3.472-1.349-4.764-1.218-1.36-3.987-2.747-5.427-2.248-6.261 2.171-9.856 12.946-6.719 18.725 1.576 2.902 3.687 3.655 6.536 1.833 4.607-2.945 6.386-7.428 6.959-13.546zM272.724 185.789c0.279-7.169 3.59-15.404 13.169-19.536 8.625-3.719 16.357-1.055 23.034 4.873 5.947 5.281 9.907 12.061 10.023 19.993 0.086 5.78-0.597 12.138-3.004 17.27-5.238 11.162-17.854 14.158-28.466 7.839-9.241-5.505-14.913-16.157-14.756-30.439zM304.25 196.078c-0.867-5.666-2.67-9.802-6.421-13.057-4.227-3.668-8.474-2.398-8.621 3.196-0.11 4.205 1.262 8.785 3.198 12.572 1.043 2.039 4.958 4.127 7.034 3.68 1.972-0.426 3.236-4.129 4.81-6.391zM187.227 82.098c-0.797 6.849-3.206 12.344-8.085 16.675-5.438 4.826-12.479 4.349-17.31-1.042-7.483-8.351-6.262-24.049 2.428-31.188 5.818-4.78 14.441-3.847 18.273 2.656 2.283 3.876 3.176 8.572 4.694 12.899zM327.73 183.55c0.063-10.565 5.717-18.316 13.526-18.554 7.59-0.231 15.029 7.403 15.352 17.304 0.164 5.041-1.012 10.724-3.41 15.117-4.212 7.715-13.158 8.211-19.438 1.961-4.361-4.344-6.324-9.673-6.030-15.828zM121.292 86.456c0.296-1.801 0.376-3.673 0.931-5.393 1.338-4.147 3.617-7.608 8.312-8.379 4.73-0.775 8.044 1.761 10.414 5.435 4.137 6.413 5.274 13.31 1.832 20.386-3.471 7.135-11.38 8.413-16.174 2.123-2.968-3.896-4.324-9.021-6.404-13.594 0.362-0.193 0.725-0.386 1.089-0.578zM369.124 193.526c0.371-7.482 1.799-12.853 6.44-16.835 5.011-4.298 10.937-3.373 14.477 2.183 4.538 7.122 2.578 19.336-3.961 24.682-4.702 3.842-10.586 3.296-13.811-1.845-1.785-2.846-2.479-6.378-3.145-8.185zM399.957 206.35c0.058-7.708 6.832-15.34 13.638-15.364 5.262-0.019 9.004 4.072 9.030 9.868 0.037 7.892-6.92 15.32-14.227 15.192-5.107-0.090-8.483-3.968-8.441-9.696zM101.095 89.677c8.344-0.047 15.878 11.916 11.738 20.306-1.741 3.527-4.746 5.1-8.592 4.717-8.269-0.823-14.881-11.083-12.318-19.024 1.267-3.923 3.934-6.053 9.172-5.999zM431.938 232.875c-4.581-0.074-7.723-3.646-7.592-8.629 0.194-7.414 6.46-14.305 12.787-14.065 4.409 0.167 7.594 3.997 7.401 8.899-0.273 6.978-6.586 13.892-12.596 13.795zM89.559 122.942c0.041 4.885-2.936 8.27-7.355 8.365-6.377 0.137-12.833-6.997-12.835-14.184-0.001-5.020 3.237-8.402 7.971-8.325 6.311 0.103 12.159 6.873 12.219 14.144z" fill="#000000" />
</svg>
