<?xml version="1.0" encoding="utf-8"?>
<!-- Generated by IcoMoon.io -->
<!DOCTYPE svg PUBLIC "-//W3C//DTD SVG 1.1//EN" "http://www.w3.org/Graphics/SVG/1.1/DTD/svg11.dtd">
<svg version="1.1" xmlns="http://www.w3.org/2000/svg" xmlns:xlink="http://www.w3.org/1999/xlink" width="384" height="512" viewBox="0 0 384 512">
<g>
</g>
	<path d="M195 271l53 146c0 1 6 13 9 19-3 1-5 2-8 3v0c-10 3-21 6-32 7-8 1-17 2-25 2-17 0-34-2-50-6v0c-2 0-3-2-5-2l25-73zM17 180c6 0 7 1 15 1l93 255c-3-1-5-2-8-3-63-27-109-87-116-158-1-6-1-13-1-19 0-25 7-53 17-76zM366 175c11 24 18 52 18 81 0 9-1 18-2 26-9 65-50 120-107 147-2 1-3 1-5 2l22-65 39-113c10-25 13-45 13-62v-19c-1-18-10-44-36-43h-2c-17 0-29 14-29 30 0 14 8 27 17 41 7 12 14 26 14 47 0 15-4 34-13 56l-17 58-62-186c10 0 20-1 20-1 9-1 7-16-2-15 0 0-28 3-46 3-17 0-45-3-45-3-9-1-10 15-1 15 0 0 9 1 18 1l27 74-38 113-63-187c10 0 20-2 20-2 9-1 8-15-1-14 0 0-28 2-46 2h-34c5-9 11-17 17-25 35-44 90-72 150-72 24 0 48 5 69 13 34 13 63 36 85 65 2 2 3 5 5 7 6 8 11 17 15 26z" fill="#000000" />
</svg>
