<?xml version="1.0" encoding="utf-8"?>
<!-- Generated by IcoMoon.io -->
<!DOCTYPE svg PUBLIC "-//W3C//DTD SVG 1.1//EN" "http://www.w3.org/Graphics/SVG/1.1/DTD/svg11.dtd">
<svg version="1.1" xmlns="http://www.w3.org/2000/svg" xmlns:xlink="http://www.w3.org/1999/xlink" width="472" height="512" viewBox="0 0 472 512">
<g>
</g>
	<path d="M472 110c-13 20-29 36-48 50v12c0 128-98 276-276 276-55 0-105-16-148-44 8 1 15 2 23 2 45 0 87-16 120-42-42-1-78-29-90-67 6 1 12 2 18 2 9 0 18-2 26-4-44-9-78-48-78-95v-1c13 7 28 12 44 12-26-17-43-47-43-81 0-18 5-34 13-48 48 59 119 97 199 101-2-7-2-14-2-22 0-54 43-97 97-97 28 0 52 12 70 31 22-4 43-13 62-24-7 23-23 42-43 54 20-2 39-7 56-15z" fill="#000000" />
</svg>
