<?xml version="1.0" encoding="utf-8"?>
<!-- Generated by IcoMoon.io -->
<!DOCTYPE svg PUBLIC "-//W3C//DTD SVG 1.1//EN" "http://www.w3.org/Graphics/SVG/1.1/DTD/svg11.dtd">
<svg version="1.1" xmlns="http://www.w3.org/2000/svg" xmlns:xlink="http://www.w3.org/1999/xlink" width="512" height="512" viewBox="0 0 512 512">
<g>
</g>
	<path d="M210 276c22 18 45 36 45 73 0 49-47 99-139 99-80 0-116-39-116-77 0-10 3-42 42-65 27-16 61-21 85-23-4-7-8-15-8-26 0-4 0-7 1-10h-4c-19 0-46-4-67-26-15-15-24-36-24-57 0-26 13-53 35-71v0c32-25 69-29 94-29h134l-60 33h-13c11 13 23 31 23 58 0 40-25 59-45 74v1c-6 6-11 10-11 17 0 6 4 10 10 15v0zM85 140c0 13 4 33 14 51 7 12 21 27 41 27 10 0 21-4 28-11 10-10 10-25 10-30 0-18-6-37-15-53-8-13-20-28-40-28-11 0-23 5-29 13-6 7-9 18-9 31zM206 368c0-20-13-31-50-56-3 0-4-1-8-1-6 0-31 2-50 8-16 6-38 16-38 42 0 31 32 51 80 51 41 0 66-17 66-44zM370 142h78v34h-78v81h-34v-81h-80v-34h80v-78h34v78z" fill="#000000" />
</svg>
