<?xml version="1.0" encoding="utf-8"?>
<!-- Generated by IcoMoon.io -->
<!DOCTYPE svg PUBLIC "-//W3C//DTD SVG 1.1//EN" "http://www.w3.org/Graphics/SVG/1.1/DTD/svg11.dtd">
<svg version="1.1" xmlns="http://www.w3.org/2000/svg" xmlns:xlink="http://www.w3.org/1999/xlink" width="416" height="512" viewBox="0 0 416 512">
<g>
</g>
	<path d="M355 109c81 81 81 213 0 294s-213 81-294 0-81-213 0-294 213-81 294 0zM343 391c74-74 74-196 0-270s-196-74-270 0-74 196 0 270 196 74 270 0zM292 160l12 12-84 84 84 84-12 12-84-84-84 84-12-12 84-84-84-84 12-12 84 84z" fill="#000000" />
</svg>
