<?xml version="1.0" encoding="utf-8"?>
<!-- Generated by IcoMoon.io -->
<!DOCTYPE svg PUBLIC "-//W3C//DTD SVG 1.1//EN" "http://www.w3.org/Graphics/SVG/1.1/DTD/svg11.dtd">
<svg version="1.1" xmlns="http://www.w3.org/2000/svg" xmlns:xlink="http://www.w3.org/1999/xlink" width="384" height="512" viewBox="0 0 384 512">
<g>
</g>
	<path d="M143 80h-111c-9 0-16 7-16 16v108c0 6 3 12 7 16l213 207h1v1c3 3 7 4 11 4s8-1 11-4l104-105c3-3 5-7 5-11s-2-8-5-11v-1l-204-213c-4-4-10-7-16-7zM143 64v0c10 0 20 4 28 12l204 213c6 6 9 15 9 23s-3 16-9 22l-105 105c-6 6-14 9-22 9s-17-3-23-9l-214-207c-7-7-11-17-11-28v-108c0-18 14-32 32-32h111zM96 128c-18 0-32 14-32 32s14 32 32 32 32-14 32-32-14-32-32-32zM96 112v0c26 0 48 22 48 48s-22 48-48 48-48-22-48-48 22-48 48-48z" fill="#000000" />
</svg>
