<?xml version="1.0" encoding="utf-8"?>
<!-- Generated by IcoMoon.io -->
<!DOCTYPE svg PUBLIC "-//W3C//DTD SVG 1.1//EN" "http://www.w3.org/Graphics/SVG/1.1/DTD/svg11.dtd">
<svg version="1.1" xmlns="http://www.w3.org/2000/svg" xmlns:xlink="http://www.w3.org/1999/xlink" width="512" height="512" viewBox="0 0 512 512">
<g>
</g>
	<path d="M447.1 101.3c0-0.1 0-0.2 0-0.2-0.1-0.3-0.1-0.5-0.2-0.8v-0.1c-0.6-1.5-1.8-3-3.5-3.4l-2-0.4-90.4-19.4v272.6c-8 0-22.4 0.4-44.5 1.301-41.8 1.6-51.4 21.6-51.4 40.899 0 24.601 13.2 43.101 61.5 41 51.8-2.3 51.4-48.5 51.4-81.7v-192.5l73.6 13.5c3 0.6 5.4-2.3 5.4-5.3v-64.4c0-0.4 0.1-0.8 0.1-1.1zM67.968 113.5h206.532v17h-206.532v-17zM67.968 207.5h206.532v17h-206.532v-17zM67.968 301.5h206.532v17h-206.532v-17z" fill="#000000" />
</svg>
