<?xml version="1.0" encoding="utf-8"?>
<!-- Generated by IcoMoon.io -->
<!DOCTYPE svg PUBLIC "-//W3C//DTD SVG 1.1//EN" "http://www.w3.org/Graphics/SVG/1.1/DTD/svg11.dtd">
<svg version="1.1" xmlns="http://www.w3.org/2000/svg" xmlns:xlink="http://www.w3.org/1999/xlink" width="512" height="512" viewBox="0 0 512 512">
<g>
</g>
	<path d="M445 114c7 33 1 66-13 97s-31 59-51 87c-26 36-52 71-85 101-19 18-41 35-66 44-31 11-52 5-71-22-14-19-22-40-28-63-12-45-25-90-38-134-4-12-9-22-15-33-3-5-8-10-12-14-5-4-11-3-17 0-10 6-28 18-28 18l-21-27c26-24 82-71 82-71 11-9 33-25 48-27 21-3 38 4 50 22 11 17 15 37 18 57 7 41 11 82 23 122 3 10 8 20 13 29 7 11 15 13 25 5 4-3 7-6 10-10 20-24 37-52 48-81 3-9 3-17 3-27 0-13-10-25-25-26s-24 1-39 7c6-24 24-62 54-84 29-21 71-24 94-16s36 23 41 46z" fill="#000000" />
</svg>
