<?xml version="1.0" encoding="utf-8"?>
<!-- Generated by IcoMoon.io -->
<!DOCTYPE svg PUBLIC "-//W3C//DTD SVG 1.1//EN" "http://www.w3.org/Graphics/SVG/1.1/DTD/svg11.dtd">
<svg version="1.1" xmlns="http://www.w3.org/2000/svg" xmlns:xlink="http://www.w3.org/1999/xlink" width="512" height="512" viewBox="0 0 512 512">
<g>
</g>
	<path d="M421.052 112.322c-110.101-0.026-220.202-0.023-330.303-0.022-1.118 0-2.237-0.012-3.356 0.032-1.245 0.049-2.465 0.17-3.445 1.062 0 95.631 0 191.263 0 286.895 2.063 1.617 4.505 1.070 6.802 1.072 110.1 0.026 220.201 0.022 330.301 0.022 1.119 0 2.238 0.012 3.355-0.033 1.246-0.050 2.466-0.171 3.446-1.062 0-95.632 0-191.264 0-286.895-2.061-1.616-4.503-1.071-6.8-1.071zM414.188 382.898c0.003 2.993-0.673 3.863-3.814 3.86-102.971-0.091-205.941-0.089-308.912-0.005-3.077 0.002-3.855-0.766-3.853-3.823 0.088-84.049 0.086-168.098 0.004-252.146-0.002-2.994 0.674-3.867 3.816-3.861 51.485 0.106 102.971 0.077 154.455 0.077 51.485 0 102.971 0.028 154.457-0.071 3.075-0.006 3.854 0.766 3.851 3.825-0.086 84.047-0.086 168.096-0.004 252.144zM400.401 144.21c0.005-2.956-0.719-3.568-3.624-3.565-93.904 0.085-187.811 0.083-281.717 0.007-2.82-0.003-3.67 0.485-3.666 3.523 0.105 75.155 0.101 150.311 0.012 225.465-0.003 2.798 0.687 3.402 3.451 3.396 47.008-0.094 94.017-0.067 141.025-0.067 46.897 0 93.794-0.028 140.69 0.064 2.93 0.005 3.837-0.558 3.833-3.69-0.102-75.045-0.1-150.089-0.004-225.133zM125.118 157.696c-0.007-2.837 0.863-3.432 3.562-3.43 84.83 0.069 169.658 0.063 254.487 0.020 2.343-0.001 3.531 0.174 3.526 3.122-0.102 54.247-0.075 108.493-0.075 162.741 0 0.423 0 0.847 0 1.271-0.348 0.257-0.696 0.512-1.045 0.767-0.63-0.914-1.13-1.955-1.903-2.724-19.602-19.519-39.23-39.008-58.856-58.502-5.479-5.441-8.56-5.427-14.091 0.065-8.389 8.33-16.81 16.632-25.133 25.028-1.483 1.495-2.254 1.705-3.83-0.014-22.235-24.234-44.563-48.388-66.853-72.571-5.198-5.64-8.347-5.805-14.085-0.55-24.187 22.152-48.36 44.318-72.541 66.475-0.81 0.743-1.639 1.465-2.469 2.203-1.112-0.877-0.602-1.949-0.602-2.848-0.030-40.349 0.004-80.702-0.092-121.053zM383.185 359.426c-26.194-0.111-52.391-0.065-78.587-0.065-16.344 0-32.688 0-49.033 0-42.204 0-84.409-0.037-126.613 0.072-3.114 0.010-3.868-0.818-3.841-3.848 0.15-17.124 0.125-34.249 0.014-51.372-0.017-2.467 0.773-4.085 2.566-5.723 25.956-23.707 51.867-47.46 77.715-71.282 1.688-1.555 2.426-1.262 3.805 0.239 20.898 22.751 41.831 45.473 62.843 68.121 1.678 1.808 1.313 2.702-0.259 4.196-4.45 4.223-8.813 8.547-13.075 12.959-4.066 4.213-3.448 9.303 1.241 11.63 2.853 1.416 5.836 0.612 8.96-2.484 12.671-12.571 25.331-25.155 37.994-37.734 3.088-3.066 6.207-6.104 9.243-9.218 1.076-1.103 1.732-1.581 3.135-0.183 21.957 21.908 43.979 43.752 66.008 65.588 1.050 1.040 1.356 2.182 1.338 3.589-0.055 4.002-0.198 8.018 0.041 12.007 0.166 2.769-0.674 3.521-3.495 3.508zM304.145 208.957c0.036-11.378 9.347-20.501 20.768-20.348 11.322 0.151 20.388 9.267 20.354 20.466-0.034 11.28-9.493 20.552-20.809 20.401-11.274-0.151-20.347-9.317-20.313-20.519z" fill="#000000" />
</svg>
