<?xml version="1.0" encoding="utf-8"?>
<!-- Generated by IcoMoon.io -->
<!DOCTYPE svg PUBLIC "-//W3C//DTD SVG 1.1//EN" "http://www.w3.org/Graphics/SVG/1.1/DTD/svg11.dtd">
<svg version="1.1" xmlns="http://www.w3.org/2000/svg" xmlns:xlink="http://www.w3.org/1999/xlink" width="512" height="512" viewBox="0 0 512 512">
<g>
</g>
	<path d="M503 115c19 37 8 81-20 108s-60 33-60 33c2 32 16 59-41 102-43 32 2 90 2 90 10 14 23 19 32 32h-272s15-14-7-32c0 0-20-17-18-29s6-13 9-15 0-7 0-7l-19-19s-13 13-44 13c-38 0-65-39-65-39h46s-6 8-7 13c-1 4 1 5 1 5s11 6 22 6c17 0 33-12 33-12l-24-22-15 4-16-37 39 10-1 15 28 18s9-9 7-27-9-26-9-26-4 0-9 4-6 6-6 6l-10-44s43 19 50 63c3 20-6 35-6 35l17 10s6-5 17-7 23-2 29 8 5 12 4 19 0 9 6 11 6 6 11 8 15 6 21 2 8-11 8-18v-16s-9-8-32-20-54-22-66-40-12-44 0-57c9-10 23-25 26-35 4-14 4-42 4-42s-10-16-8-40c2-30 22-84 96-114 0 0-40 55-20 80 0 0 37-11 77-9 31 2 56 12 73 28s25 23 47 17 28-17 28-33c0-19-16-51-16-51s36 7 58 51zM195 203c14-4 21 11 21 11 14-25 30-60 22-64s-64 25-66 88c0 0 6-31 23-35zM232 218c5-7 34-8 37 17 4 35-24 57-24 57s7 2 23-2c17-4 43-29 43-70s-21-66-41-62-38 60-38 60z" fill="#000000" />
</svg>
