<?xml version="1.0" encoding="utf-8"?>
<!-- Generated by IcoMoon.io -->
<!DOCTYPE svg PUBLIC "-//W3C//DTD SVG 1.1//EN" "http://www.w3.org/Graphics/SVG/1.1/DTD/svg11.dtd">
<svg version="1.1" xmlns="http://www.w3.org/2000/svg" xmlns:xlink="http://www.w3.org/1999/xlink" width="288" height="512" viewBox="0 0 288 512">
<g>
</g>
	<path d="M288 173c0 31-13 59-30 83v0c-11 15-22 28-32 45-22 38-18 73-18 82v1h-128v-1c0-7 3-44-19-82-10-17-20-30-31-45v0c-17-24-30-52-30-83 0-78 66-141 144-141s144 63 144 141zM239 254l6-8c16-22 27-47 27-73 0-33-16-65-40-89s-55-36-88-36-64 12-88 36-40 56-40 89c0 26 11 51 27 73l19 26c5 6 9 13 13 21 17 29 21 58 21 75h16v-112l-32-64h17l31 64v112h32v-112l31-64h17l-32 64v112h16c0-17 4-45 21-75 8-14 16-25 24-36 1-1 1-2 2-3zM112 480v-16h64v16h-64zM96 448v-16h96v16h-96zM96 416v-16h96v16h-96z" fill="#000000" />
</svg>
