<?xml version="1.0" encoding="utf-8"?>
<!-- Generated by IcoMoon.io -->
<!DOCTYPE svg PUBLIC "-//W3C//DTD SVG 1.1//EN" "http://www.w3.org/Graphics/SVG/1.1/DTD/svg11.dtd">
<svg version="1.1" xmlns="http://www.w3.org/2000/svg" xmlns:xlink="http://www.w3.org/1999/xlink" width="384" height="512" viewBox="0 0 384 512">
<g>
</g>
	<path d="M377 416c0 14-11 25-25 25s-25-11-25-25 11-25 25-25 25 11 25 25zM89 416c0 14-11 25-25 25s-25-11-25-25 11-25 25-25 25 11 25 25zM64 96h320l-15 175s-209 30-244 34-69 30-74 62h333v17h-352s0-5 2-17c5-35 33-62 65-73l-57-213h-42v-17h53zM352 256l15-143h-297l44 177c1 0 2-1 3-1z" fill="#000000" />
</svg>
