<?xml version="1.0" encoding="utf-8"?>
<!-- Generated by IcoMoon.io -->
<!DOCTYPE svg PUBLIC "-//W3C//DTD SVG 1.1//EN" "http://www.w3.org/Graphics/SVG/1.1/DTD/svg11.dtd">
<svg version="1.1" xmlns="http://www.w3.org/2000/svg" xmlns:xlink="http://www.w3.org/1999/xlink" width="512" height="512" viewBox="0 0 512 512">
<g>
</g>
	<path d="M259 146v53l-65-103zM297 96l151 119v201h-248l-200-156h63c46 0 77-33 77-82 0-20-5-37-15-51l-3-3 37 29v107h41l-2-98 63 98h36v-164zM432 400v-178l-119-92v-1 147h-61l-4-8-33-50 1 42v16h-73v-45c-3 6-7 12-12 17-8 9-18 16-30 21s-24 7-38 7h-16l159 124h226zM59 150h-4v57h4c8 0 13-2 17-6 5-6 6-15 6-22 0-26-12-29-23-29zM59 134v0c25 0 39 16 39 45 0 28-14 44-40 44h-19v-89h20z" fill="#000000" />
</svg>
