<?xml version="1.0" encoding="utf-8"?>
<!-- Generated by IcoMoon.io -->
<!DOCTYPE svg PUBLIC "-//W3C//DTD SVG 1.1//EN" "http://www.w3.org/Graphics/SVG/1.1/DTD/svg11.dtd">
<svg version="1.1" xmlns="http://www.w3.org/2000/svg" xmlns:xlink="http://www.w3.org/1999/xlink" width="512" height="512" viewBox="0 0 512 512">
<g>
</g>
	<path d="M233.555 54.919c1.943 2.083 2.16 4.648 2.157 7.327-0.052 43.754-0.086 87.508-0.118 131.262-0.041 55.993-0.081 111.987-0.111 167.98-0.012 24.396 0.007 48.794 0.003 73.19-0.001 3.732-1.527 5.389-4.855 5.389-18.557 0.001-37.113 0.004-55.67 0.015-40.395 0.021-80.79 0.047-121.185 0.071-4.164 0.003-6.003-3.014-4.188-6.807 5.11-10.675 10.213-21.353 15.298-32.039 36.281-76.253 72.553-152.509 108.835-228.762 17.489-36.754 35.002-73.497 52.475-110.26 1.138-2.396 2.031-4.908 3.038-7.367 1.442 0.001 2.881 0.001 4.321 0.001zM59.268 431.932c1.333 0 2.176 0 3.020 0 53.749 0.001 107.497 0.002 161.245 0.003 3.522 0 3.536 0 3.541-3.436 0.156-115.416 0.31-230.831 0.464-346.247 0.001-0.771 0-1.542 0-2.313-0.235-0.038-0.47-0.075-0.705-0.113-55.78 117.208-111.558 234.417-167.565 352.106zM276.992 54.919c0.975 2.386 1.834 4.824 2.938 7.147 30.947 65.064 61.924 130.115 92.885 195.174 27.629 58.054 55.24 116.115 82.865 174.171 3.162 6.644 1.877 8.69-5.387 8.686-57.912-0.037-115.824-0.058-173.736-0.077-4.549-0.002-5.818-1.238-5.818-5.819 0.002-21.517 0.021-43.034 0.010-64.552-0.040-69.83-0.090-139.662-0.139-209.493-0.023-32.636-0.048-65.271-0.094-97.908-0.004-2.679 0.213-5.245 2.158-7.328 1.44-0.001 2.879-0.001 4.318-0.001zM446.885 431.773c-55.908-117.481-111.703-234.724-167.797-352.6 0 117.978 0 235.208 0 352.601 56.024-0.001 111.652-0.001 167.797-0.001z" fill="#000000" />
</svg>
