<?xml version="1.0" encoding="utf-8"?>
<!-- Generated by IcoMoon.io -->
<!DOCTYPE svg PUBLIC "-//W3C//DTD SVG 1.1//EN" "http://www.w3.org/Graphics/SVG/1.1/DTD/svg11.dtd">
<svg version="1.1" xmlns="http://www.w3.org/2000/svg" xmlns:xlink="http://www.w3.org/1999/xlink" width="384" height="512" viewBox="0 0 384 512">
<g>
</g>
	<path d="M353 64c18 0 31 13 31 30v321c0 17-13 33-31 33h-320c-18 0-33-16-33-33v-321c0-17 15-30 33-30h320zM119 384v-171h-55v171h55zM93 187c18 0 30-13 30-29 0-17-11-30-29-30s-30 13-30 30c0 16 11 29 29 29v0zM320 384v-100c0-51-27-75-63-75-29 0-42 17-50 28v-24h-55v171h55v-97c0-5 0-10 2-14 4-10 13-20 28-20 20 0 28 15 28 37v94h55z" fill="#000000" />
</svg>
