<?xml version="1.0" encoding="utf-8"?>
<!-- Generated by IcoMoon.io -->
<!DOCTYPE svg PUBLIC "-//W3C//DTD SVG 1.1//EN" "http://www.w3.org/Graphics/SVG/1.1/DTD/svg11.dtd">
<svg version="1.1" xmlns="http://www.w3.org/2000/svg" xmlns:xlink="http://www.w3.org/1999/xlink" width="404" height="512" viewBox="0 0 404 512">
<g>
</g>
	<path d="M384 192l-54-52-9 9c35 32 57 79 57 130 0 44-16 83-43 114l36 45-12 10-35-43c-32 30-75 49-122 49v0 0c-47 0-90-19-122-49l-35 43-12-10 36-45c-27-31-43-71-43-115 0-51 22-97 57-129l-9-9-54 52c-12-14-20-32-20-52 0-44 35-80 80-82h5c20 0 39 7 54 18l-54 52 11 11c26-19 56-32 90-35v0c0-8 8-16 16-16s15 8 15 16v0c34 3 65 16 91 35l11-11-54-52c15-11 34-18 54-18h5c45 2 80 38 80 82 0 20-8 38-20 52zM22 168l91-89c-9-5-19-7-32-6-37 2-65 32-65 67 0 10 2 19 6 28zM362 276c0-88-72-158-160-158s-160 70-160 158 72 158 160 158 160-70 160-158zM291 79l91 89c4-9 6-18 6-28 0-35-28-65-65-67-13-1-23 1-32 6zM202 160h16v144h-112v-16h96v-128z" fill="#000000" />
</svg>
