<?xml version="1.0" encoding="utf-8"?>
<!-- Generated by IcoMoon.io -->
<!DOCTYPE svg PUBLIC "-//W3C//DTD SVG 1.1//EN" "http://www.w3.org/Graphics/SVG/1.1/DTD/svg11.dtd">
<svg version="1.1" xmlns="http://www.w3.org/2000/svg" xmlns:xlink="http://www.w3.org/1999/xlink" width="512" height="512" viewBox="0 0 512 512">
<g>
</g>
	<path d="M432 281h-216v149l216 32v-181zM448 265v0 215l-248-36v-179h248zM168 281h-152v120l152 22v-142zM184 265v0 177l-184-27v-150h184zM432 50v0l-216 31v152h216v-183zM448 32v0 217h-248v-182zM168 88v0l-152 22v123h152v-145zM184 70v0 179h-184v-153z" fill="#000000" />
</svg>
