<?xml version="1.0" encoding="utf-8"?>
<!-- Generated by IcoMoon.io -->
<!DOCTYPE svg PUBLIC "-//W3C//DTD SVG 1.1//EN" "http://www.w3.org/Graphics/SVG/1.1/DTD/svg11.dtd">
<svg version="1.1" xmlns="http://www.w3.org/2000/svg" xmlns:xlink="http://www.w3.org/1999/xlink" width="280" height="512" viewBox="0 0 280 512">
<g>
</g>
	<path d="M266 480l-258-440 14-8 258 440zM128 353c-44 0-79-37-79-83v-118l113 193c-10 5-22 8-34 8zM207 270c0 10-2 19-5 28l-136-234c14-20 37-32 62-32 44 0 79 38 79 84v154zM256 272c0 28-9 54-24 75l-10-17c11-17 17-36 17-58v-80h17v80zM139 399v0 63h69v18h-161v-18h73v-63c-67-5-120-60-120-127v-80h19v80c0 60 50 109 110 109 17 0 34-4 48-11l9 16c-14 7-30 12-47 13z" fill="#000000" />
</svg>
