<?xml version="1.0" encoding="utf-8"?>
<!-- Generated by IcoMoon.io -->
<!DOCTYPE svg PUBLIC "-//W3C//DTD SVG 1.1//EN" "http://www.w3.org/Graphics/SVG/1.1/DTD/svg11.dtd">
<svg version="1.1" xmlns="http://www.w3.org/2000/svg" xmlns:xlink="http://www.w3.org/1999/xlink" width="384" height="512" viewBox="0 0 384 512">
<g>
</g>
	<path d="M354 160c18 0 30 13 30 31v176c0 18-12 33-30 33h-320c-18 0-34-15-34-33v-176c0-18 16-31 34-31h13v-16h34v16h13c32-36 43-48 55-48h88c12 0 23 12 55 48h62zM192 360c47 0 86-38 86-85s-39-85-86-85-86 38-86 85 39 85 86 85zM305 209v-17h-17v17h17zM192 206c38 0 70 31 70 69s-32 69-70 69-70-31-70-69 32-69 70-69zM192 307c18 0 32-14 32-32s-14-32-32-32-32 14-32 32 14 32 32 32z" fill="#000000" />
</svg>
