<?xml version="1.0" encoding="utf-8"?>
<!-- Generated by IcoMoon.io -->
<!DOCTYPE svg PUBLIC "-//W3C//DTD SVG 1.1//EN" "http://www.w3.org/Graphics/SVG/1.1/DTD/svg11.dtd">
<svg version="1.1" xmlns="http://www.w3.org/2000/svg" xmlns:xlink="http://www.w3.org/1999/xlink" width="256" height="512" viewBox="0 0 256 512">
<g>
</g>
	<path d="M240 112c6-1 11-1 16-2v173c-5 1-10 1-16 2-11 1-24 3-39 3-25 0-47-4-69-9s-42-13-64-13c-30 0-46 5-52 7v143h-16v-306l3-3c2-1 18-11 65-11 24 0 45 4 67 9 21 4 42 11 65 11 15 0 29-3 40-4z" fill="#000000" />
</svg>
