<?xml version="1.0" encoding="utf-8"?>
<!-- Generated by IcoMoon.io -->
<!DOCTYPE svg PUBLIC "-//W3C//DTD SVG 1.1//EN" "http://www.w3.org/Graphics/SVG/1.1/DTD/svg11.dtd">
<svg version="1.1" xmlns="http://www.w3.org/2000/svg" xmlns:xlink="http://www.w3.org/1999/xlink" width="512" height="512" viewBox="0 0 512 512">
<g>
</g>
	<path d="M367 233c45 0 81 37 81 83 0 45-37 84-82 84h-276c-50 0-90-42-90-92 0-40 26-71 61-83 5-28 29-52 59-52 10 0 18 2 26 6 19-39 59-67 105-67 64 0 117 53 117 117 0 1-1 3-1 4zM366 384c37 0 66-32 66-69s-29-67-66-67h-15v-21c0-56-46-99-101-99-38 0-73 23-90 58l-6 14-14-7c-6-3-13-5-20-5-22 0-40 17-44 39l-1 9-9 3c-30 10-50 37-50 69 0 41 33 76 74 76h276z" fill="#000000" />
</svg>
