<?xml version="1.0" encoding="utf-8"?>
<!-- Generated by IcoMoon.io -->
<!DOCTYPE svg PUBLIC "-//W3C//DTD SVG 1.1//EN" "http://www.w3.org/Graphics/SVG/1.1/DTD/svg11.dtd">
<svg version="1.1" xmlns="http://www.w3.org/2000/svg" xmlns:xlink="http://www.w3.org/1999/xlink" width="288" height="512" viewBox="0 0 288 512">
<g>
</g>
	<path d="M220 179c38 0 68 33 68 71 0 29-19 56-45 66l-55 80c-2 2-5 4-8 4-5 0-8-3-8-8 0-2 1-4 2-6l46-66h-35l-31 44c-2 2-4 4-7 4-5 0-9-3-9-8 0-2 1-3 2-5l25-35h-37l-53 76c-2 2-4 4-7 4-5 0-9-3-9-8 0-2 2-4 3-6l46-66h-36l-32 44c-2 2-4 4-7 4-5 0-8-3-8-8 0-2 1-4 2-6l25-34c-29-2-52-27-52-56 0-28 22-58 50-60 0-3-1-5-1-8 0-46 31-84 82-84 45 0 73 31 81 68 3 0 5-1 8-1zM220 302c28 0 52-24 52-52s-24-54-52-54h-6l-15 2-3-15c-3-14-11-31-23-40-12-10-26-14-41-14-36 0-66 31-66 67v22c-6 0-12 2-14 2-20 3-35 23-35 43 0 10 4 20 11 27s16 12 26 12h166z" fill="#000000" />
</svg>
