<?xml version="1.0" encoding="utf-8"?>
<!-- Generated by IcoMoon.io -->
<!DOCTYPE svg PUBLIC "-//W3C//DTD SVG 1.1//EN" "http://www.w3.org/Graphics/SVG/1.1/DTD/svg11.dtd">
<svg version="1.1" xmlns="http://www.w3.org/2000/svg" xmlns:xlink="http://www.w3.org/1999/xlink" width="512" height="512" viewBox="0 0 512 512">
<g>
</g>
	<path d="M34.15 119.682c2.207 5.323 6.167 7.291 11.918 7.28 72.692-0.104 145.385-0.064 218.079-0.090 1.881 0 3.832-0.059 5.627-0.547 6.371-1.738 8.328-9.399 3.809-14.248-2.571-2.758-5.848-2.911-9.242-2.911-72.546 0.006-145.094 0.042-217.641-0.066-5.791-0.006-10.090 1.657-12.549 7.080-0.001 1.168-0.001 2.337-0.001 3.502zM34.149 191.522c2.257 5.286 6.224 7.222 11.971 7.208 51.828-0.127 103.656-0.079 155.484-0.063 2.205 0.002 4.372-0.074 6.447-0.924 5.094-2.080 6.851-8.806 3.458-13.127-2.537-3.231-6.041-3.653-9.796-3.65-51.829 0.020-103.656 0.056-155.484-0.051-5.674-0.012-9.733 1.871-12.078 7.103-0.001 1.166-0.001 2.336-0.002 3.504zM34.149 263.361c2.404 5.447 6.631 7.189 12.47 7.139 22.772-0.207 45.548-0.084 68.321-0.084 17.228 0 34.454 0.016 51.681-0.010 5.518-0.011 8.867-1.98 10.198-5.823 2.247-6.483-2.261-11.764-10.181-11.771-40-0.023-80.001 0.057-120.002-0.088-5.814-0.021-10.076 1.679-12.486 7.131 0 1.167 0 2.337-0.001 3.506zM34.15 335.197c2.481 5.368 6.714 7.303 12.533 7.081 7.579-0.29 15.176-0.069 22.766-0.069 20.288 0 40.575-0.012 60.862 0.008 4.484 0.006 8.536-0.934 10.456-5.495 2.676-6.362-1.893-12.085-9.666-12.099-28.169-0.049-56.338 0.073-84.505-0.096-5.815-0.035-10.067 1.695-12.446 7.167 0 1.169 0 2.337 0 3.503zM34.15 406.162c1.731 4.728 4.774 7.793 10.115 7.799 17.21 0.018 34.421 0.084 51.63-0.053 4.129-0.036 7.724-1.639 9.126-6.066 1.979-6.26-2.295-11.347-9.716-11.379-16.188-0.068-32.381 0.136-48.566-0.099-6.247-0.091-10.681 1.773-12.59 8.044 0.001 0.584 0.001 1.168 0.001 1.754zM383.956 380.479c0-2.743 0-4.304 0-5.864 0-85.109 0.005-170.218-0.014-255.324 0-2.349 0.055-4.655 0.909-6.881 1.496-3.896 4.601-5.805 8.478-5.604 3.807 0.197 6.823 2.154 7.994 6.248 0.617 2.15 0.708 4.287 0.708 6.479-0.009 85.107-0.006 170.216-0.006 255.325 0 1.538 0 3.078 0 4.62 0.354 0.22 0.709 0.441 1.066 0.664 0.853-1.113 1.593-2.337 2.572-3.321 19.695-19.737 39.411-39.453 59.137-59.159 4.248-4.243 8.115-5.167 12.039-2.976 4.497 2.51 5.883 7.413 3.461 11.956-0.911 1.707-2.184 3.070-3.528 4.413-26.945 26.939-53.917 53.851-80.766 80.887-2.39 2.405-3.583 2.488-6.022 0.028-27.048-27.246-54.237-54.351-81.368-81.516-5.934-5.943-5.341-13.161 1.264-16.147 4.46-2.014 7.926 0 10.972 3.010 7.686 7.593 15.297 15.259 22.93 22.903 13.088 13.106 26.17 26.224 40.174 40.259z" fill="#000000" />
</svg>
