<?xml version="1.0" encoding="utf-8"?>
<!-- Generated by IcoMoon.io -->
<!DOCTYPE svg PUBLIC "-//W3C//DTD SVG 1.1//EN" "http://www.w3.org/Graphics/SVG/1.1/DTD/svg11.dtd">
<svg version="1.1" xmlns="http://www.w3.org/2000/svg" xmlns:xlink="http://www.w3.org/1999/xlink" width="384" height="512" viewBox="0 0 384 512">
<g>
</g>
	<path d="M106 96c-41 0-74 33-74 73 0 13 4 25 10 36l6 11-2 12c-2 10-3 20-3 30 0 40 16 77 44 105s67 44 107 44c9 0 19-1 28-3l11-2 9 5c11 6 24 9 36 9 41 0 74-33 74-73 0-11-3-22-8-32l-5-10 3-11c2-10 3-21 3-32 0-40-16-77-44-105s-67-43-107-43c-9 0-18 0-26 2l-12 2-10-7c-12-7-26-11-40-11zM106 64v0c21 0 40 6 56 16 10-2 21-2 32-2 101 0 183 80 183 180 0 13-1 27-4 39 7 14 11 29 11 46 0 58-47 105-106 105-18 0-35-4-50-12-11 2-22 3-34 3-101 0-183-81-183-181 0-12 2-24 4-36-9-16-15-34-15-53 0-58 47-105 106-105zM288 344c-8 12-21 21-37 28s-36 10-58 10c-26 0-48-5-65-14-12-7-22-15-30-26s-12-22-12-33c0-7 3-12 8-17s11-7 19-7c6 0 12 2 16 6s7 8 10 15 7 13 11 18 8 9 15 12 16 5 27 5c15 0 28-4 37-10s13-13 13-22c0-7-2-13-7-17-5-5-11-9-19-11-8-3-20-5-34-8-19-4-35-9-48-14-13-6-24-13-32-23s-11-22-11-36 4-25 12-36c8-10 20-19 36-25 15-6 34-8 54-8 16 0 30 1 42 5s23 9 31 15 14 13 18 20 5 14 5 21c0 6-2 12-7 17s-11 8-19 8c-7 0-12-2-16-5-3-3-7-7-11-14-5-8-10-15-16-20s-17-8-31-8c-13 0-23 3-31 8s-12 11-12 18c0 4 2 7 4 10 3 3 6 6 11 8s10 5 15 6 13 3 25 6c15 3 28 6 40 10s23 8 32 14 15 13 20 22 8 20 8 32c0 15-5 28-13 40z" fill="#000000" />
</svg>
