<?xml version="1.0" encoding="utf-8"?>
<!-- Generated by IcoMoon.io -->
<!DOCTYPE svg PUBLIC "-//W3C//DTD SVG 1.1//EN" "http://www.w3.org/Graphics/SVG/1.1/DTD/svg11.dtd">
<svg version="1.1" xmlns="http://www.w3.org/2000/svg" xmlns:xlink="http://www.w3.org/1999/xlink" width="418" height="512" viewBox="0 0 418 512">
<g>
</g>
	<path d="M385 64c19 0 33 13 33 32v286c0 19-14 34-33 34h-143s-25 4-25 19v13h-16v-13c0-15-11-19-25-19h-143c-19 0-33-15-33-34v-286c0-19 14-32 33-32h150c10 0 20 5 26 12v0 0c6-7 16-12 26-12h150zM201 411v-309c0-9-12-22-25-22h-143c-9 0-16 7-16 16v286c0 9 7 18 16 18h144c10 0 19 3 24 11zM273 80v100l23-14 9-6 9 6 23 14v-100h-64zM401 382v-286c0-9-7-16-16-16h-32v131l-48-32-48 32v-131h-15c-13 0-25 13-25 22v309c5-9 14-11 24-11h144c9 0 16-9 16-18z" fill="#000000" />
</svg>
