<?xml version="1.0" encoding="utf-8"?>
<!-- Generated by IcoMoon.io -->
<!DOCTYPE svg PUBLIC "-//W3C//DTD SVG 1.1//EN" "http://www.w3.org/Graphics/SVG/1.1/DTD/svg11.dtd">
<svg version="1.1" xmlns="http://www.w3.org/2000/svg" xmlns:xlink="http://www.w3.org/1999/xlink" width="512" height="512" viewBox="0 0 512 512">
<g>
</g>
	<path d="M314.825 77.228c-5.038-15.468-22.056-29.014-37.479-29.832-1.32-0.792-2.956 0.261-4.243-0.725-1.098 0-2.193 0-3.291 0-1.301 0.977-2.931-0.045-4.269 0.703-1.62 0.214-3.291 0.241-4.853 0.668-27.626 7.56-41.514 33.048-32.922 60.345 7.973 25.332 39.894 38.595 63.466 26.37 22.065-11.442 31.28-33.917 23.591-57.529zM271.505 122.412c-16.143 0.122-29.668-13.306-29.639-29.425 0.030-16.002 13.201-29.188 29.293-29.325 16.153-0.136 29.627 13.228 29.619 29.378-0.007 15.991-13.222 29.251-29.273 29.372zM262.847 250.929c1.89-8.709 3.917-17.389 5.734-26.115 0.878-4.216 1.336-4.353 5.021-1.927 1.946 1.283 3.804 2.701 5.749 3.979 8.012 5.268 15.305 11.63 23.916 15.975 9.53 4.81 18.924 4.794 28.148-1.034 4.402-2.782 8.771-5.633 13.32-8.175l0.827-0.553c0.72-0.541 1.454-1.175 2.194-1.472l22.201-14.876c0.488-0.493 1.086-0.951 1.838-1.389 0.957-0.557 1.898-1.14 2.83-1.74l2.454-1.645c2.657-1.862 5.202-3.893 7.616-6.080 4.21-3.816 7.983-8.033 9.32-13.726 2.908-12.397-8.71-24.189-21.603-21.652l-23.759 9.432c-7.725 3.48-15.412 7.052-23.003 10.812-2.498 1.237-4.199 1.141-6.472-0.646-14.757-11.601-29.663-23.011-44.491-34.523-1.855-1.441-3.834-2.599-5.975-3.528-12.981-5.641-26.851-8.364-40.388-12.154-3.966-1.111-8.3-0.825-12.032 1.215-2.398 1.312-3.491 0.412-5.095-1.191-4.882-4.873-10.75-7.881-17.699-8.692-8.1-0.942-15.133 2.462-21.809 6.028-33.951 18.134-54.743 45.26-56.157 84.905-0.69 19.324 10.327 35.678 29.009 41.548 9.977 3.135 20.043 2.472 29.984-0.302 2.352-0.656 2.76-0.169 2.746 2.125-0.031 5.629-0.212 11.673 2.312 16.563 4.892 9.481 1.926 18.034-0.885 27.039-4.519 14.48-7.698 29.438-13.067 43.578-8.243 21.701-17.889 42.87-27.897 63.841-3.186 6.674-6.002 13.467-7.522 20.76-3.259 15.644 4.741 28.179 19.298 30.081 2.047 0.48 4.126 0.109 6.191 0.227 9.072 0.023 14.982-5.544 20.126-11.914 14.872-18.415 25.349-39.384 34.271-61.125 6.713-16.358 13.072-32.865 19.781-49.228 1.556-3.793 2.158-3.955 5.142-1.444 6.397 5.383 12.722 10.852 19.21 16.124 1.815 1.474 2.84 3.14 2.58 5.654-2.311 22.2-4.588 44.402-6.77 66.613-0.723 7.368-0.718 14.785 1.8 21.968 3.087 8.809 9.178 13.267 18.517 13.352 2.284 0 4.573 0 6.86 0 5.515 0.227 9.741-2.296 13.257-6.273 6.73-7.613 9.509-16.883 10.854-26.656 3.945-28.654 7.481-57.362 11.294-86.034 1.534-11.529-1.286-21.845-10.112-30.358-13.915-13.42-27.362-27.321-41.122-40.906-2.646-2.612-3.467-5.169-2.514-8.805 1.529-5.83 2.694-11.76 3.972-17.656zM275.391 188.922c0.646-3.079 1.322-6.152 2.109-9.806 12.268 9.485 24.147 18.51 35.83 27.785 4.62 3.669 8.971 4.195 14.341 1.564 13.251-6.494 26.664-12.658 40.077-18.812 2.935-1.347 7.065-4.55 9.064-1.38 1.433 2.271-3.246 5.079-5.752 6.993-11.12 8.487-23.446 15.129-35.199 22.653-4.032 2.58-8.414 4.676-12.205 7.559-5.433 4.128-10.361 3.18-15.42-0.365-8.634-6.052-17.302-12.058-25.89-18.175-3.102-2.21-7.627-3.603-8.878-6.913-1.249-3.306 1.139-7.37 1.923-11.103zM180.827 238.297c-1.617 5.929-6.521 7.335-11.217 9.008-3.751 1.338-7.815 1.264-11.609 1.621-15.202-0.034-25.905-10.927-25.615-26.218 0.498-26.314 12.66-46.473 33.229-62.065 6.351-4.814 13.323-8.485 20.72-11.511 4.888-2.001 8.786-0.95 12.471 2.229 3.613 3.118 4.28 6.914 2.983 11.506-7.090 25.115-14.094 50.255-20.962 75.43zM216.935 329.604c-15.165 34.775-25.782 71.607-46.882 103.697-3.012 4.583-6.096 9.122-9.993 13.020-1.155 1.156-2.435 2.211-3.758 3.17-2.182 1.58-4.488 1.71-6.949 0.489-2.509-1.244-3.010-3.423-2.917-5.847 0.209-5.575 2.063-10.739 4.398-15.709 10.118-21.527 19.808-43.244 28.854-65.241 6.57-15.979 9.976-32.949 15.202-49.351 0.374-1.172 0.697-2.359 1.208-4.096 6.888 5.793 13.367 11.267 19.877 16.699 1.067 0.892 1.573 1.765 0.96 3.169zM243.138 284.579c15.472 15.159 30.721 30.543 46.2 45.691 3.809 3.726 5.625 7.837 5.361 13.149-0.639 12.888-3.103 25.546-4.617 38.323-1.919 16.181-4.123 32.326-6.279 48.478-0.779 5.844-1.969 11.601-4.955 16.808-1.556 2.711-3.589 4.346-7.024 3.674-3.474-0.678-3.513-3.335-3.822-5.927-0.326-2.729-0.498-5.459-0.37-8.225 2.558-24.938 5.083-49.876 7.7-74.806 0.486-4.62-0.909-8.177-4.501-11.184-19.962-16.716-39.698-33.704-59.812-50.234-14.121-11.606-18.573-26.465-16.499-43.946 1.963-16.532 7.946-32.066 12.087-48.055 4.109-15.868 8.697-31.614 13.083-47.412 1.131-4.073 3.034-5.214 7.341-4.031 9.621 2.638 19.219 5.355 28.797 8.144 6.49 1.89 6.977 2.695 5.553 9.166-4.141 18.833-8.348 37.65-12.534 56.474-3.088 13.883-6.177 27.766-9.279 41.646-1.066 4.754-0.068 8.703 3.57 12.267z" fill="#000000" />
</svg>
