<?xml version="1.0" encoding="utf-8"?>
<!-- Generated by IcoMoon.io -->
<!DOCTYPE svg PUBLIC "-//W3C//DTD SVG 1.1//EN" "http://www.w3.org/Graphics/SVG/1.1/DTD/svg11.dtd">
<svg version="1.1" xmlns="http://www.w3.org/2000/svg" xmlns:xlink="http://www.w3.org/1999/xlink" width="416" height="512" viewBox="0 0 416 512">
<g>
</g>
	<path d="M368 128h48v320h-416v-320h48v-16h32v16h48v-32c0-18 10-32 29-32h99c19 0 32 14 32 32v32h48v-16h32v16zM144 128v0h128v-30c0-10-7-18-17-18h-97c-11 0-14 8-14 18v30zM400 432v-224h-384v224h384zM400 192v-48h-32v16h-32v-16h-256v16h-32v-16h-32v48h384z" fill="#000000" />
</svg>
