<?xml version="1.0" encoding="utf-8"?>
<!-- Generated by IcoMoon.io -->
<!DOCTYPE svg PUBLIC "-//W3C//DTD SVG 1.1//EN" "http://www.w3.org/Graphics/SVG/1.1/DTD/svg11.dtd">
<svg version="1.1" xmlns="http://www.w3.org/2000/svg" xmlns:xlink="http://www.w3.org/1999/xlink" width="512" height="512" viewBox="0 0 512 512">
<g>
</g>
	<path d="M224 112v0 0zM317 335c11 4-11-4 0 0 28 10 46 35 46 65h-278c0-22 9-42 27-55 15-11 31-12 49-16 7-1 24-5 26-13s1-15 1-23c0-3 0-3-2-5-4-4-6-9-8-14-2-8-3-16-4-24-9 2-10-16-12-21-1-4-7-24 3-21-3-5-4-13-5-19-2-13-2-26 3-39 10-26 37-39 64-38 26 1 51 16 59 42 4 12 3 26 1 39-1 5-2 11-4 15 10-3 4 20 3 23-2 5-3 21-12 19-1 10-2 22-7 31-1 2-7 8-7 10v11c0 5 0 10 2 15s10 7 14 8c14 5 27 5 41 10zM115 364c-6 6 9-10 0 0-6 6-10 12-12 20h242c-4-15-17-27-30-33s-28-4-41-9-25-9-28-25c-2-11-2-22-2-33 0-2 7-7 8-9 3-5 4-11 5-17 1-5 0-12 4-15 5-4 7-7 9-13 2-8 3-12-1-19-3-5 0-8 1-13 3-11 4-24 2-36-8-37-62-45-86-19-12 13-12 31-9 47 1 6 6 14 3 19-1 3-5 6-4 10 2 5 2 11 4 16 2 4 4 6 7 8s3 6 3 9c1 7 2 17 6 23 3 4 8 6 8 11v21c-1 8-2 18-8 24-7 6-18 10-27 12-11 3-23 3-33 7-8 3-15 8-21 14zM112 322c-15 7 9-4 0 0-9 5-18 11-25 19-1 2-6 11-7 11h-80c0-20 13-34 31-40 6-2 27-4 30-11 2-5 0-11 0-16-10 1-24-1-32-7-2-2 3-9 4-12l3-12c1-9 1-19 1-28 0-16-1-34 8-48 8-13 23-18 38-18 24 0 43 13 47 37 3 16 1 32 2 48 0 8 2 16 5 24 1 2 5 7 3 9l-6 3c-5 2-11 3-17 4-1 0-8 0-9 1s0 9 0 11c0 4 1 6 5 7 6 2 19 3 23 8 2 3 1 5-2 5-8 1-15 1-22 5zM71 336c6-10 16-18 26-24-9-9-5-26-4-37 0-2 0-5 2-5h8c6 0 11-1 17-2-7-23 0-47-5-70-3-16-15-23-31-23-17 0-27 9-30 25-4 22 3 46-4 68 9 1 17 2 26 2 1 0 1 28 1 29-1 12-8 18-19 22-12 4-29 3-36 15h49zM368 352c-2-8-10-14-16-19-8-6-18-13-28-15-3-1-16 1-13-5 2-4 9-5 13-6s15-2 16-7c0-1 1-14 0-14-6 0-12-1-18-2-4-1-7-2-11-4-6-3-2-6 0-11 14-32-10-88 32-105 15-6 34-5 48 3 15 9 20 27 20 44 0 20-4 44 7 62 2 3 4 4 0 6-2 1-4 1-6 2l-12 3s-9 1-13 1c0 4-2 13 1 17 6 7 21 7 29 10 18 6 31 20 31 40h-80zM367 325c4 4-5-5 0 0s8 11 15 11h44c-7-12-26-11-38-16-11-4-16-12-17-24 0-2-1-27 1-27 9 0 18 0 26-1-7-23 1-47-4-70-3-15-15-23-30-23-17 0-28 8-31 25-4 23 2 46-5 68 6 2 12 2 18 2s8-1 9 5c1 11 5 28-4 37 6 4 11 8 16 13z" fill="#000000" />
</svg>
