<?xml version="1.0" encoding="utf-8"?>
<!-- Generated by IcoMoon.io -->
<!DOCTYPE svg PUBLIC "-//W3C//DTD SVG 1.1//EN" "http://www.w3.org/Graphics/SVG/1.1/DTD/svg11.dtd">
<svg version="1.1" xmlns="http://www.w3.org/2000/svg" xmlns:xlink="http://www.w3.org/1999/xlink" width="320" height="512" viewBox="0 0 320 512">
<g>
</g>
	<path d="M192 240h-64c-9 0-16 7-16 16s7 16 16 16h64c9 0 16-7 16-16s-7-16-16-16zM192 224v0c18 0 32 14 32 32s-14 32-32 32h-64c-18 0-32-14-32-32s14-32 32-32h64zM320 112v80h-16v208h-288v-208h-16v-80h320zM288 384v-192h-256v192h256zM304 176v-48h-288v48h288z" fill="#000000" />
</svg>
