<?xml version="1.0" encoding="utf-8"?>
<!-- Generated by IcoMoon.io -->
<!DOCTYPE svg PUBLIC "-//W3C//DTD SVG 1.1//EN" "http://www.w3.org/Graphics/SVG/1.1/DTD/svg11.dtd">
<svg version="1.1" xmlns="http://www.w3.org/2000/svg" xmlns:xlink="http://www.w3.org/1999/xlink" width="256" height="512" viewBox="0 0 256 512">
<g>
</g>
	<path d="M252 317c4 2 5 7 3 11s-7 5-11 3l-29-17c-2 8-2 16 0 24 1 4-3 9-7 10s-8-2-9-6c-2-12-3-24 1-36l-64-36v73c11 3 22 8 31 16 3 3 4 8 1 11s-8 4-11 1c-6-5-13-10-21-12v33c0 4-4 8-8 8s-8-4-8-8v-33c-8 2-15 7-21 12-3 3-8 2-11-1s-3-8 0-11c9-8 20-13 32-16v-73l-65 36c4 12 4 23 2 35-1 4-5 8-9 7s-8-6-7-10c2-8 2-16 0-24l-29 17c-4 2-9 1-11-3s-1-9 3-11l29-16c-6-6-13-10-21-13-4-1-6-6-5-10 2-4 6-6 10-5 12 4 22 11 30 19l65-36-65-37c-8 9-18 15-30 19-4 1-9 0-10-4s1-10 5-11c8-3 15-6 21-12l-29-16c-4-2-5-7-3-11s7-5 11-3l29 16c2-8 2-15 0-23-1-4 3-9 7-10s8 2 9 6c2 12 1 25-2 36l65 36v-73c-12-3-23-8-32-16-3-3-3-8 0-11s8-4 11-1c6 5 13 10 21 12v-33c0-4 4-8 8-8s8 4 8 8v33c8-2 15-7 21-12 3-3 8-2 11 1s2 8-1 11c-9 8-20 13-31 16v73l64-36c-3-11-4-24-2-36 1-4 6-7 10-6s7 6 6 10c-2 8-1 15 1 23l29-16c4-2 9-1 11 3s1 9-3 11l-29 16c6 6 13 10 21 13 4 1 6 6 5 10s-6 6-10 5c-12-4-23-10-31-19l-64 36 64 36c8-8 19-15 31-19 4-1 9 1 10 5s-1 9-5 10c-8 3-15 7-21 13z" fill="#000000" />
</svg>
