<?xml version="1.0" encoding="utf-8"?>
<!-- Generated by IcoMoon.io -->
<!DOCTYPE svg PUBLIC "-//W3C//DTD SVG 1.1//EN" "http://www.w3.org/Graphics/SVG/1.1/DTD/svg11.dtd">
<svg version="1.1" xmlns="http://www.w3.org/2000/svg" xmlns:xlink="http://www.w3.org/1999/xlink" width="384" height="512" viewBox="0 0 384 512">
<g>
</g>
	<path d="M193 160c26 0 50 10 68 28s28 42 28 68-10 50-28 68-42 28-68 28-50-10-68-28-28-42-28-68 10-50 28-68 42-28 68-28zM193 336c44 0 80-36 80-80s-36-80-80-80-80 36-80 80 36 80 80 80zM360 216c14 0 24 11 24 25v30c0 14-10 24-24 24h-15c-12 0-23 11-23 24 0 6 3 13 8 17l10 9c10 10 10 25 0 35l-22 22c-4 4-11 7-18 7s-14-3-18-7l-9-9c-5-5-11-8-17-8-13 0-23 11-23 23v15c0 14-11 25-25 25h-30c-14 0-25-11-25-25v-15c0-12-10-23-23-23-6 0-13 3-17 8l-10 9c-4 4-10 7-17 7s-14-3-18-7l-22-22c-10-10-10-25 0-35l9-9c5-4 8-11 8-17 0-13-11-23-23-23h-15c-14 0-25-11-25-25v-30c0-14 11-25 25-25h15c12 0 23-10 23-23 0-6-3-13-8-17l-9-9c-10-10-10-25 0-35l22-22c4-4 11-7 18-7s13 3 17 7l10 10c4 5 11 7 17 7 13 0 23-11 23-23v-15c0-14 11-25 25-25h30c14 0 24 11 24 25v15c0 12 11 23 24 23 6 0 13-3 17-8l9-9c4-4 11-7 18-7s14 3 18 7l22 22c10 10 10 25 0 35l-10 9c-5 4-8 11-8 17 0 13 11 23 23 23h15zM368 256v-15c0-4-3-9-8-9h-15c-10 0-20-4-27-12s-12-17-12-27c0-11 5-21 13-28l9-9c2-2 3-5 3-7s-1-4-3-6l-22-22c-2-1-4-2-6-2s-4 0-6 2l-10 9c-8 8-17 13-28 13-10 0-20-4-28-11s-12-18-12-28v-15c0-5-4-9-8-9h-30c-4 0-9 4-9 9v15c0 10-4 21-12 28s-17 11-27 11c-11 0-21-4-28-12l-10-10c-1-1-4-2-6-2s-4 0-6 2l-23 22c-2 2-2 5-2 6s0 5 2 7l9 9c8 8 13 17 13 28 0 10-4 19-11 27s-18 12-28 12h-15c-5 0-9 5-9 9v30c0 4 4 9 9 9h15c10 0 21 4 28 12s11 17 11 27c0 11-4 21-12 29l-9 8c-3 3-3 10 0 13l22 22c1 1 4 2 6 2s4 0 6-2l10-9c7-8 17-13 28-13 10 0 19 4 27 11s12 18 12 28v15c0 5 4 9 9 9h30c5 0 9-4 9-9v-15c0-10 4-21 12-28s17-11 27-11c11 0 21 5 29 13l9 9c2 2 4 2 6 2s4 0 6-2l23-22c3-3 3-10 0-13l-10-9c-8-7-12-17-12-28 0-10 4-20 11-28s18-12 28-12h15c5 0 7-4 7-8v-15z" fill="#000000" />
</svg>
