<?xml version="1.0" encoding="utf-8"?>
<!-- Generated by IcoMoon.io -->
<!DOCTYPE svg PUBLIC "-//W3C//DTD SVG 1.1//EN" "http://www.w3.org/Graphics/SVG/1.1/DTD/svg11.dtd">
<svg version="1.1" xmlns="http://www.w3.org/2000/svg" xmlns:xlink="http://www.w3.org/1999/xlink" width="416" height="512" viewBox="0 0 416 512">
<g>
</g>
	<path d="M48 128v-16h32v16h-32zM0 448v-240h416v240h-416zM336 128v-16h32v16h-32zM368 128h48v64h-416v-64h48v32h32v-32h48v-32c0-18 10-32 29-32h99c19 0 32 14 32 32v32h48v32h32v-32zM272 128v-30c0-10-7-18-17-18h-97c-11 0-14 8-14 18v30h128z" fill="#000000" />
</svg>
