<?xml version="1.0" encoding="utf-8"?>
<!-- Generated by IcoMoon.io -->
<!DOCTYPE svg PUBLIC "-//W3C//DTD SVG 1.1//EN" "http://www.w3.org/Graphics/SVG/1.1/DTD/svg11.dtd">
<svg version="1.1" xmlns="http://www.w3.org/2000/svg" xmlns:xlink="http://www.w3.org/1999/xlink" width="384" height="512" viewBox="0 0 384 512">
<g>
</g>
	<path d="M113 77l79 66-114 71-78-63zM27 153l52 42 86-53-53-46zM306 213l78 63-78 51v39l-114 69-114-68v-39l-78-52 78-63 114 71-79 66-19-12v20l98 59 98-59v-20l-19 12-79-66zM79 231l-52 44 85 55 53-44zM219 286l53 44 85-56-52-43zM384 151l-78 63-114-71 79-66zM219 143l86 52 52-42-85-56z" fill="#000000" />
</svg>
