<?xml version="1.0" encoding="utf-8"?>
<!-- Generated by IcoMoon.io -->
<!DOCTYPE svg PUBLIC "-//W3C//DTD SVG 1.1//EN" "http://www.w3.org/Graphics/SVG/1.1/DTD/svg11.dtd">
<svg version="1.1" xmlns="http://www.w3.org/2000/svg" xmlns:xlink="http://www.w3.org/1999/xlink" width="320" height="512" viewBox="0 0 320 512">
<g>
</g>
	<path d="M320 320c0 34 4 80-49 82-49 2-62-16-62-41 0-20 9-39 52-41 23-1 34-2 43-2v-160l-191 32v161c0 34 3 81-50 83-49 2-63-17-63-42 0-20 9-39 52-41 23-1 35-1 44-1v-237l224-35v242z" fill="#000000" />
</svg>
