<?xml version="1.0" encoding="utf-8"?>
<!-- Generated by IcoMoon.io -->
<!DOCTYPE svg PUBLIC "-//W3C//DTD SVG 1.1//EN" "http://www.w3.org/Graphics/SVG/1.1/DTD/svg11.dtd">
<svg version="1.1" xmlns="http://www.w3.org/2000/svg" xmlns:xlink="http://www.w3.org/1999/xlink" width="512" height="512" viewBox="0 0 512 512">
<g>
</g>
	<path d="M239.668 415.646c-21.322 0-42.251 0-63.423 0 0-106.486 0-212.731 0-319.366 20.993 0 42.041 0 63.423 0 0 106.282 0 212.644 0 319.366zM431.664 415.65c-21.315 0-42.243 0-63.417 0 0-74.486 0-148.732 0-223.369 20.986 0 42.033 0 63.417 0 0 74.276 0 148.639 0 223.369zM335.661 415.652c-21.31 0-42.235 0-63.411 0 0-53.15 0-106.064 0-159.371 20.98 0 42.025 0 63.411 0 0 52.938 0 105.969 0 159.371zM143.647 415.668c-21.273 0-42.196 0-63.382 0 0-31.807 0-63.391 0-95.377 20.944 0 41.985 0 63.382 0 0 31.568 0 63.27 0 95.377z" fill="#000000" />
</svg>
