<?xml version="1.0" encoding="utf-8"?>
<!-- Generated by IcoMoon.io -->
<!DOCTYPE svg PUBLIC "-//W3C//DTD SVG 1.1//EN" "http://www.w3.org/Graphics/SVG/1.1/DTD/svg11.dtd">
<svg version="1.1" xmlns="http://www.w3.org/2000/svg" xmlns:xlink="http://www.w3.org/1999/xlink" width="512" height="512" viewBox="0 0 512 512">
<g>
</g>
	<path d="M447.9 256c0 106-86 192-192 192-84.6 0-156.3-54.8-181.9-130.9l12.399-3.5c24.001 70.6 90.901 121.6 169.501 121.6 98.8 0 179.2-80.4 179.2-179.2s-80.4-179.2-179.2-179.2c-98.6 0-178.8 80.1-179.1 178.6l51.1-52.4 9 9.1-66.6 67.9-70.3-67.9 9-9.1 55 52.5c0.2-105.8 86-191.5 191.9-191.5 106 0 192 86 192 192z" fill="#000000" />
</svg>
