<?xml version="1.0" encoding="utf-8"?>
<!-- Generated by IcoMoon.io -->
<!DOCTYPE svg PUBLIC "-//W3C//DTD SVG 1.1//EN" "http://www.w3.org/Graphics/SVG/1.1/DTD/svg11.dtd">
<svg version="1.1" xmlns="http://www.w3.org/2000/svg" xmlns:xlink="http://www.w3.org/1999/xlink" width="384" height="512" viewBox="0 0 384 512">
<g>
</g>
	<path d="M0 99v-35h32v35h-32zM303 82h-222v142h222v-142zM320 64v0 177h-256v-177h256zM303 288h-222v143h222v-143zM320 270v0 178h-256v-178h256zM0 169v-35h32v35h-32zM0 238v-34h32v34h-32zM0 308v-34h32v34h-32zM0 378v-35h32v35h-32zM0 448v-35h32v35h-32zM352 99v-35h32v35h-32zM352 169v-35h32v35h-32zM352 238v-34h32v34h-32zM352 308v-34h32v34h-32zM352 378v-35h32v35h-32zM352 448v-35h32v35h-32z" fill="#000000" />
</svg>
