<?xml version="1.0" encoding="utf-8"?>
<!-- Generated by IcoMoon.io -->
<!DOCTYPE svg PUBLIC "-//W3C//DTD SVG 1.1//EN" "http://www.w3.org/Graphics/SVG/1.1/DTD/svg11.dtd">
<svg version="1.1" xmlns="http://www.w3.org/2000/svg" xmlns:xlink="http://www.w3.org/1999/xlink" width="320" height="512" viewBox="0 0 320 512">
<g>
</g>
	<path d="M314 279c4 10 7 30 6 44-1 16-5 37-16 51s-26 24-45 31c-15 6-33 10-59 11v64h-40v-64h-32v64h-41v-64h-87l9-48h26c9 0 9 0 12-1s4-4 5-7 2-8 2-17v-173c0-9-1-16-2-18s-3-4-6-6-9-2-18-2h-28v-48h87v-64h41v64h32v-64h40v64c20 1 33 4 46 9 16 6 28 15 37 27s12 28 13 45c1 10 0 20-3 28-2 8-8 16-16 23-6 6-11 9-16 11 9 2 17 6 25 10 15 8 23 18 28 30zM128 150v74h32v-74h-32zM128 362h32v-90h-32v90zM200 154v66c6-3 9-7 13-12 5-6 7-12 7-20s-2-15-6-21c-4-5-8-11-14-13zM229 341c8-7 10-15 10-26 0-9-3-19-8-25s-12-10-20-13c-4-2-6-2-11-3v82c2 0 5-1 7-2 10-4 14-6 22-13z" fill="#000000" />
</svg>
