<?xml version="1.0" encoding="utf-8"?>
<!-- Generated by IcoMoon.io -->
<!DOCTYPE svg PUBLIC "-//W3C//DTD SVG 1.1//EN" "http://www.w3.org/Graphics/SVG/1.1/DTD/svg11.dtd">
<svg version="1.1" xmlns="http://www.w3.org/2000/svg" xmlns:xlink="http://www.w3.org/1999/xlink" width="384" height="512" viewBox="0 0 384 512">
<g>
</g>
	<path d="M331 341c30 0 53 24 53 54s-23 53-53 53-54-23-54-53 24-54 54-54zM331 432c21 0 37-16 37-37s-16-38-37-38-38 17-38 38 17 37 38 37zM192 341c30 0 53 24 53 54s-23 53-53 53-53-23-53-53 23-54 53-54zM192 432c21 0 37-16 37-37s-16-38-37-38-37 17-37 38 16 37 37 37zM53 341c30 0 54 24 54 54s-24 53-54 53-53-23-53-53 23-54 53-54zM53 432c21 0 38-16 38-37s-17-38-38-38-37 17-37 38 16 37 37 37zM331 203c30 0 53 23 53 53s-23 53-53 53-54-23-54-53 24-53 54-53zM331 293c21 0 37-16 37-37s-16-37-37-37-38 16-38 37 17 37 38 37zM192 203c30 0 53 23 53 53s-23 53-53 53-53-23-53-53 23-53 53-53zM192 293c21 0 37-16 37-37s-16-37-37-37-37 16-37 37 16 37 37 37zM53 203c30 0 54 23 54 53s-24 53-54 53-53-23-53-53 23-53 53-53zM53 293c21 0 38-16 38-37s-17-37-38-37-37 16-37 37 16 37 37 37zM331 171c-30 0-54-24-54-54s24-53 54-53 53 23 53 53-23 54-53 54zM331 80c-21 0-38 16-38 37s17 38 38 38 37-17 37-38-16-37-37-37zM192 64c30 0 53 23 53 53s-23 54-53 54-53-24-53-54 23-53 53-53zM192 155c21 0 37-17 37-38s-16-37-37-37-37 16-37 37 16 38 37 38zM53 64c30 0 54 23 54 53s-24 54-54 54-53-24-53-54 23-53 53-53zM53 155c21 0 38-17 38-38s-17-37-38-37-37 16-37 37 16 38 37 38z" fill="#000000" />
</svg>
