<?xml version="1.0" encoding="utf-8"?>
<!-- Generated by IcoMoon.io -->
<!DOCTYPE svg PUBLIC "-//W3C//DTD SVG 1.1//EN" "http://www.w3.org/Graphics/SVG/1.1/DTD/svg11.dtd">
<svg version="1.1" xmlns="http://www.w3.org/2000/svg" xmlns:xlink="http://www.w3.org/1999/xlink" width="512" height="512" viewBox="0 0 512 512">
<g>
</g>
	<path d="M257.573 109.822c27.492-0.001 54.992 0.419 82.475-0.091 52.028-0.966 80.348 42.517 78.837 77.74-0.128 2.991 0.477 6.056 0.035 8.979-0.749 4.961 0.984 7.411 5.784 9.194 26.050 9.681 34.486 47.966 12.649 67.47-1.609 1.438-3.192 3.164-5.117 3.941-6.684 2.699-9.573 8.080-11.886 14.455-4.826 13.299-10.096 26.439-15.295 39.6-1.094 2.77-2.144 5.859-4.136 7.9-3.638 3.73-3.154 6.998-0.91 11.131 3.653 6.725 6.833 13.705 10.22 20.576 6.201 12.578-1.718 26.279-9.739 29.672-9.082 3.842-24.528 4.365-31.617-9.523-4.54-8.898-9.146-17.768-13.4-26.803-2.101-4.463-4.91-6.43-10.020-6.416-58.65 0.139-117.302 0.131-175.953 0.010-4.882-0.010-7.643 1.842-9.649 6.166-3.854 8.305-8.025 16.467-12.209 24.615-6.026 11.734-13.441 15.576-26.502 13.955-13.523-1.678-22.331-17.477-16.687-30.48 3.311-7.629 7.15-15.041 11.018-22.41 1.912-3.645 2.152-6.492-0.697-9.965-2.366-2.883-3.923-6.557-5.318-10.088-5.632-14.242-10.881-28.639-16.715-42.795-1.223-2.969-3.864-5.93-6.634-7.584-12.857-7.682-20.674-18.482-20.584-33.646 0.11-18.539 7.684-32.952 25.713-40.119 3.988-1.585 5.275-3.648 5.164-7.738-0.359-13.193 0.005-26.366 4.864-38.902 11.439-29.515 39.566-48.743 71.335-48.837 14.163-0.042 28.326-0.007 42.489-0.007 14.16 0 28.322 0 42.485 0zM257.59 125.471c0-0.078 0-0.157 0-0.235-27.494 0-54.988-0.119-82.481 0.030-32.781 0.179-58.040 21.099-62.44 51.882-0.959 6.714-0.362 13.637-0.797 20.443-0.242 3.793 1.414 5.264 4.861 6.143 12.056 3.070 20.662 10.486 25.872 21.715 3.994 8.609 7.914 17.267 11.459 26.066 1.679 4.167 3.708 4.902 7.968 3.671 27.455-7.931 55.429-12.972 84.033-14.178 36.484-1.538 72.091 3.769 106.999 14.072 4.391 1.296 6.303 0.283 7.927-3.755 3.044-7.566 6.603-14.925 9.817-22.425 5.584-13.025 14.622-22.135 28.726-25.479 2.727-0.646 3.89-1.888 3.76-4.788-0.223-4.989 0.085-10.003-0.17-14.99-1.714-33.525-27.506-58.093-61.060-58.161-28.158-0.056-56.316-0.011-84.474-0.011zM257.243 340.639c0.666 0 1.332 0 1.999 0 32.985 0.002 65.971 0.033 98.956-0.006 19.685-0.023 28.044-5.988 34.854-24.195 5.309-14.188 11.014-28.227 16.28-42.432 1.518-4.092 3.786-6.484 8.002-7.969 11.33-3.988 17.993-14.97 16.47-26.163-1.55-11.382-9.455-19.776-20.437-21.7-11.538-2.021-21.474 2.98-26.61 13.93-5.866 12.504-11.57 25.096-16.912 37.831-1.982 4.729-4.098 5.67-9.016 4.006-34.168-11.566-69.273-17.864-105.432-17.463-34.588 0.383-68.175 6.754-101.011 17.393-6.425 2.084-6.394 2.098-9.156-4.162-5.377-12.182-10.709-24.386-16.201-36.517-4.888-10.794-15.577-16.9-26.118-15.153-11.694 1.938-20.114 10.531-21.456 21.898-1.355 11.47 4.582 21.266 16.035 25.92 4.332 1.762 7.089 4.592 8.728 8.943 5.809 15.424 12.101 30.676 17.555 46.223 3.442 9.813 9.855 15.629 19.706 17.787 4.52 0.99 9.199 1.732 13.809 1.752 33.318 0.147 66.637 0.081 99.955 0.077zM369.989 355.686c4.894 9.631 9.423 18.844 14.254 27.895 1.708 3.201 4.771 4.131 8.13 2.338 3.31-1.768 4.308-4.65 2.723-8.020-3.679-7.822-7.489-15.586-11.399-23.295-0.48-0.947-2.044-2.154-2.848-1.988-3.511 0.722-6.924 1.909-10.86 3.070zM145.106 355.662c-3.392-1.045-6.251-1.785-9.004-2.811-2.601-0.969-3.916-0.045-5.028 2.318-3.392 7.213-6.886 14.379-10.483 21.49-1.972 3.9-1.755 7.078 2.417 9.18 4.229 2.129 7.028 0.148 8.905-3.582 4.325-8.595 8.558-17.237 13.193-26.595z" fill="#000000" />
</svg>
