<?xml version="1.0" encoding="utf-8"?>
<!-- Generated by IcoMoon.io -->
<!DOCTYPE svg PUBLIC "-//W3C//DTD SVG 1.1//EN" "http://www.w3.org/Graphics/SVG/1.1/DTD/svg11.dtd">
<svg version="1.1" xmlns="http://www.w3.org/2000/svg" xmlns:xlink="http://www.w3.org/1999/xlink" width="255" height="512" viewBox="0 0 255 512">
<g>
</g>
	<path d="M236 321v-1h19l-3 6c-3 6-13 19-22 27s-18 14-28 20-21 10-32 13-23 5-34 5c-16 0-33-3-49-8s-30-13-43-24c-12-11-26-29-34-46-7-16-10-33-10-58 0-18 4-38 11-55 7-16 17-30 29-42s27-21 43-28c15-6 33-9 53-9 16 0 32 3 46 8 15 5 28 12 39 22s17 21 24 35c6 13 8 26 8 44 0 14-2 28-7 40s-9 20-17 30c-8 9-13 15-23 21-11 6-20 9-29 9-8 0-15-2-20-7-3-2-5-6-6-9-6 6-11 10-17 12-10 3-18 4-26 4s-15-1-21-4-12-7-17-12-8-11-11-18-5-14-5-22c0-12 3-24 7-36v-2c4-11 5-16 13-26 8-11 17-19 28-26s24-11 38-11c12 0 21 3 31 9 7 4 12 10 16 16l6-17h18l-38 102c-2 5-4 10-5 14s-1 7-1 10c0 2 1 4 3 5s4 2 8 2c6 0 11-2 20-7 8-4 12-9 19-17 6-8 10-14 14-25s6-23 6-35c0-15-2-25-7-36-6-13-10-22-19-30s-20-15-33-20-27-7-42-7c-19 0-35 3-48 9-15 6-27 14-37 24-11 10-19 23-25 37-6 15-10 32-10 48 0 22 2 36 8 49 6 15 17 31 28 41s24 18 38 23 30 7 46 7c10 0 20-1 30-4s18-6 27-11 17-11 24-18 14-13 19-21zM147 294c4-5 8-12 11-20l21-57c-2-5-4-10-7-13-3-4-6-6-10-8-1 0-1-1-2-1-3-2-5-3-9-4-5-1-9-2-13-2-10 0-19 3-28 9s-17 13-23 22c-5 8-7 11-10 20 0 1-1 3-1 4-4 11-5 20-5 30 0 6 1 11 3 16s5 9 8 13 7 6 12 8 9 3 15 3c4 0 9-1 14-2 4-1 8-2 12-5s8-7 12-13z" fill="#000000" />
</svg>
