<?xml version="1.0" encoding="utf-8"?>
<!-- Generated by IcoMoon.io -->
<!DOCTYPE svg PUBLIC "-//W3C//DTD SVG 1.1//EN" "http://www.w3.org/Graphics/SVG/1.1/DTD/svg11.dtd">
<svg version="1.1" xmlns="http://www.w3.org/2000/svg" xmlns:xlink="http://www.w3.org/1999/xlink" width="512" height="512" viewBox="0 0 512 512">
<g>
</g>
	<path d="M400.172 448.643c-32.497 0-64.095 0-96.062 0 0-42.51 0-84.773 0-127.395-32.083 0-63.799 0-96.063 0 0 42.402 0 84.787 0 127.404-32.144 0-63.741 0-95.885 0 0-53.074 0-106.123 0-159.561-15.969 0-31.401 0-48.326 0 64.428-75.169 128.031-149.376 192.159-224.197 63.972 74.63 127.615 148.877 191.875 223.843-16.363 0-31.761 0-47.698 0 0 53.456 0 106.505 0 159.906z" fill="#000000" />
</svg>
