<?xml version="1.0" encoding="utf-8"?>
<!-- Generated by IcoMoon.io -->
<!DOCTYPE svg PUBLIC "-//W3C//DTD SVG 1.1//EN" "http://www.w3.org/Graphics/SVG/1.1/DTD/svg11.dtd">
<svg version="1.1" xmlns="http://www.w3.org/2000/svg" xmlns:xlink="http://www.w3.org/1999/xlink" width="512" height="512" viewBox="0 0 512 512">
<g>
</g>
	<path d="M32 272h208v-208c5 0 11 1 16 1 17 1 33 4 49 9 24 8 46 21 65 36 47 38 78 96 78 162 0 115-93 208-208 208-66 0-124-31-162-78-15-19-28-41-36-65-5-16-8-32-9-49 0-5-1-11-1-16zM0 240c0-115 93-208 208-208 5 0 11 1 16 1v223h-223c0-5-1-11-1-16z" fill="#000000" />
</svg>
