<?xml version="1.0" encoding="utf-8"?>
<!-- Generated by IcoMoon.io -->
<!DOCTYPE svg PUBLIC "-//W3C//DTD SVG 1.1//EN" "http://www.w3.org/Graphics/SVG/1.1/DTD/svg11.dtd">
<svg version="1.1" xmlns="http://www.w3.org/2000/svg" xmlns:xlink="http://www.w3.org/1999/xlink" width="320" height="512" viewBox="0 0 320 512">
<g>
</g>
	<path d="M160 304c9 0 16 7 16 16s-7 16-16 16-16-7-16-16 7-16 16-16zM72 224h248v240h-320v-240h56v-72c0-57 46-104 104-104 57 0 104 47 104 104v8h-16v-8c0-48-40-88-88-88s-88 40-88 88v72zM168 351c14-4 24-16 24-31 0-18-14-32-32-32s-32 14-32 32c0 15 10 27 24 31v41c0 4 4 8 8 8s8-4 8-8v-41z" fill="#000000" />
</svg>
