<?xml version="1.0" encoding="utf-8"?>
<!-- Generated by IcoMoon.io -->
<!DOCTYPE svg PUBLIC "-//W3C//DTD SVG 1.1//EN" "http://www.w3.org/Graphics/SVG/1.1/DTD/svg11.dtd">
<svg version="1.1" xmlns="http://www.w3.org/2000/svg" xmlns:xlink="http://www.w3.org/1999/xlink" width="384" height="512" viewBox="0 0 384 512">
<g>
</g>
	<path d="M320 160l64 64-64 64v-48h-152c-4 0-8-4-8-8v-16c0-4 4-8 8-8h152v-48zM288 176h-32v-80h-176l48 32v224h128v-80h32v104c0 4-4 8-8 8h-152v64l-119-59c-9-5-9-7-9-15v-302c0-4 4-8 8-8h272c4 0 8 4 8 8v104z" fill="#000000" />
</svg>
