<?xml version="1.0" encoding="utf-8"?>
<!-- Generated by IcoMoon.io -->
<!DOCTYPE svg PUBLIC "-//W3C//DTD SVG 1.1//EN" "http://www.w3.org/Graphics/SVG/1.1/DTD/svg11.dtd">
<svg version="1.1" xmlns="http://www.w3.org/2000/svg" xmlns:xlink="http://www.w3.org/1999/xlink" width="192" height="512" viewBox="0 0 192 512">
<g>
</g>
	<path d="M190 190c-3 3-9 3-12 0l-74-67v285c0 4-4 8-8 8s-8-4-8-8v-285l-74 67c-3 3-9 3-12 0s-3-9 0-12c0 0 87-79 88-80s3-2 6-2 5 1 6 2 88 80 88 80c2 2 2 4 2 6s0 4-2 6z" fill="#000000" />
</svg>
