<?xml version="1.0" encoding="utf-8"?>
<!-- Generated by IcoMoon.io -->
<!DOCTYPE svg PUBLIC "-//W3C//DTD SVG 1.1//EN" "http://www.w3.org/Graphics/SVG/1.1/DTD/svg11.dtd">
<svg version="1.1" xmlns="http://www.w3.org/2000/svg" xmlns:xlink="http://www.w3.org/1999/xlink" width="512" height="512" viewBox="0 0 512 512">
<g>
</g>
	<path d="M445 114c7 33 1 66-13 97s-31 59-51 87c-26 36-52 71-85 101-19 18-41 35-66 44-10 4-19 5-27 5-17 0-31-9-44-27-14-19-22-40-28-63-12-45-25-90-38-134-4-12-9-22-15-33-3-5-8-10-12-14-2-2-5-3-8-3s-6 1-9 3c-10 6-28 18-28 18l-21-27c26-24 82-71 82-71 11-9 33-25 48-27h8c18 0 32 7 42 22 11 17 15 37 18 57 7 41 12 82 24 122 3 10 7 20 12 29 4 7 9 10 14 10 4 0 7-2 11-5s7-6 10-10c20-24 37-52 48-81 3-9 3-17 3-27 0-13-10-25-25-26h-7c-11 0-20 2-32 7 6-24 24-62 54-84 20-14 45-20 67-20 10 0 20 2 27 4 23 8 36 23 41 46zM418 204c13-30 17-59 11-87-4-19-13-28-30-34-6-2-14-3-22-3-21 0-42 6-57 17-16 12-29 30-38 48h14c23 1 39 19 40 41 0 10 0 22-4 34-11 29-29 58-51 85-4 4-7 9-12 13-7 6-15 8-22 8-8 0-18-3-27-18-7-11-11-22-14-32-10-31-14-64-19-95-2-10-3-19-5-29-3-17-6-36-16-51-7-10-16-15-28-15h-6c-8 1-25 11-40 23-2 2-43 37-70 61l2 3c5-4 12-7 16-10 6-3 12-5 18-5 7 0 13 3 18 7 8 7 13 12 16 18 6 11 12 24 16 37 13 44 26 88 38 133 5 19 13 41 26 59s23 20 31 20c6 0 13-1 21-4 23-8 43-25 61-41 32-29 57-63 83-99v0c21-28 37-55 50-84z" fill="#000000" />
</svg>
