<?xml version="1.0" encoding="utf-8"?>
<!-- Generated by IcoMoon.io -->
<!DOCTYPE svg PUBLIC "-//W3C//DTD SVG 1.1//EN" "http://www.w3.org/Graphics/SVG/1.1/DTD/svg11.dtd">
<svg version="1.1" xmlns="http://www.w3.org/2000/svg" xmlns:xlink="http://www.w3.org/1999/xlink" width="512" height="512" viewBox="0 0 512 512">
<g>
</g>
	<path d="M271.53 212.016c10.236-1.946 16.759-8.216 18.304-18.188 0.97-6.26 0.364-12.646 0.257-18.976-0.015-0.926-0.177-2.114-0.755-2.717-2.35-2.455-0.278-3.202 1.408-4.188 16.785-9.809 33.788-19.267 50.272-29.554 11.768-7.344 18.684-18.241 18.945-32.578 0.145-7.888-0.093-15.783 0.070-23.67 0.097-4.677-1.51-8.034-6.001-9.754-64.582 0-129.164 0-193.746 0-4.525 1.691-6.085 5.085-5.997 9.735 0.146 7.77-0.045 15.544 0.059 23.315 0.195 14.628 7.192 25.651 19.241 33.146 15.491 9.636 31.427 18.554 47.197 27.738 3.105 1.809 7.059 3.043 3.596 7.862-0.418 0.583-0.253 1.626-0.257 2.456-0.019 4.424-0.071 8.85 0.010 13.271 0.215 11.758 7.010 19.858 18.427 22.066 0.012 0.118 30.684 3.482 28.97 0.036zM180.506 125.561c-7.288-4.428-11.573-11.582-11.56-20.626 0.007-4.661 0.196-9.333-0.069-13.978-0.175-3.056 0.553-4.007 3.833-3.985 23.781 0.164 47.563 0.087 71.345 0.087 4.421 0 8.843 0 13.265 0 28.083 0 56.169 0.061 84.252-0.083 3.216-0.016 4.061 0.825 3.869 3.949-0.285 4.644-0.072 9.317-0.074 13.978-0.007 9.181-4.4 16.349-11.827 20.847-22.532 13.648-45.382 26.773-68.175 39.989-5.337 3.095-11.059 3.107-16.391 0.015-22.894-13.276-45.852-26.455-68.468-40.193zM238.937 190.847c-1.171-8.193-1.171-8.193 6.789-8.193 3.932 0 7.863 0 11.796 0 5.124 0 10.248 0.066 15.371-0.034 1.904-0.037 2.938 0.36 2.704 2.534-0.165 1.533 0.030 3.102-0.093 4.643-0.453 5.666-2.456 7.481-8.163 7.487-7.031 0.007-14.063 0.018-21.094-0.004-4.758-0.016-6.632-1.691-7.31-6.433zM398.215 298.087h-107.933l-33.122-100.187-33.124 100.187h-107.931l88.286 61.648-34.382 100.188 87.152-62.089 87.151 62.089-34.445-100.188 88.348-61.648z" fill="#000000" />
</svg>
