<?xml version="1.0" encoding="utf-8"?>
<!-- Generated by IcoMoon.io -->
<!DOCTYPE svg PUBLIC "-//W3C//DTD SVG 1.1//EN" "http://www.w3.org/Graphics/SVG/1.1/DTD/svg11.dtd">
<svg version="1.1" xmlns="http://www.w3.org/2000/svg" xmlns:xlink="http://www.w3.org/1999/xlink" width="512" height="512" viewBox="0 0 512 512">
<g>
</g>
	<path d="M161 260l-11-11 74-75 75 75-12 11-55-54v242h-16v-242zM367 184c45 0 81 39 81 85s-37 83-82 83v0h-101v-16h101c37 0 66-30 66-67s-29-70-66-70l-15-1v-20c0-56-46-99-101-99-38 0-73 23-90 58l-6 13-14-6c-6-3-13-5-20-5-22 0-40 17-44 39l-1 9-9 3c-30 10-50 39-50 71 0 41 33 75 74 75h91v16h-91c-50 0-90-40-90-90 0-40 26-74 61-86 5-28 29-52 59-52 10 0 18 2 26 6 19-39 59-66 105-66 64 0 117 52 117 116 0 1-1 3-1 4z" fill="#000000" />
</svg>
