<?xml version="1.0" encoding="utf-8"?>
<!-- Generated by IcoMoon.io -->
<!DOCTYPE svg PUBLIC "-//W3C//DTD SVG 1.1//EN" "http://www.w3.org/Graphics/SVG/1.1/DTD/svg11.dtd">
<svg version="1.1" xmlns="http://www.w3.org/2000/svg" xmlns:xlink="http://www.w3.org/1999/xlink" width="384" height="512" viewBox="0 0 384 512">
<g>
</g>
	<path d="M119 384v0h-55v-171h55v171zM93 187v0 0c-18 0-29-13-29-29 0-17 12-30 30-30s29 13 29 30c0 16-12 29-30 29zM257 209c36 0 63 24 63 75v100h-55v-94c0-22-8-37-28-37-15 0-24 10-28 20-2 4-2 9-2 14v97h-55v-171h55v24c8-11 21-28 50-28zM353 64c18 0 31 13 31 30v321c0 17-13 33-31 33h-320c-18 0-33-16-33-33v-321c0-17 15-30 33-30h320zM350 416c1 0 2-1 2-2v-316c0-1-1-2-2-2h-316s-2 1-2 2v315s1 3 3 3h315z" fill="#000000" />
</svg>
