<?xml version="1.0" encoding="utf-8"?>
<!-- Generated by IcoMoon.io -->
<!DOCTYPE svg PUBLIC "-//W3C//DTD SVG 1.1//EN" "http://www.w3.org/Graphics/SVG/1.1/DTD/svg11.dtd">
<svg version="1.1" xmlns="http://www.w3.org/2000/svg" xmlns:xlink="http://www.w3.org/1999/xlink" width="384" height="512" viewBox="0 0 384 512">
<g>
</g>
	<path d="M160 288v-48h-152c-4 0-8-4-8-8v-16c0-4 4-8 8-8h152v-48l64 64zM376 64c4 0 8 4 8 8v302c0 8 0 10-9 15l-119 59v-64h-152c-4 0-8-4-8-8v-104h32v80h128v-224l48-32h-176v80h-32v-104c0-4 4-8 8-8h272z" fill="#000000" />
</svg>
