<?xml version="1.0" encoding="utf-8"?>
<!-- Generated by IcoMoon.io -->
<!DOCTYPE svg PUBLIC "-//W3C//DTD SVG 1.1//EN" "http://www.w3.org/Graphics/SVG/1.1/DTD/svg11.dtd">
<svg version="1.1" xmlns="http://www.w3.org/2000/svg" xmlns:xlink="http://www.w3.org/1999/xlink" width="512" height="512" viewBox="0 0 512 512">
<g>
</g>
	<path d="M442.5 173.32c-0.969-4.83-0.783-9.797-1.96-14.622-5.477-22.449-16.175-41.865-32.82-58.032-14.824-14.4-32.267-23.943-52.088-29.475-6.176-1.723-12.513-1.891-18.771-2.8-0.709 0-1.418 0-2.127 0-0.423 0.464-0.986 0.34-1.514 0.366-0.408-0.001-0.814-0.001-1.223 0-0.529-0.027-1.096 0.099-1.52-0.366-2.836 0-5.672 0-8.508 0-0.422 0.464-0.985 0.34-1.513 0.366-0.407-0.001-0.814-0.001-1.222 0-0.529-0.027-1.096 0.099-1.52-0.366-1.182 0-2.363 0-3.545 0-1.497 1.338-3.433 1.146-5.207 1.405-17.683 2.589-33.938 8.937-48.499 19.213-26.931 19.008-43.375 44.798-48.719 77.429-3.068 18.733-1.516 37.162 4.644 55.123 0.899 2.619 0.564 4.119-1.39 6.067-44.331 44.207-88.584 88.491-132.869 132.747-0.81 0.808-1.415 1.896-2.632 2.244 0 16.779 0 33.558 0 50.338 1.86 3.384 4.905 5.718 7.589 8.34 3.531 3.446 6.561 7.451 10.845 10.094 16.779 0 33.559 0 50.338 0 0.348-1.218 1.439-1.819 2.247-2.632 7.164-7.207 14.34-14.4 21.575-21.534 1.264-1.248 1.863-2.498 1.796-4.316-0.144-3.895 0.175-7.813-0.115-11.691-0.221-2.959 0.924-3.54 3.563-3.399 3.769 0.203 7.563-0.038 11.339 0.090 1.923 0.065 3.28-0.524 4.642-1.916 6.609-6.758 13.178-13.569 20.094-20.006 3.132-2.914 4.819-5.923 4.060-10.144-0.64-3.56 0.716-5.050 4.336-4.357 4.24 0.813 7.353-0.828 10.131-4.061 2.996-3.483 6.256-6.808 9.77-9.763 3.737-3.145 5.671-6.711 4.804-11.608-0.526-2.973 0.785-4.102 3.671-3.602 4.738 0.82 8.097-1.084 11.352-4.578 7.085-7.603 14.699-14.707 21.925-22.183 1.867-1.934 3.361-2.084 5.799-1.201 12.104 4.385 24.722 6.294 37.523 6.18 22.309-0.2 43.16-5.981 61.902-18.264 29.306-19.204 46.909-46.129 52.441-80.833 0.263-1.653 0.008-3.497 1.373-4.855 0-1.182 0-2.363 0-3.545-0.463-0.423-0.339-0.986-0.365-1.515 0.001-0.407 0.001-0.814 0-1.222 0.027-0.529-0.1-1.095 0.365-1.519 0-2.836 0-5.672 0-8.508-0.463-0.423-0.339-0.986-0.365-1.515 0.001-0.407 0.001-0.814 0-1.221 0.027-0.529-0.1-1.096 0.365-1.519 0.003-0.944 0.003-1.889 0.003-2.834zM251.948 306.801c-1.051 1.074-2.15 1.211-3.475 1.202-4.727-0.032-9.455 0.067-14.179-0.053-1.81-0.046-2.558 0.386-2.391 2.321 0.171 1.994-0.237 4.061 0.087 6.015 1.259 7.581-1.391 13.267-7.371 18.020-2.284 1.818-4.209 2.939-7.123 2.792-4.006-0.208-8.036 0.044-12.048-0.096-1.947-0.067-2.67 0.417-2.6 2.501 0.159 4.603-0.044 9.219 0.097 13.822 0.055 1.825-0.544 3.073-1.808 4.308-4.732 4.622-9.413 9.299-14.030 14.035-1.163 1.193-2.345 1.68-4.012 1.656-6.498-0.089-13.005 0.156-19.493-0.117-3.281-0.138-4.489 0.517-4.298 4.111 0.345 6.48 0.035 12.995 0.138 19.492 0.029 1.81-0.533 3.068-1.817 4.315-4.744 4.611-9.413 9.301-14.043 14.026-1.14 1.163-2.266 1.794-3.98 1.782-10.988-0.075-21.978-0.034-32.966-0.043-1.763-0.001-8.821-5.396-9.234-6.974-0.151-0.577 0.211-0.86 0.513-1.18 0.65-0.688 1.329-1.345 1.997-2.013 38.351-38.35 76.7-76.7 115.054-115.048 1.336-1.336 2.687-2.642 3.547-4.376 1.499-3.017 0.969-5.907-1.226-8.13-2.071-2.094-4.823-2.876-7.815-1.537-1.771 0.792-3.106 2.089-4.446 3.43-35.919 35.935-71.846 71.859-107.776 107.783-0.885 0.885-1.812 1.729-3.251 3.099 0-7.758 0.014-14.794-0.015-21.831-0.004-1.098 0.679-1.715 1.338-2.374 42.709-42.676 85.422-85.347 128.138-128.018 0.082-0.081 0.196-0.131 0.497-0.327 11.222 20.445 27.092 36.313 47.663 47.607-6.699 6.724-13.23 13.218-19.672 19.8zM326.243 286.113c-56.094-0.119-101.589-45.704-101.469-101.667 0.121-56.075 45.877-101.746 101.672-101.484 56.188 0.265 101.741 45.909 101.478 101.681-0.267 56.239-45.712 101.589-101.681 101.47zM404.721 169.476c-6.674-37.278-40.516-64.965-78.476-64.827-8.281 0.294-16.405 1.42-24.358 3.92-13.503 4.246-24.576 12.192-34.697 21.814-2.202 2.094-2.435 3.003-0.158 5.271 34.658 34.488 69.196 69.097 103.788 103.651 2.309 2.306 4.54 6.512 7.078 6.263 2.479-0.242 4.64-4.245 6.844-6.684 17.971-19.874 24.677-43.17 19.979-69.408zM391.348 190.995c-1.134 11.583-5.164 22.175-11.984 31.696-1.492 2.084-2.27 2.567-4.308 0.433-6.604-6.915-13.469-13.583-20.23-20.346-22.211-22.21-44.376-44.468-66.697-66.565-2.445-2.419-1.947-3.307 0.505-5.007 11.504-7.977 24.211-11.905 36.138-11.906 40.576 0.421 70.328 33.375 66.576 71.695z" fill="#000000" />
</svg>
