<?xml version="1.0" encoding="utf-8"?>
<!-- Generated by IcoMoon.io -->
<!DOCTYPE svg PUBLIC "-//W3C//DTD SVG 1.1//EN" "http://www.w3.org/Graphics/SVG/1.1/DTD/svg11.dtd">
<svg version="1.1" xmlns="http://www.w3.org/2000/svg" xmlns:xlink="http://www.w3.org/1999/xlink" width="512" height="512" viewBox="0 0 512 512">
<g>
</g>
	<path d="M75.146 413.842c0.692-6.666 1.167-13.361 2.125-19.986 1.38-9.536 3.782-18.831 10.591-26.104 2.855-3.052 6.264-5.773 9.859-7.907 7.874-4.669 16.026-8.866 24.339-13.406 2.39 3.356 5.044 7.084 8.098 11.374-3.739 2.384-7.267 4.825-10.977 6.947-4.29 2.456-8.714 4.684-13.126 6.917-6.365 3.222-10.906 8.185-12.309 15.112-1.957 9.646-3.142 19.451-4.789 30.047 4.888-0.311 8.622-0.277 12.264-0.84 6.496-1.003 13.031-2.007 19.374-3.674 7.292-1.917 12.592-6.651 16.018-13.451 2.755-5.468 5.602-10.891 8.506-16.279 1.049-1.944 2.389-3.731 3.75-5.829 4.114 2.767 7.977 5.364 11.612 7.81-4.045 7.709-7.852 15.126-11.809 22.462-6.396 11.856-16.872 18.197-29.632 20.854-7.236 1.506-14.677 2.037-22.024 3.007-1.627 0.215-3.254 0.429-4.881 0.645-5.663 0-11.326 0-16.989 0 0-5.902 0-11.801 0-17.699zM426.867 76.146c-30.639 1.166-60.343 7.099-88.996 17.963-28.31 10.734-53.391 26.574-73.702 49.22-20.236 22.563-40.035 45.516-59.94 68.372-1.552 1.781-3.063 2.494-5.396 2.482-18.758-0.085-37.516-0.008-56.272-0.079-3.814-0.014-6.712 1.23-9.187 4.241-11.086 13.482-22.334 26.835-33.485 40.266-5.083 6.122-3.244 11.754 4.429 13.694 13.017 3.29 26.042 6.545 39.060 9.83 0.858 0.216 1.685 0.555 2.149 0.71-1.113 2.65-3.092 5.122-2.941 7.457 0.344 5.32-1.591 9.519-4.305 13.75-3.178 4.958-5.811 10.278-9.134 15.131-4.125 6.019-4.322 12.194-0.306 17.824 5.723 8.021 11.632 16.083 18.572 23.018 6.77 6.767 14.695 12.479 22.572 17.997 5.405 3.788 11.353 3.576 17.22-0.262 6.701-4.382 13.735-8.255 20.666-12.277 1.072-0.623 2.395-1.269 3.558-1.196 4.449 0.281 8.765 0.442 12.164-4.157 0.485 1.518 0.732 2.169 0.901 2.839 3.299 13.137 6.571 26.279 9.888 39.409 1.941 7.684 7.567 9.506 13.698 4.416 13.429-11.154 26.803-22.372 40.248-33.506 2.929-2.427 4.308-5.256 4.278-9.163-0.134-18.522 0.001-37.045-0.123-55.566-0.020-2.843 0.783-4.679 2.975-6.589 23.819-20.771 47.77-41.406 71.176-62.639 16.415-14.892 28.673-33.090 38.296-53.021 12.991-26.91 20.234-55.476 23.939-84.992 1.037-8.253 1.365-16.596 2.039-25.179-1.748 0-2.897-0.038-4.041 0.007zM117.168 260.599c1.941-2.354 3.559-4.331 5.191-6.295 6.484-7.8 12.937-15.628 19.502-23.359 0.899-1.059 2.369-2.309 3.586-2.322 14.601-0.161 29.201-0.104 44.338-0.104-0.731 1.145-1.131 1.931-1.674 2.603-9.858 12.202-19.779 24.354-29.563 36.614-1.627 2.039-3.068 2.538-5.654 1.853-11.683-3.098-23.44-5.926-35.726-8.99zM179.701 365.095c-1.035 0.545-3.143 0.278-4.102-0.46-5.962-4.591-12.174-8.989-17.46-14.29-5.792-5.808-10.692-12.506-15.937-18.853-1.527-1.847-1.46-3.641-0.055-5.764 2.704-4.087 5.073-8.396 7.719-12.848 12.215 17.262 26.712 31.762 43.988 43.976-4.845 2.868-9.403 5.735-14.153 8.239zM278.117 360.324c-0.015 1.162-0.372 2.732-1.17 3.411-10.034 8.533-20.18 16.938-30.813 25.808-1.474-5.868-2.825-11.255-4.179-16.641-1.692-6.729-3.45-13.442-5.009-20.201-0.236-1.027 0.050-2.746 0.763-3.333 13.165-10.857 26.432-21.591 40.46-32.987 0 7.271 0 13.59 0 19.911 0 8.013 0.047 16.022-0.052 24.032zM410.468 123.661c-4.789 23.423-12.254 45.938-24.092 66.851-7.833 13.835-17.266 26.46-28.726 37.484-33.271 32.001-69.032 61.116-104.787 90.239-11.977 9.755-24.118 19.311-35.995 29.184-2.739 2.278-5.219 2.638-7.94 0.91-6.147-3.905-12.587-7.512-18.134-12.161-11.132-9.336-21.264-19.723-29.115-32.104-0.126-0.2-0.25-0.399-0.375-0.601-5.408-8.672-5.421-9.259 0.889-17.138 32.439-40.499 65-80.901 99.728-119.487 14.449-16.055 29.38-31.581 48.107-42.944 19.114-11.599 39.601-19.636 61.207-25.071 14.294-3.595 28.737-6.193 44.56-7.476-1.823 11.222-3.186 21.847-5.327 32.314zM321.593 148.942c-19.957 0.007-36.275 16.341-36.202 36.235 0.074 19.767 16.244 35.975 36.033 36.115 19.877 0.142 36.242-16.133 36.317-36.119 0.075-19.992-16.133-36.236-36.148-36.231zM343.315 185.56c-0.51 12.049-10.37 21.489-22.099 21.155-12.033-0.343-21.517-10.129-21.256-21.933 0.263-11.936 10.167-21.647 21.852-21.429 11.983 0.224 21.996 10.564 21.503 22.207z" fill="#000000" />
</svg>
