<?xml version="1.0" encoding="utf-8"?>
<!-- Generated by IcoMoon.io -->
<!DOCTYPE svg PUBLIC "-//W3C//DTD SVG 1.1//EN" "http://www.w3.org/Graphics/SVG/1.1/DTD/svg11.dtd">
<svg version="1.1" xmlns="http://www.w3.org/2000/svg" xmlns:xlink="http://www.w3.org/1999/xlink" width="512" height="512" viewBox="0 0 512 512">
<g>
</g>
	<path d="M32 272h208v-208c5 0 11 1 16 1 17 1 33 4 49 9 24 8 46 21 65 36 47 38 78 96 78 162 0 115-93 208-208 208-66 0-124-31-162-78-15-19-28-41-36-65-5-16-8-32-9-49 0-5-1-11-1-16zM49 288c2 20 6 40 14 59 7 16 15 30 26 44 5 6 10 12 15 17 12 12 24 22 38 30 7 4 15 8 23 11 24 10 49 15 75 15s51-5 75-15c23-10 43-23 61-41s31-38 41-61c10-24 15-49 15-75s-5-51-15-75c-3-8-8-15-12-22-8-14-17-27-29-39-5-5-11-10-17-15-14-11-28-19-44-26-19-8-39-12-59-14v207h-207zM0 240c0-115 93-208 208-208 5 0 11 1 16 1v223h-223c0-5-1-11-1-16zM16 240h192v-192c-26 0-51 5-75 15-23 10-43 23-61 41s-31 38-41 61c-10 24-15 49-15 75z" fill="#000000" />
</svg>
