<?xml version="1.0" encoding="utf-8"?>
<!-- Generated by IcoMoon.io -->
<!DOCTYPE svg PUBLIC "-//W3C//DTD SVG 1.1//EN" "http://www.w3.org/Graphics/SVG/1.1/DTD/svg11.dtd">
<svg version="1.1" xmlns="http://www.w3.org/2000/svg" xmlns:xlink="http://www.w3.org/1999/xlink" width="384" height="512" viewBox="0 0 384 512">
<g>
</g>
	<path d="M192 96v0c106 0 192 69 192 154s-85 150-191 150c-27 0-52-3-75-11h-2c-3-1-6-2-10-2s-9 1-12 2v0c-1 0-9 4-10 4l-50 22-2 1h-6c-6-1-8-6-7-10v0s17-57 17-58c0-4-1-8-3-11v0 0 0l-3-3c-19-24-30-53-30-84 0-85 86-154 192-154z" fill="#000000" />
</svg>
