<?xml version="1.0" encoding="utf-8"?>
<!-- Generated by IcoMoon.io -->
<!DOCTYPE svg PUBLIC "-//W3C//DTD SVG 1.1//EN" "http://www.w3.org/Graphics/SVG/1.1/DTD/svg11.dtd">
<svg version="1.1" xmlns="http://www.w3.org/2000/svg" xmlns:xlink="http://www.w3.org/1999/xlink" width="416" height="512" viewBox="0 0 416 512">
<g>
</g>
	<path d="M316 256v0h20c0 71-57 128-128 128s-128-57-128-128 57-128 128-128v-44l96 64-96 56v-56c-60 0-108 48-108 108s48 108 108 108 108-48 108-108zM208 48c115 0 208 93 208 208s-93 208-208 208-208-93-208-208 93-208 208-208zM208 447c105 0 191-86 191-191s-86-191-191-191-191 86-191 191 86 191 191 191z" fill="#000000" />
</svg>
