<?xml version="1.0" encoding="utf-8"?>
<!-- Generated by IcoMoon.io -->
<!DOCTYPE svg PUBLIC "-//W3C//DTD SVG 1.1//EN" "http://www.w3.org/Graphics/SVG/1.1/DTD/svg11.dtd">
<svg version="1.1" xmlns="http://www.w3.org/2000/svg" xmlns:xlink="http://www.w3.org/1999/xlink" width="268" height="512" viewBox="0 0 268 512">
<g>
</g>
	<path d="M134 32c74 0 134 59 134 133 0 17-3 34-9 50l-1 1c0 1-1 3-1 4l-1 1-122 259-122-260c0-1-2-3-2-4v0-1c-6-16-10-34-10-50 0-74 60-133 134-133zM243 209c6-14 9-29 9-44 0-65-53-117-118-117s-118 52-118 117c0 15 3 31 9 45 0 1 1 1 1 2l1 2 107 227 107-227 1-2c0-1 1-1 1-2v-1zM134 96c35 0 64 29 64 64s-29 64-64 64-64-29-64-64 29-64 64-64zM134 207c26 0 47-21 47-47s-21-47-47-47-47 21-47 47 21 47 47 47z" fill="#000000" />
</svg>
