<?xml version="1.0" encoding="utf-8"?>
<!-- Generated by IcoMoon.io -->
<!DOCTYPE svg PUBLIC "-//W3C//DTD SVG 1.1//EN" "http://www.w3.org/Graphics/SVG/1.1/DTD/svg11.dtd">
<svg version="1.1" xmlns="http://www.w3.org/2000/svg" xmlns:xlink="http://www.w3.org/1999/xlink" width="416" height="512" viewBox="0 0 416 512">
<g>
</g>
	<path d="M208 48c115 0 208 93 208 208s-93 208-208 208-208-93-208-208 93-208 208-208zM102 150c-2 2 86 120 86 120l1 1c5 6 11 10 19 10 14 0 25-11 25-25 0-7-3-13-8-18l-3-3c0 0-117-87-120-85zM208 447c106 0 192-85 192-191s-86-192-192-192v96h16v-78c88 9 158 84 158 174 0 96-78 174-174 174s-175-78-175-174c0-48 19-92 51-124l-11-12c-35 35-56 83-56 136 0 106 85 191 191 191z" fill="#000000" />
</svg>
