<?xml version="1.0" encoding="utf-8"?>
<!-- Generated by IcoMoon.io -->
<!DOCTYPE svg PUBLIC "-//W3C//DTD SVG 1.1//EN" "http://www.w3.org/Graphics/SVG/1.1/DTD/svg11.dtd">
<svg version="1.1" xmlns="http://www.w3.org/2000/svg" xmlns:xlink="http://www.w3.org/1999/xlink" width="216" height="512" viewBox="0 0 216 512">
<g>
</g>
	<path d="M195 315c7 0 14-1 21-3-4 7-7 12-12 18-21 25-53 41-88 41-64 0-116-51-116-115 0-52 34-96 81-111 7-2 14-3 22-4-4 6-8 12-11 18-7 14-11 30-11 47 0 29 11 56 32 77s48 32 77 32h5z" fill="#000000" />
</svg>
