<?xml version="1.0" encoding="utf-8"?>
<!-- Generated by IcoMoon.io -->
<!DOCTYPE svg PUBLIC "-//W3C//DTD SVG 1.1//EN" "http://www.w3.org/Graphics/SVG/1.1/DTD/svg11.dtd">
<svg version="1.1" xmlns="http://www.w3.org/2000/svg" xmlns:xlink="http://www.w3.org/1999/xlink" width="384" height="512" viewBox="0 0 384 512">
<g>
</g>
	<path d="M373 297c7 14 11 29 11 46 0 58-47 105-106 105-18 0-35-4-50-12-11 2-22 3-34 3-101 0-183-81-183-181 0-12 2-24 4-36-9-16-15-34-15-53 0-58 47-105 106-105 21 0 41 6 57 16 10-2 20-2 31-2 101 0 183 80 183 180 0 13-1 27-4 39zM288 344c9-12 12-25 12-40 0-12-2-23-7-32s-12-16-21-22-19-10-31-14-26-7-41-10c-12-3-20-5-25-6s-10-4-15-6-7-5-10-8c-2-3-4-6-4-10 0-7 3-13 11-18s19-7 32-7c14 0 25 2 31 7s11 12 16 20c4 7 8 11 11 14 4 3 9 5 16 5 8 0 13-3 18-8s8-11 8-17c0-7-2-14-6-21s-10-14-18-20-18-11-30-15-27-5-43-5c-20 0-38 2-53 8-16 6-28 15-36 25-8 11-12 22-12 36s3 26 11 36 19 17 32 23c13 5 29 10 48 14 14 3 26 5 34 8 8 2 14 6 19 11 5 4 7 10 7 17 0 9-4 17-13 23s-22 9-37 9c-11 0-20-2-27-5s-11-6-15-11-8-12-11-19-6-11-10-15-10-6-16-6c-8 0-14 2-19 7s-8 10-8 17c0 11 4 22 12 33s18 19 30 26c17 9 39 14 65 14 22 0 42-3 58-10s29-16 37-28z" fill="#000000" />
</svg>
