<?xml version="1.0" encoding="utf-8"?>
<!-- Generated by IcoMoon.io -->
<!DOCTYPE svg PUBLIC "-//W3C//DTD SVG 1.1//EN" "http://www.w3.org/Graphics/SVG/1.1/DTD/svg11.dtd">
<svg version="1.1" xmlns="http://www.w3.org/2000/svg" xmlns:xlink="http://www.w3.org/1999/xlink" width="512" height="512" viewBox="0 0 512 512">
<g>
</g>
	<path d="M224 32c124 0 224 100 224 224s-100 224-224 224c-22 0-44-3-64-9 8-14 18-31 23-48 3-10 16-62 16-62 8 15 30 28 54 28 72 0 121-65 121-153 0-66-56-129-142-129-106 0-160 76-160 140 0 39 15 73 46 86 5 2 10 0 12-6 1-4 3-14 4-18 2-6 1-7-3-12-9-11-15-24-15-44 0-57 42-107 110-107 60 0 94 36 94 85 0 65-29 119-71 119-24 0-42-19-36-43 7-28 20-59 20-79 0-18-10-34-30-34-24 0-43 25-43 58 0 21 7 36 7 36s-25 104-29 122c-4 17-5 35-4 51-79-35-134-113-134-205 0-124 100-224 224-224z" fill="#000000" />
</svg>
