<?xml version="1.0" encoding="utf-8"?>
<!-- Generated by IcoMoon.io -->
<!DOCTYPE svg PUBLIC "-//W3C//DTD SVG 1.1//EN" "http://www.w3.org/Graphics/SVG/1.1/DTD/svg11.dtd">
<svg version="1.1" xmlns="http://www.w3.org/2000/svg" xmlns:xlink="http://www.w3.org/1999/xlink" width="384" height="512" viewBox="0 0 384 512">
<g>
</g>
	<path d="M354 160c18 0 30 13 30 31v176c0 18-12 33-30 33h-320c-18 0-34-15-34-33v-176c0-18 16-31 34-31h13v-16h34v16h13c32-36 43-48 55-48h88c12 0 23 12 55 48h62zM368 367v-176c0-9-5-15-14-15h-69l-5-3c-3-4-7-8-10-11-12-13-20-24-26-30-5-5-7-4-7-4h-88s-2 0-7 4c-6 5-14 14-25 27-3 4-7 10-11 14l-5 3h-67c-9 0-18 7-18 15v176c0 9 9 17 18 17h320c8 0 14-8 14-17zM192 190c47 0 86 38 86 85s-39 85-86 85-86-38-86-85 39-85 86-85zM192 344c38 0 70-31 70-69s-32-69-70-69-70 31-70 69 32 69 70 69zM288 209v-17h17v17h-17zM160 275c0-21 11-32 32-32s32 11 32 32-11 32-32 32-32-11-32-32z" fill="#000000" />
</svg>
