<?xml version="1.0" encoding="utf-8"?>
<!-- Generated by IcoMoon.io -->
<!DOCTYPE svg PUBLIC "-//W3C//DTD SVG 1.1//EN" "http://www.w3.org/Graphics/SVG/1.1/DTD/svg11.dtd">
<svg version="1.1" xmlns="http://www.w3.org/2000/svg" xmlns:xlink="http://www.w3.org/1999/xlink" width="384" height="512" viewBox="0 0 384 512">
<g>
</g>
	<path d="M313 213c4 12 7 25 8 37v13c-1 13-4 25-8 37-1 4-3 7-5 12-5 11-11 20-19 29 0 0-2 3-6 7s-7 6-7 6c-9 8-19 14-29 19-4 2-8 3-11 4-12 4-24 7-37 8h-13c-13-1-25-4-37-8-4-1-7-3-11-5-11-5-23-12-32-21l-8-8c-9-10-16-20-21-32-2-3-3-7-4-10 0 0-1-3-3-10s-3-10-3-10c-1-6-2-13-2-19v-11c1-13 4-26 8-38 1-4 2-7 4-10 5-12 12-22 21-32 1-2 3-4 4-5s3-3 5-4c9-8 20-15 31-20 4-2 7-4 11-5 12-4 25-7 38-8h11c6 0 13 1 19 2l8 2s11 4 11 4c3 1 7 2 11 4 12 5 22 12 32 21l8 8c9 9 15 20 21 32 2 4 4 7 5 11zM81 262c0 5 1 11 2 16l103-28 28-103c-5-1-10-2-16-2h-10c-11 0-22 3-33 7-3 1-8 2-11 4-10 5-18 10-26 18l-8 8c-8 9-14 18-19 28l-3 9c-4 11-7 22-7 33v10zM240 359c9-4 18-10 26-17l-76-76-103 28v1c1 3 3 6 4 9 5 10 11 20 19 28l4 4s2 3 3 4c8 8 18 13 28 18 3 2 7 3 10 4 10 4 21 6 32 7h11c11 0 22-3 32-7 3-1 7-2 10-3zM305 262v-11c-1-11-3-22-7-32-1-3-2-7-4-10-5-10-11-20-19-28l-7-7c-8-8-18-14-28-19-3-2-7-2-10-3l-1-1-28 104 76 76c7-8 13-16 17-25 2-3 3-7 4-11 4-10 7-22 7-33zM384 273l-33 8c-1 5-2 10-3 14l27 20-12 30-34-5c-2 4-5 7-8 11l17 29-22 23-30-17c-3 2-6 5-10 7l5 34-29 12-21-27c-4 1-9 2-14 3l-8 33h-32l-9-33c-4-1-9-2-13-3l-21 28-29-12 4-34c-4-2-7-5-11-8l-30 18-23-22 18-31c-3-4-5-7-7-11l-35 5-12-29 28-22c-1-4-1-8-2-12l-35-9v-32l35-9c1-4 1-8 2-12l-29-22 12-30 36 5c2-4 5-7 7-10l-19-32 22-22 32 19c4-3 8-6 12-8l-5-35 29-13 22 29c4-1 8-1 12-2l9-35h32l9 35c4 1 8 1 12 2l22-28 29 12-5 35c4 2 7 5 11 8l30-18 22 23-17 29c3 4 5 7 7 11l35-5 12 30-28 21c1 4 2 9 3 13l33 9v32zM338 308l-8-7 2-10 3-12 1-11 10-2 22-6v-7l-22-6-10-2-1-11-3-12-2-10 8-6 18-13-3-7-22 3-10 1-6-8c-2-3-3-6-6-10l-7-8 6-10 11-18-5-6-20 12-8 5-9-7-9-6-10-6 2-10 4-23-7-2-14 18-6 8-10-2c-4-1-7-1-11-2l-11-2-3-10-5-23h-7l-6 23-3 10-11 2c-4 0-6 1-10 2l-11 2-6-8-14-19-7 3 3 23 2 11-9 5-2 1c-3 2-5 4-8 6l-9 6-9-6-21-12-5 5 12 21 6 9-6 8c-2 3-4 7-6 10l-6 9-10-2-23-3-3 7 19 14 8 6-2 10c-1 4-1 7-2 11l-2 11-10 2-23 6v7l23 6 10 3 1 10c1 4 2 7 3 11l2 11-8 6-19 14 3 6 23-3 10-1 6 9c2 4 4 7 6 10l6 8-5 9-12 20 5 5 20-11 9-6 9 6c3 2 6 5 10 7l9 5-2 11-3 22 7 3 13-18 6-9 11 3c4 1 8 1 12 2l10 2 3 10 5 21h8l5-21 2-10 11-2c4-1 8-1 12-2l10-3 7 9 13 17 7-3-4-21-1-11 9-5c2-2 4-4 7-6 0 0 1-1 2-1l8-6 9 5 19 11 5-5-11-18-5-9 6-9c2-3 6-6 8-10l5-9 11 1 21 3 3-6z" fill="#000000" />
</svg>
