<?xml version="1.0" encoding="utf-8"?>
<!-- Generated by IcoMoon.io -->
<!DOCTYPE svg PUBLIC "-//W3C//DTD SVG 1.1//EN" "http://www.w3.org/Graphics/SVG/1.1/DTD/svg11.dtd">
<svg version="1.1" xmlns="http://www.w3.org/2000/svg" xmlns:xlink="http://www.w3.org/1999/xlink" width="472" height="512" viewBox="0 0 472 512">
<g>
</g>
	<path d="M472 110c-13 20-29 36-48 50v12c0 128-98 276-276 276-55 0-105-16-148-44 8 1 15 2 23 2 45 0 87-16 120-42-42-1-78-29-90-67 6 1 12 2 18 2 9 0 18-2 26-4-44-9-78-48-78-95v-1c13 7 28 12 44 12-26-17-43-47-43-81 0-18 5-34 13-48 48 59 119 97 199 101-2-7-2-14-2-22 0-54 43-97 97-97 28 0 52 12 70 31 22-4 43-13 62-24-7 23-23 42-43 54 20-2 39-7 56-15zM414 147c3-2 8-6 11-8-2 0-11 2-19 1s-21-5-21-5 14-13 18-17l11-11c-4 1-10 2-14 3l-8 2-6-6c-15-16-37-26-59-26-45 0-81 37-81 81 0 6 1 12 2 18l5 21-22-1c-42-2-81-13-118-32-28-14-53-34-75-56-1 6-2 13-2 19 0 27 14 53 36 68 0 0 33 23 46 29-24 2-56 0-56 0-8 0-16-1-24-3 8 28 32 50 62 56l61 10-61 21c-7 2-14 3-21 3 15 20 38 34 64 34l45 1-35 28c-18 14-38 25-60 33-10 3-19 6-29 8 27 9 55 14 84 14 40 0 78-8 112-24 31-14 58-34 81-60 22-24 38-53 50-84 11-30 17-62 17-92v-12l-1-8z" fill="#000000" />
</svg>
