<?xml version="1.0" encoding="utf-8"?>
<!-- Generated by IcoMoon.io -->
<!DOCTYPE svg PUBLIC "-//W3C//DTD SVG 1.1//EN" "http://www.w3.org/Graphics/SVG/1.1/DTD/svg11.dtd">
<svg version="1.1" xmlns="http://www.w3.org/2000/svg" xmlns:xlink="http://www.w3.org/1999/xlink" width="256" height="512" viewBox="0 0 256 512">
<g>
</g>
	<path d="M228 320v0h28c-1 1-2 4-3 6-4 6-14 19-23 27s-18 14-28 20-20 10-32 13c-11 3-23 5-34 5-16 0-33-3-49-8s-30-13-43-24c-12-10-26-28-34-46-7-16-10-33-10-58 0-19 4-39 11-55s17-30 29-42 28-21 44-28c15-6 32-9 52-9 16 0 31 3 46 8s28 12 39 22 18 22 25 36c6 14 8 26 8 44 0 14-2 28-7 40-4 11-9 20-17 30-7 9-14 16-24 22-12 6-21 9-30 9s-16-2-22-8c-2-1-3-3-4-5-4 4-9 6-14 8-10 3-18 5-27 5-8 0-16-2-23-5s-12-7-17-12-9-12-12-19-4-14-4-22c0-12 2-25 6-37l1-1c4-10 5-17 13-27 8-11 17-20 28-27 12-7 24-10 38-10 12 0 22 3 33 9 5 3 8 6 12 10l5-12h25l-39 104c-2 5-3 9-4 13-1 3-1 7-1 9s0 3 1 3c0 0 1 1 5 1 5 0 11-2 19-7 7-4 10-8 16-16s9-13 13-23 6-20 6-32c0-14-1-24-6-34-5-12-10-21-18-28-9-8-19-14-31-18s-26-7-40-7c-18 0-32 3-44 8-14 6-25 13-35 23s-18 22-24 35c-6 14-9 30-9 45 0 21 3 34 8 46 6 14 16 30 26 39s22 16 35 21c14 5 28 7 43 7 10 0 20-2 29-4s18-6 26-11 28-20 38-33zM144 291c4-5 7-12 10-19l20-55c-1-4-3-7-5-9-3-3-6-6-9-8h-2v-1c-3-2-5-2-8-3-4-1-8-1-12-1s-17 2-25 7c-10 6-17 14-21 21-5 8-6 11-9 19 0 1-1 2-1 3-3 10-6 19-6 28 0 5 1 10 3 14s4 8 7 11 7 6 11 8 8 2 13 2c4 0 8 0 12-1v0c4-1 7-2 11-5 3-2 7-5 11-11z" fill="#000000" />
</svg>
