<?xml version="1.0" encoding="utf-8"?>
<!-- Generated by IcoMoon.io -->
<!DOCTYPE svg PUBLIC "-//W3C//DTD SVG 1.1//EN" "http://www.w3.org/Graphics/SVG/1.1/DTD/svg11.dtd">
<svg version="1.1" xmlns="http://www.w3.org/2000/svg" xmlns:xlink="http://www.w3.org/1999/xlink" width="512" height="512" viewBox="0 0 512 512">
<g>
</g>
	<path d="M438.978 192.172c-0.682-3.975-3.899-4.962-7.079-5.761-9.022-2.265-18.153-4.083-27.187-6.311-3.834-0.945-3.953-1.111-3.354-4.967 1.217-7.815 2.772-15.572 4.005-23.384 1.365-8.666-1.052-12.085-9.683-13.526-16.862-2.812-33.692-5.816-50.567-8.565-4.581-0.746-4.673-0.891-4.682-5.603-0.021-9.653 0-19.307-0.011-28.961-0.004-2.207 0.102-4.42-0.318-6.61-0.951-4.973-2.197-6.27-6.978-7.204-82.021 0-164.044 0-246.065 0-3.295 0.434-5.159 2.298-5.593 5.593 0 82.022 0 164.044 0 246.066 0.931 4.762 2.254 6.034 7.215 6.971 1.498 0.283 3.008 0.301 4.521 0.304 4.307 0.010 8.614 0.061 12.919-0.019 2.463-0.042 3.534 0.62 3.271 3.429-0.606 6.447 1.828 9.468 8.22 10.746 4.908 0.979 9.88 1.602 14.791 2.574 4.18 0.825 4.254 0.985 3.351 5.010-0.841 3.748-1.862 7.462-2.546 11.236-1.416 7.817 1.043 11.337 8.721 13.058 15.217 3.409 30.406 6.944 45.601 10.451 56.356 13.009 112.746 25.876 169.105 38.871 6.102 1.407 12.149 3.253 18.507 3.265 1.369 0.002 2.738 0 4.106 0 3.054 0.255 4.712-1.576 5.909-4.019 0.724-1.474 1.023-3.092 1.39-4.678 8.789-38.111 17.64-76.206 26.25-114.354 8.861-39.255 18.629-78.305 26.584-117.763 0-0.233 0-0.466 0-0.698-0.797-1.667-0.119-3.448-0.403-5.151zM339.079 221.811c0-15.096-0.026-30.192 0.047-45.287 0.005-1.143-1.059-3.294 1.708-3.067 4.237 0.733 8.453 1.663 12.72 2.126 2.573 0.279 2.992 1.313 2.595 3.586-2.481 14.198-4.906 28.404-7.297 42.616-2.97 17.647-5.89 35.305-8.831 52.96-1.84-0.578-0.887-2.105-0.893-3.117-0.071-16.606-0.052-33.212-0.049-49.817zM99.389 324.677c-2.787 0.002-3.708-0.513-3.704-3.527 0.091-73.984 0.087-147.966 0.008-221.95-0.002-2.835 0.616-3.703 3.598-3.699 73.984 0.089 147.966 0.089 221.949-0.001 2.91-0.003 3.633 0.708 3.626 3.609-0.103 37.050-0.068 74.1-0.068 111.15 0 36.933-0.034 73.866 0.068 110.798 0.007 2.823-0.541 3.637-3.53 3.633-73.981-0.097-147.963-0.093-221.947-0.013zM127.001 340.538c-0.536-0.093-1.187-0.076-1.399-1.516 1.39 0 2.651 0 3.913 0 66.045 0 132.089-0.005 198.136 0.019 2.436 0.002 4.889 0.156 7.306 0.465 5.308 0.678 8.519-1.36 9.485-6.736 2.39-13.275 4.601-26.582 6.861-39.88 5.478-32.215 10.942-64.43 16.419-96.644 1.246-7.337 2.567-14.663 3.765-22.006 1.201-7.351-0.722-10.057-8.016-11.352-6.983-1.241-13.968-2.491-20.98-3.541-2.475-0.37-3.714-1.157-3.331-3.89 0.255-1.829 0.048-3.721 0.048-5.584 0-5.798-0.005-5.764 5.548-4.799 14.094 2.448 28.181 4.912 42.294 7.232 2.105 0.347 2.521 0.859 2.145 3.028-4.91 28.417-9.689 56.856-14.51 85.289-5.229 30.841-10.467 61.68-15.692 92.521-2.408 14.215-4.845 28.427-7.155 42.659-0.403 2.492-1.414 2.698-3.693 2.308-47.45-8.132-94.915-16.169-142.379-24.221-26.255-4.454-52.51-8.9-78.765-13.352zM423.162 202.746c-11.988 51.848-23.896 103.71-35.823 155.573-4.766 20.719-9.595 41.428-14.253 62.172-0.545 2.433-1.287 2.914-3.685 2.361-72.454-16.723-144.922-33.388-217.409-49.972-2.472-0.566-3.017-1.298-2.208-3.661 0.787-2.293 1.267-4.728 1.583-7.136 0.333-2.539 1.536-2.75 3.791-2.364 38.050 6.526 76.117 12.956 114.177 19.43 28.085 4.775 56.167 9.57 84.246 14.389 6.601 1.135 10.001-1.206 10.989-7.764 0.24-1.61 0.497-3.089 1.749-4.406 1.361-1.433 1.87-3.433 2.315-5.374 11.882-51.751 23.77-103.501 35.644-155.254 0.311-1.353 0.491-2.734 0.621-3.462-0.045-4.69-2.083-7.146-6.813-8.134-2.659-0.556-3.831-1.528-2.799-4.289 0.28-0.747 0.227-1.614 0.429-2.398 0.681-2.643-0.215-6.604 1.968-7.665 2-0.972 5.309 0.664 8.017 1.261 5.105 1.124 10.184 2.379 15.297 3.471 1.907 0.406 2.673 1.011 2.164 3.222zM288.265 135.258c-24.271-0.001-48.539 0-72.808 0-24.458 0-48.916-0.004-73.373 0.003-5.532 0.002-7.608 2.104-7.609 7.679-0.002 42.989-0.002 85.977 0 128.966 0 5.777 2.045 7.854 7.736 7.854 48.727 0.004 97.454 0.004 146.181 0 5.868 0 7.963-2.101 7.963-7.984 0.004-42.801 0.004-85.602 0-128.402 0-6.095-2.023-8.116-8.090-8.116zM258.96 268.221c-14.579-0.12-29.158-0.059-43.737-0.059-14.485 0-28.971-0.061-43.455 0.061-2.354 0.020-2.693-0.764-2.259-2.737 1.163-5.294 4.611-8.651 9.192-11.104 5.056-2.706 10.487-4.543 15.725-6.828 2.674-1.166 5.274-2.449 7.57-4.279 3.713-2.96 6.071-6.584 5.916-11.547-0.068-2.159 0.028-4.326 0.105-6.487 0.105-2.928-0.523-5.457-2.732-7.676-1.789-1.797-2.606-4.292-3.148-6.81-0.538-2.5-1.323-4.764-3.78-6.263-1.592-0.971-1.894-2.857-0.687-4.441 1.552-2.038 1.389-4.198 0.883-6.437-1.208-5.335-2.1-10.69-1.446-16.193 0.728-6.105 3.834-10.31 9.829-12.052 3.815-1.108 7.718-1.611 11.708-0.898 1.805 0.323 3.405 0.885 4.694 2.298 0.949 1.039 2.113 1.922 3.583 2.090 4.565 0.525 7.086 3.529 7.455 9.723 0.294 4.929-0.514 9.749-1.882 14.463-0.741 2.551-0.954 4.942 0.688 7.249 1.231 1.73 0.558 3.398-0.93 4.332-2.141 1.343-2.983 3.274-3.467 5.519-0.682 3.165-1.784 6.1-4.057 8.52-0.628 0.668-1.138 1.522-1.472 2.381-3.364 8.635 0.569 19.694 8.672 24.271 6.382 3.605 13.546 5.483 19.996 8.964 4.581 2.471 8.027 5.758 9.286 11.031 0.508 2.133 0.268 2.929-2.25 2.909zM284.745 265.467c0.005 2.216-0.557 2.911-2.764 2.741-2.618-0.203-5.595 0.702-7.811-0.264-2.561-1.116-1.289-4.641-2.085-7.036-2.552-7.678-7.601-12.999-14.578-16.761-5.298-2.857-10.997-4.781-16.475-7.219-0.685-0.305-1.354-0.651-2.058-0.903-5.592-2.004-5.644-7.409-3.34-12.372 0.902-1.944 2.14-3.732 2.879-5.776 0.882-2.444 2.095-4.631 3.695-6.782 3.166-4.252 4.049-9.235 2.322-14.417-0.374-1.118-0.451-2.066-0.198-3.236 1.729-7.961 2.755-15.936-0.175-23.88-0.961-2.605-2.224-5.157-4.416-6.759-5.883-4.299-12.067-8.375-19.326-9.717-6.727-1.245-13.503-0.432-19.881 2.338-10.347 4.493-14.6 12.98-15.208 23.703-0.267 4.708 0.336 9.381 1.308 13.994 0.196 0.929 0.343 1.733-0.042 2.713-2.528 6.442-1.018 12.133 3.505 17.136 0.608 0.671 0.926 1.378 1.179 2.175 0.942 2.964 2.1 5.85 3.96 8.349 1.087 1.462 1.167 2.998 1.355 4.693 0.477 4.288-1.621 6.56-5.301 8.144-5.678 2.445-11.509 4.523-17.044 7.322-9.367 4.737-15.344 11.895-16.487 22.56-0.165 1.542-0.567 2.068-2.142 1.984-2.532-0.136-5.082-0.126-7.616-0.006-1.658 0.080-2.229-0.563-2.018-2.12 0.038-0.276 0.005-0.563 0.005-0.845 0-38.474 0.026-76.945-0.061-115.418-0.006-2.504 0.618-3.106 3.104-3.094 22.198 0.105 44.397 0.061 66.597 0.061 22.105 0 44.211 0.032 66.315-0.049 2.179-0.009 2.804 0.501 2.799 2.758-0.070 38.662-0.069 77.323 0.003 115.983z" fill="#000000" />
</svg>
