<?xml version="1.0" encoding="utf-8"?>
<!-- Generated by IcoMoon.io -->
<!DOCTYPE svg PUBLIC "-//W3C//DTD SVG 1.1//EN" "http://www.w3.org/Graphics/SVG/1.1/DTD/svg11.dtd">
<svg version="1.1" xmlns="http://www.w3.org/2000/svg" xmlns:xlink="http://www.w3.org/1999/xlink" width="416" height="512" viewBox="0 0 416 512">
<g>
</g>
	<path d="M384 112c18 0 32 13 32 31v159c0 18-14 32-32 32h-48v114h-256v-114h-48c-18 0-32-14-32-32v-159c0-18 14-31 32-31h32v-48h288v48h32zM80 80v32h256v-32h-256zM320 432v-192h-224v192h224zM400 302v-159c0-9-7-15-16-15v0h-352c-9 0-16 6-16 15v159c0 9 7 16 16 16h48v-94h256v94h48c9 0 16-7 16-16z" fill="#000000" />
</svg>
