<?xml version="1.0" encoding="utf-8"?>
<!-- Generated by IcoMoon.io -->
<!DOCTYPE svg PUBLIC "-//W3C//DTD SVG 1.1//EN" "http://www.w3.org/Graphics/SVG/1.1/DTD/svg11.dtd">
<svg version="1.1" xmlns="http://www.w3.org/2000/svg" xmlns:xlink="http://www.w3.org/1999/xlink" width="352" height="512" viewBox="0 0 352 512">
<g>
</g>
	<path d="M336 336c16 16 26 35 0 66-25 30-42 30-64 30-24 0-58-14-93-40-32-23-46-34-78-67-34-35-55-64-79-107-27-50-24-74-18-92 4-12 14-24 28-33l1-1c6-4 18-12 32-12 13 0 24 6 34 18l1 1c11 14 24 31 32 47 10 21 10 38-1 53-9 12-12 19-12 23s5 9 13 18l1 1c16 18 20 23 26 29 1 1 3 2 4 3l2 2c7 7 11 12 29 28l1 1c7 6 9 8 12 8 5 0 16-7 29-15 4-3 11-5 17-5 27 0 68 29 83 44zM324 391c19-22 13-31 1-43-13-14-50-39-72-39-3 0-6 1-8 2-19 12-28 18-37 18s-15-6-23-13h-1c-19-16-23-21-30-29l-2-2c-1-1-3-2-4-3-6-6-11-12-27-30v-1c-10-11-17-18-18-28s5-20 16-34c15-20-5-48-31-79l-1-1c-7-8-14-12-22-12-10 0-18 6-23 9-1 0-2 1-2 1-11 7-18 16-21 24-5 16-7 35 17 79 23 42 43 70 76 104 31 32 45 42 76 64 32 23 64 38 84 38 21 0 32-1 52-25z" fill="#000000" />
</svg>
