<?xml version="1.0" encoding="utf-8"?>
<!-- Generated by IcoMoon.io -->
<!DOCTYPE svg PUBLIC "-//W3C//DTD SVG 1.1//EN" "http://www.w3.org/Graphics/SVG/1.1/DTD/svg11.dtd">
<svg version="1.1" xmlns="http://www.w3.org/2000/svg" xmlns:xlink="http://www.w3.org/1999/xlink" width="320" height="512" viewBox="0 0 320 512">
<g>
</g>
	<path d="M151 152v-56h18v56h-18zM151 416v-60h18v60h-18zM264 265v-18h56v18h-56zM0 265v-18h60v18h-60zM240 318l34 34-12 12-33-34zM64 142l34 33-12 12-34-34zM229 176l33-34 12 12-34 33zM52 352l34-34 11 12-33 34zM160 332c-42 0-76-34-76-76s34-76 76-76 76 34 76 76-34 76-76 76zM160 197c-32 0-59 27-59 59s27 59 59 59 59-27 59-59-27-59-59-59z" fill="#000000" />
</svg>
