<?xml version="1.0" encoding="utf-8"?>
<!-- Generated by IcoMoon.io -->
<!DOCTYPE svg PUBLIC "-//W3C//DTD SVG 1.1//EN" "http://www.w3.org/Graphics/SVG/1.1/DTD/svg11.dtd">
<svg version="1.1" xmlns="http://www.w3.org/2000/svg" xmlns:xlink="http://www.w3.org/1999/xlink" width="384" height="512" viewBox="0 0 384 512">
<g>
</g>
	<path d="M318 226c0 114 28 126 66 158h-384c38-32 66-44 66-158 0-98 53-130 102-138v-2c0-12 11-22 24-22s24 10 24 22v2c49 7 102 40 102 138zM43 368h298c-25-25-40-58-40-142 0-46-13-80-37-101-23-19-52-23-72-23s-49 4-72 23c-25 21-37 55-37 101 0 51-5 85-17 110-6 13-14 23-23 32zM192 448c-27 0-49-20-52-43h104c-3 23-25 43-52 43z" fill="#000000" />
</svg>
