<?xml version="1.0" encoding="utf-8"?>
<!-- Generated by IcoMoon.io -->
<!DOCTYPE svg PUBLIC "-//W3C//DTD SVG 1.1//EN" "http://www.w3.org/Graphics/SVG/1.1/DTD/svg11.dtd">
<svg version="1.1" xmlns="http://www.w3.org/2000/svg" xmlns:xlink="http://www.w3.org/1999/xlink" width="512" height="512" viewBox="0 0 512 512">
<g>
</g>
	<path d="M460.955 151.022c-0.276-1.838-1.482-3.127-2.583-4.469-12.278-14.958-24.678-29.815-36.771-44.928-3.606-4.507-7.662-6.341-13.347-6.322-43.438 0.155-86.879 0.050-130.318 0.154-3.403 0.008-4.982-0.485-4.729-4.503 0.369-5.79 0.292-11.641-0.048-17.438-0.649-11.013-8.948-19.158-19.645-19.672-10.18-0.489-19.237 7.257-20.793 17.969-0.938 6.451-0.432 12.971-0.304 19.447 0.066 3.331-0.715 4.233-4.098 4.217-30.38-0.152-60.762-0.097-91.142-0.083-8.369 0.003-11.304 3.007-11.305 11.48-0.004 30.977-0.003 61.954-0.001 92.931 0.001 9.262 2.783 12.094 11.889 12.095 30.381 0.001 60.762 0.041 91.143-0.069 2.801-0.010 3.609 0.683 3.489 3.543-0.237 5.672-0.29 11.373 0.011 17.037 0.185 3.5-0.681 4.499-4.304 4.485-41.173-0.15-82.348-0.057-123.522-0.146-4.905-0.011-8.512 1.595-11.687 5.547-12.29 15.298-24.838 30.382-37.304 45.535-1.12 1.359-2.107 2.773-2.6 4.494-0.946 1.528 0.266 3.402-0.768 4.915 0 0.269 0 0.541 0 0.812 0.998 2.839 2.67 5.24 4.569 7.533 11.31 13.661 22.665 27.286 33.719 41.16 4.414 5.539 9.445 7.886 16.49 7.847 39.153-0.225 78.31-0.111 117.466-0.107 6.485 0.003 6.499 0.017 6.5 6.446 0.006 31.233-0.007 62.465 0.020 93.695 0.002 2.255-0.434 4.643 1.185 6.62 5.598 0 11.197 0 16.795 0 1.714-2.093 1.268-4.619 1.27-7.009 0.030-30.834 0.017-61.669 0.024-92.503 0-1.62-0.067-3.242 0.212-4.855 0.249-1.438 1.083-2.061 2.493-2.061 1.408 0 2.243 0.622 2.493 2.061 0.279 1.613 0.211 3.235 0.211 4.855 0.006 30.834-0.006 61.669 0.024 92.503 0.002 2.389-0.444 4.915 1.27 7.009 5.332 0 10.665 0 15.996 0 0.117-1.331 0.339-2.661 0.339-3.991 0.019-33.017 0.084-66.033-0.076-99.049-0.020-3.936 0.694-5.146 4.881-5.117 32.923 0.213 65.846 0.122 98.77 0.114 8.082-0.001 11.161-3.090 11.18-11.163 0.013-4.6 0.003-9.201 0.003-13.802 0-26.928 0.017-53.855-0.012-80.784-0.007-7.469-3.104-10.567-10.459-10.65-2.133-0.024-4.266-0.004-6.397-0.004-31.325 0-62.649-0.049-93.973 0.074-3.156 0.013-4.129-0.808-3.974-4.035 0.266-5.534 0.328-11.108-0.017-16.635-0.229-3.655 0.909-4.401 4.38-4.39 43.986 0.131 87.973 0.070 131.96 0.109 4.372 0.003 7.901-1.216 10.817-4.822 12.515-15.471 25.188-30.806 37.822-46.175 1.204-1.463 2.321-2.948 2.793-4.832 0.453-1.696 0.501-3.386-0.037-5.073zM248.831 84.079c0.015 0 0.031 0 0.045 0 0-3.108-0.059-6.218 0.019-9.325 0.063-2.54 1.374-4.085 3.955-4.096 2.581-0.012 3.993 1.59 4.045 4.056 0.129 6.215 0.013 12.436 0.096 18.651 0.021 1.608-0.533 1.97-2.057 2.071-6.106 0.412-6.103 0.481-6.103-5.68 0-1.893 0-3.783 0-5.677zM367.722 253.328c3.060-0.007 3.941 0.687 3.922 3.916-0.146 25.168-0.131 50.336-0.012 75.503 0.014 2.954-0.598 3.821-3.668 3.818-86.506-0.095-173.011-0.086-259.517-0.028-2.354 0.002-3.88-0.694-5.388-2.556-9.905-12.218-19.878-24.381-29.981-36.431-1.795-2.14-1.496-3.351 0.152-5.326 10.077-12.073 20.061-24.227 29.945-36.461 1.542-1.911 3.137-2.411 5.43-2.408 43.32 0.061 86.639 0.045 129.958 0.045 43.053-0.001 86.106 0.031 129.159-0.072zM248.778 214.456c-0.133-4.055 2.671-2.359 4.361-2.487 1.703-0.13 4.181-1.090 3.877 2.549-0.268 3.217-0.056 6.476-0.056 9.716 0.001 2.835-0.248 5.698 0.063 8.498 0.383 3.456-0.868 4.196-4.135 4.208-3.34 0.014-4.288-0.906-4.137-4.264 0.275-6.062 0.226-12.151 0.027-18.22zM440.723 156.348c-9.993 11.966-19.895 24.011-29.705 36.13-1.6 1.977-3.215 2.708-5.726 2.704-43.315-0.081-86.63-0.059-129.945-0.059-42.916 0-85.831-0.048-128.746 0.088-3.479 0.011-4.366-0.771-4.34-4.371 0.178-25.029 0.154-50.061 0.016-75.089-0.017-3.063 0.741-3.74 3.708-3.737 86.497 0.089 172.994 0.083 259.491 0.021 2.353-0.001 3.876 0.679 5.378 2.533 9.896 12.224 19.853 24.398 29.948 36.452 1.774 2.12 1.587 3.332-0.079 5.328z" fill="#000000" />
</svg>
