<?xml version="1.0" encoding="utf-8"?>
<!-- Generated by IcoMoon.io -->
<!DOCTYPE svg PUBLIC "-//W3C//DTD SVG 1.1//EN" "http://www.w3.org/Graphics/SVG/1.1/DTD/svg11.dtd">
<svg version="1.1" xmlns="http://www.w3.org/2000/svg" xmlns:xlink="http://www.w3.org/1999/xlink" width="404" height="512" viewBox="0 0 404 512">
<g>
</g>
	<path d="M385 192l-55-52-9 9c35 32 57 79 57 130 0 44-16 83-43 114l37 45-13 10-35-43c-32 30-75 49-122 49v0 0c-47 0-90-19-122-49l-35 43-12-10 36-45c-27-31-43-70-43-114 0-51 22-98 57-130l-9-9-54 52c-12-14-20-32-20-52 0-44 35-80 80-82h5c20 0 39 7 54 18l-54 53 11 10c26-19 56-32 90-35v0c0-8 8-16 16-16s15 8 15 16v0c34 3 65 16 91 35l11-11-54-52c15-11 34-18 54-18h5c45 2 80 38 80 82 0 20-7 38-19 52zM218 304v-144h-16v128h-96v16h112z" fill="#000000" />
</svg>
