<?xml version="1.0" encoding="utf-8"?>
<!-- Generated by IcoMoon.io -->
<!DOCTYPE svg PUBLIC "-//W3C//DTD SVG 1.1//EN" "http://www.w3.org/Graphics/SVG/1.1/DTD/svg11.dtd">
<svg version="1.1" xmlns="http://www.w3.org/2000/svg" xmlns:xlink="http://www.w3.org/1999/xlink" width="384" height="512" viewBox="0 0 384 512">
<g>
</g>
	<path d="M280 298l-4 7 108 109-34 34-108-109-7 5c-24 15-53 25-83 25-84 0-152-69-152-153s68-152 152-152 152 68 152 152c0 30-9 58-24 82zM237 131c-23-23-53-35-85-35s-62 12-85 35-35 53-35 85 12 62 35 85 53 35 85 35 62-12 85-35 36-53 36-85-13-62-36-85z" fill="#000000" />
</svg>
