<?xml version="1.0" encoding="utf-8"?>
<!-- Generated by IcoMoon.io -->
<!DOCTYPE svg PUBLIC "-//W3C//DTD SVG 1.1//EN" "http://www.w3.org/Graphics/SVG/1.1/DTD/svg11.dtd">
<svg version="1.1" xmlns="http://www.w3.org/2000/svg" xmlns:xlink="http://www.w3.org/1999/xlink" width="512" height="512" viewBox="0 0 512 512">
<g>
</g>
	<path d="M203.223 317.891c-2.429 0-4.228 0-6.027 0-31.493 0-62.985 0.004-94.478-0.002-17.933-0.004-31.799-10.184-35.675-26.172-4.041-16.67 3.563-31.771 20.191-40.136 0.564-0.283 1.063-0.698 1.648-1.090-23.32-14.374-22.657-45.898 3.031-58.643-5.62-8.462-7.553-17.683-4.758-27.535 2.748-9.686 9.014-16.506 17.556-20.489-1.278-6.209-3.138-12.069-3.571-18.034-0.78-10.745 4.389-18.473 13.957-23.292 12.231-6.163 25.537-8.491 38.859-10.496 38.852-5.848 77.906-7.104 117.055-3.998 19.741 1.565 39.423 3.884 59.139 5.791 2.431 0.235 4.904 0.032 7.723 0.032 0-10.671 0-20.941 0-31.571 37.416 0 74.461 0 111.817 0 0 79.695 0 159.4 0 239.37-37.063 0-73.99 0-111.468 0 0-4.977 0-10.041 0-15.793-16.204 1.172-31.344 3.205-42.539 15.877-17.771 20.111-28.195 43.957-33.425 69.906-2.677 13.285-3.068 27.047-4.185 40.617-0.449 5.461-0.047 10.992-0.080 16.49-0.088 14.801-8.399 20.814-22.271 15.227-17.721-7.141-28.509-20.912-33.677-38.982-5.357-18.732-4.873-37.859-2.559-57 1.192-9.857 2.446-19.704 3.737-30.077zM401.801 126.044c8.754 0.086 15.999-6.879 16.179-15.554 0.183-8.793-7.257-16.369-16.032-16.328-8.584 0.041-15.896 7.36-15.932 15.95-0.037 8.718 7.026 15.846 15.785 15.932z" fill="#000000" />
</svg>
