<?xml version="1.0" encoding="utf-8"?>
<!-- Generated by IcoMoon.io -->
<!DOCTYPE svg PUBLIC "-//W3C//DTD SVG 1.1//EN" "http://www.w3.org/Graphics/SVG/1.1/DTD/svg11.dtd">
<svg version="1.1" xmlns="http://www.w3.org/2000/svg" xmlns:xlink="http://www.w3.org/1999/xlink" width="512" height="512" viewBox="0 0 512 512">
<g>
</g>
	<path d="M176.347 97.12c21.279 0 42.208 0 63.395 0 0 106.473 0 212.716 0 319.367-20.95 0-41.998 0-63.395 0 0-106.239 0-212.602 0-319.367zM193.337 114.129c0 95.406 0 190.433 0 285.363 10.059 0 19.777 0 29.415 0 0-95.307 0-190.215 0-285.363-9.844 0-19.441 0-29.415 0zM368.346 193.12c21.285 0 42.213 0 63.396 0 0 74.476 0 148.72 0 223.369-20.955 0-42.001 0-63.396 0 0-74.245 0-148.608 0-223.369zM414.658 399.656c0-63.42 0-126.447 0-189.366-10.063 0-19.781 0-29.405 0 0 63.311 0 126.221 0 189.366 9.848 0 19.445 0 29.405 0zM272.356 257.111c21.261 0 42.187 0 63.378 0 0 53.135 0 106.049 0 159.371-20.932 0-41.977 0-63.378 0 0-52.888 0-105.919 0-159.371zM318.647 399.668c0-42.119 0-83.816 0-125.367-10.074 0-19.79 0-29.381 0 0 41.99 0 83.568 0 125.367 9.858 0 19.454 0 29.381 0zM80.222 416.535c0-31.947 0-63.531 0-95.379 21.142 0 42.065 0 63.384 0 0 31.619 0 63.322 0 95.379-20.91 0-41.951 0-63.384 0zM97.355 338.111c0 20.783 0 41.15 0 61.373 10.071 0 19.784 0 29.379 0 0-20.656 0-40.904 0-61.373-9.855 0-19.447 0-29.379 0z" fill="#000000" />
</svg>
