<?xml version="1.0" encoding="utf-8"?>
<!-- Generated by IcoMoon.io -->
<!DOCTYPE svg PUBLIC "-//W3C//DTD SVG 1.1//EN" "http://www.w3.org/Graphics/SVG/1.1/DTD/svg11.dtd">
<svg version="1.1" xmlns="http://www.w3.org/2000/svg" xmlns:xlink="http://www.w3.org/1999/xlink" width="274" height="512" viewBox="0 0 274 512">
<g>
</g>
	<path d="M193 272l-88 128 29-96h-52l15-80h72l-16 48h40zM209 173c36 0 65 29 65 65s-29 66-65 66h-8v-17h8c27 0 49-22 49-49s-22-50-49-50h-6l-14 2-3-14c-3-14-11-26-22-35s-25-13-39-13c-34 0-63 27-63 62v12s1 9 1 9c-5 0-12 2-14 2-19 3-33 18-33 37 0 10 3 19 10 26s16 11 26 11h11v17h-11c-28 0-52-24-52-53 0-27 21-51 47-53v-8c0-43 35-78 78-78 37 0 68 26 76 61h8z" fill="#000000" />
</svg>
