<?xml version="1.0" encoding="utf-8"?>
<!-- Generated by IcoMoon.io -->
<!DOCTYPE svg PUBLIC "-//W3C//DTD SVG 1.1//EN" "http://www.w3.org/Graphics/SVG/1.1/DTD/svg11.dtd">
<svg version="1.1" xmlns="http://www.w3.org/2000/svg" xmlns:xlink="http://www.w3.org/1999/xlink" width="416" height="512" viewBox="0 0 416 512">
<g>
</g>
	<path d="M224 272h64v32h-64v64h-32v-64h-64v-32h64v-64h32v64zM288 128h128v320h-416v-320h128v-32c0-18 10-32 29-32h99c19 0 32 14 32 32v32zM144 98v30h128v-30c0-10-7-18-17-18h-97c-11 0-14 8-14 18zM304 320v-64h-64v-64h-64v64h-64v64h64v64h64v-64h64z" fill="#000000" />
</svg>
