<?xml version="1.0" encoding="utf-8"?>
<!-- Generated by IcoMoon.io -->
<!DOCTYPE svg PUBLIC "-//W3C//DTD SVG 1.1//EN" "http://www.w3.org/Graphics/SVG/1.1/DTD/svg11.dtd">
<svg version="1.1" xmlns="http://www.w3.org/2000/svg" xmlns:xlink="http://www.w3.org/1999/xlink" width="512" height="512" viewBox="0 0 512 512">
<g>
</g>
	<path d="M433 247v0h15v18h-15c-2 22-13 43-29 58-17 16-39 25-62 25-51 0-92-41-92-92v0 0c0-10-12-22-26-22s-26 12-26 22v0 0c0 51-41 92-92 92-23 0-45-9-62-25-16-15-27-36-29-58h-15v-18h15c2-22 13-43 29-59 17-16 39-24 62-24 42 0 78 27 89 67 7-7 18-12 29-12s22 5 29 12c11-40 47-67 89-67 23 0 45 9 62 25 16 15 27 36 29 58z" fill="#000000" />
</svg>
