<?xml version="1.0" encoding="utf-8"?>
<!-- Generated by IcoMoon.io -->
<!DOCTYPE svg PUBLIC "-//W3C//DTD SVG 1.1//EN" "http://www.w3.org/Graphics/SVG/1.1/DTD/svg11.dtd">
<svg version="1.1" xmlns="http://www.w3.org/2000/svg" xmlns:xlink="http://www.w3.org/1999/xlink" width="224" height="512" viewBox="0 0 224 512">
<g>
</g>
	<path d="M188 228c20 10 36 31 36 55 0 17-3 21-15 21h-81l-12 176h-8l-12-176h-81c-12 0-15-5-15-21 0-24 16-45 36-55v0c1 0 3-1 4-2 7-4 12-11 14-19l18-118v-5c0-7-4-10-10-13v0c-1 0-1-1-2-1-7-3-12-9-12-17 0-20 6-21 18-21h92c12 0 18 1 18 21 0 8-5 14-12 17-1 0-1 1-2 1v0c-6 3-10 6-10 13v5l18 118c2 8 7 15 14 19 1 1 3 2 4 2v0z" fill="#000000" />
</svg>
