<?xml version="1.0" encoding="utf-8"?>
<!-- Generated by IcoMoon.io -->
<!DOCTYPE svg PUBLIC "-//W3C//DTD SVG 1.1//EN" "http://www.w3.org/Graphics/SVG/1.1/DTD/svg11.dtd">
<svg version="1.1" xmlns="http://www.w3.org/2000/svg" xmlns:xlink="http://www.w3.org/1999/xlink" width="512" height="512" viewBox="0 0 512 512">
<g>
</g>
	<path d="M454.549 149.223c-3.012-1.507-6.258-1.722-9.558-1.73-5.426-0.016-5.396-0.092-5.514-5.463-0.296-13.335 0.627-26.682-0.764-40.016-1.098-10.533-2.93-20.834-8.104-30.178-7.187-12.977-18.333-20.49-32.932-23.057-2.814-0.494-5.692 0.132-8.44-0.789-83.477 0-166.953 0-250.429 0-0.739 0.716-1.667 0.312-2.507 0.422-0.528-0.001-1.058-0.001-1.587 0-0.529-0.001-1.058-0.001-1.587 0-0.839-0.111-1.765 0.292-2.502-0.422-0.818 0-1.637 0-2.455 0-5.726 1.045-11.604 0.769-17.305 2.17-18.343 4.511-31.673 14.745-37.903 33.056-2.604 7.655-3.866 15.616-4 23.68-0.19 11.574-0.042 23.154-0.051 34.731-0.005 5.805-0.019 5.805-5.916 5.879-10.936 0.136-16.524 4.735-18.301 15.059 0 24.279 0 48.558 0 72.837 1.846 9.498 7.131 14.185 16.964 15.038 0.679 0.059 1.362 0.068 2.042 0.098 4.854 0.222 5.031 0.399 5.12 5.198 0.023 1.227 0.006 2.454 0.006 3.68 0.001 44.306 0.012 88.609-0.012 132.912-0.003 6.36 0.376 12.884 3.81 18.191 4.237 6.552 4.688 13.434 4.404 20.713-0.107 2.722-0.021 5.452-0.017 8.177 0.030 15.475 6.771 24.047 21.696 27.601 14.185 0 28.371 0 42.557 0 3.358-0.907 6.91-0.861 9.996-3.045 7.98-5.649 11.873-13.195 11.735-22.962-0.088-6.266 0.027-6.297 5.98-6.297 56.818-0.007 113.635-0.007 170.454 0 5.879 0 5.95 0.097 6.005 5.888 0.146 15.084 7.152 23.611 21.706 26.415 14.187 0 28.372 0 42.557 0 2.754-1.1 5.862-0.659 8.536-2.415 8.217-5.399 12.961-12.713 13.134-22.686 0.112-6.406 0.034-12.815 0.024-19.223-0.005-2.503 0.34-4.871 1.754-7.024 4.811-7.32 6.476-15.441 6.464-24.112-0.064-44.722-0.032-89.444-0.027-134.168 0.001-6.497 0.013-6.497 6.344-6.886 10.346-0.636 15.892-5.341 17.785-15.091 0-24.279 0-48.558 0-72.837-0.281-6.353-3.653-10.588-9.162-13.344zM65.9 232.282c-2.126-0.048-4.596 0.956-4.562-3.075 0.169-20.274 0.158-40.552 0.007-60.825-0.030-3.962 2.419-3.021 4.582-3.125 2.258-0.11 4.149-0.365 4.068 3.152-0.238 10.2-0.084 20.409-0.084 30.614 0 10.070-0.186 20.145 0.097 30.207 0.104 3.709-2.008 3.1-4.108 3.052zM145.334 437.334c-0.215 1.326 0.015 2.721-0.062 4.079-0.295 5.293-3.054 8.414-8.356 8.682-5.702 0.291-11.431 0.066-17.148 0.066 0 0.040 0 0.079 0 0.118-4.629 0-9.26 0.039-13.889-0.010-8.012-0.083-10.858-2.909-10.939-10.802-0.030-2.859 0.026-5.72-0.014-8.579-0.021-1.418 0.391-1.985 1.912-1.496 14.527 4.665 29.543 4.17 44.501 4.003 3.097-0.035 4.535 0.621 3.995 3.939zM413.314 442.063c-0.389 4.962-3.102 7.759-8.089 8.009-5.702 0.286-11.43 0.066-17.146 0.066 0 0.048 0 0.093 0 0.142-4.766 0-9.532 0.053-14.298-0.014-7.737-0.106-10.618-3.014-10.672-10.638-0.009-1.225 0.107-2.463-0.025-3.674-0.219-1.968 0.535-2.592 2.501-2.528 4.081 0.134 8.169 0.017 12.255 0.045 11.331 0.075 22.573-0.596 33.479-4.014 1.622-0.509 2.222-0.154 2.173 1.585-0.104 3.672 0.108 7.364-0.178 11.021zM421.879 250.249c0 45.681 0.001 91.362-0.002 137.044 0 1.635 0.017 3.273-0.051 4.906-0.509 12.399-5.474 18.508-17.509 21.846-8.645 2.397-17.508 2.673-26.353 2.681-82.499 0.068-164.997 0.085-247.496-0.016-10.325-0.011-20.677-0.254-30.584-4.114-7.8-3.043-12.088-8.488-12.956-16.708-0.257-2.435-0.387-4.893-0.387-7.34-0.019-90.545-0.013-181.089-0.022-271.633-0.001-7.375 0.331-14.738 1.792-21.965 3.361-16.618 12.475-24.865 30.219-28.131 9.99-1.839 20.079-2.018 30.139-2.033 76.089-0.12 152.179-0.070 228.268-0.049 3.406 0.001 6.816 0.175 10.216 0.387 18.715 1.168 28.943 10.174 32.31 28.59 1.943 10.628 2.376 21.399 2.39 32.172 0.058 41.454 0.026 82.908 0.026 124.363zM442.546 232.276c-2.054 0.017-4.246 0.744-4.145-3.011 0.276-10.198 0.095-20.408 0.095-30.614 0-10.069 0.154-20.142-0.085-30.206-0.082-3.461 1.721-3.343 4.030-3.189 2.127 0.141 4.646-0.91 4.616 3.087-0.146 20.273-0.16 40.55 0.013 60.823 0.035 3.992-2.375 3.093-4.524 3.11zM405.076 263.19c-0.552-13.612-0.079-27.266-0.107-40.9-0.042-20.451 0.245-40.912-0.321-61.349-0.347-12.536-6.369-22.060-18.552-26.764-5.674-2.191-11.707-2.419-17.712-2.421-68.445-0.019-136.891-0.013-205.336-0.013-8.181 0-16.362-0.065-24.542 0.013-23.805 0.229-34.989 11.47-35.069 35.193-0.029 8.862-0.021 17.725-0.001 26.587 0.058 25.631-0.094 51.267 0.31 76.893 0.155 9.845 4.341 18.25 12.888 23.785 6.632 4.296 14.167 5.154 21.921 5.141 38.177-0.062 76.354-0.028 114.531-0.028 0-0.205 0-0.414 0-0.62 38.857 0 77.716-0.163 116.574 0.074 16.968 0.104 36.333-12.952 35.416-35.591zM388.341 262.486c-0.004 12.48-6.987 19.487-19.451 19.524-76.363 0.233-152.726 0.466-229.088 0.688-15.61 0.046-19.732-4.035-19.736-19.511-0.008-31.772-0.009-63.544 0.001-95.317 0.005-15.318 3.999-19.271 19.446-19.273 38.318-0.006 76.636-0.002 114.954-0.002 38.182 0 76.364-0.005 114.545 0.003 15.356 0.003 19.326 3.985 19.33 19.388 0.007 31.501 0.008 63.002-0.001 94.5zM361.104 81.962c-3.808-6.43-9.475-8.806-16.719-8.798-57.275 0.064-114.55 0.035-171.827 0.041-1.226 0-2.451 0.052-3.676 0.112-7.002 0.347-13.756 6.456-14.807 13.473-0.796 5.318-0.119 10.614-0.493 15.901-0.948 13.41 7.368 21.046 20.45 20.818 28.083-0.49 56.181-0.151 84.274-0.151 28.909 0 57.819-0.029 86.73 0.027 5.46 0.011 10.289-1.487 13.853-5.652 4.883-5.702 6.063-29.275 2.215-35.771zM345.515 106.057c-2.445 2.319-7.543 0.635-11.467 0.643-25.214 0.055-50.428 0.028-75.642 0.028-27.804 0-55.608-0.090-83.41 0.103-3.934 0.026-4.941-1.203-4.604-4.813 0.277-2.973 0.191-6 0.015-8.987-0.144-2.458 0.63-3.333 3.197-3.264 6.402 0.173 12.811 0.057 19.215 0.057 49.747 0 99.493 0.045 149.239-0.091 3.708-0.011 4.856 1.023 4.413 4.569-0.498 4.001 1.719 9.218-0.956 11.755zM141.228 324.576c-20.65-0.127-37.657 16.754-37.803 37.525-0.143 20.637 16.8 37.734 37.497 37.836 20.593 0.101 37.692-16.829 37.909-37.53 0.215-20.437-16.947-37.701-37.603-37.831zM141.185 383.127c-11.459 0.124-21.248-9.662-21.062-21.058 0.186-11.407 9.704-20.776 21.022-20.689 11.51 0.088 20.707 9.347 20.717 20.854 0.010 11.511-9.15 20.767-20.677 20.893zM367.178 324.576c-20.656 0.13-37.818 17.396-37.604 37.833 0.218 20.702 17.318 37.629 37.91 37.528 20.697-0.104 37.641-17.201 37.495-37.836-0.145-20.774-17.151-37.652-37.801-37.525zM388.27 362.75c-0.507 11.737-10.383 20.97-21.726 20.307-11.949-0.698-20.442-10.028-19.947-21.912 0.467-11.229 10.198-20.223 21.341-19.728 11.567 0.517 20.813 10.216 20.332 21.333z" fill="#000000" />
</svg>
