<?xml version="1.0" encoding="utf-8"?>
<!-- Generated by IcoMoon.io -->
<!DOCTYPE svg PUBLIC "-//W3C//DTD SVG 1.1//EN" "http://www.w3.org/Graphics/SVG/1.1/DTD/svg11.dtd">
<svg version="1.1" xmlns="http://www.w3.org/2000/svg" xmlns:xlink="http://www.w3.org/1999/xlink" width="512" height="512" viewBox="0 0 512 512">
<g>
</g>
	<path d="M137.182 447.654c-6.151 0-11.418 0-17.033 0 0-98.822 0-197.407 0-296.542-5.719 0-11.118 0-16.826 0 0-17.265 0-33.979 0-51.071 5.385 0 10.658 0 16.476 0 0-12.080 0-23.806 0-35.836 5.929 0 11.313 0 17.073 0 0 11.753 0 23.355 0 35.504 5.745 0 11.141 0 16.826 0 0 17.266 0 33.981 0 51.071-5.446 0-10.72 0-16.516 0 0 99.075 0 197.779 0 296.874zM120.238 133.609c5.61 0 10.981 0 16.437 0 0-5.657 0-11.029 0-16.35-5.708 0-11.081 0-16.437 0 0 5.627 0 10.881 0 16.35zM205.038 269.781c0-68.866 0-137.003 0-205.515 5.557 0 10.945 0 16.874 0 0 68.347 0 136.723 0 205.47 5.792 0 11.066 0 16.712 0 0 17.084 0 33.801 0 51.070-5.336 0-10.736 0-16.481 0 0 42.477 0 84.404 0 126.707-5.736 0-11.123 0-17.059 0 0-42.016 0-84.064 0-126.482-5.799 0-11.073 0-16.711 0 0-17.084 0-33.801 0-51.25 5.475 0 10.995 0 16.665 0zM221.635 303.68c0-5.811 0-11.186 0-16.381-5.75 0-11.127 0-16.358 0 0 5.67 0 10.926 0 16.381 5.528 0 10.783 0 16.358 0zM290.016 178.993c0-38.653 0-76.582 0-114.806 5.623 0 10.891 0 16.707 0 0 37.899 0 75.948 0 114.544 5.918 0 11.313 0 16.986 0 0 17.145 0 33.743 0 50.895-5.231 0-10.632 0-16.556 0 0 72.921 0 145.298 0 217.968-5.792 0-11.060 0-16.868 0 0-72.23 0-144.605 0-217.529-5.908 0-11.305 0-16.986 0 0-17.266 0-33.981 0-51.072 5.458 0 10.731 0 16.717 0zM290.239 196.084c0 5.807 0 11.062 0 16.522 5.612 0 10.983 0 16.435 0 0-5.658 0-11.030 0-16.522-5.582 0-10.836 0-16.435 0zM391.813 354.984c6.149 0 11.423 0 16.935 0 0 16.969 0 33.568 0 50.717-5.355 0-10.751 0-16.684 0 0 14.26 0 27.986 0 41.943-5.81 0-11.077 0-16.896 0 0-13.719 0-27.443 0-41.535-5.804 0-11.075 0-16.757 0 0-17.082 0-33.799 0-51.068 5.238 0 10.631 0 16.544 0 0-97.254 0-193.958 0-290.906 5.791 0 11.059 0 16.857 0 0.001 96.714 0.001 193.42 0.001 290.849zM375.32 371.988c0 5.826 0 11.199 0 16.539 5.7 0 11.072 0 16.273 0 0-5.748 0-11.125 0-16.539-5.543 0-10.68 0-16.273 0z" fill="#000000" />
</svg>
