<?xml version="1.0" encoding="utf-8"?>
<!-- Generated by IcoMoon.io -->
<!DOCTYPE svg PUBLIC "-//W3C//DTD SVG 1.1//EN" "http://www.w3.org/Graphics/SVG/1.1/DTD/svg11.dtd">
<svg version="1.1" xmlns="http://www.w3.org/2000/svg" xmlns:xlink="http://www.w3.org/1999/xlink" width="352" height="512" viewBox="0 0 352 512">
<g>
</g>
	<path d="M272 208h-192v149h40v67c0 4 4 8 8 8s8-4 8-8v-67h81v67c0 2 1 4 3 6h1c1 1 2 2 4 2h1c4 0 7-4 7-8v-67h39v-149zM288 192v0 166c0 7-3 15-10 15h-29v51c0 13-10 24-23 24v0h-1c-6 0-11-2-15-5-5-4-9-11-9-19v-51h-49v51c0 13-11 24-24 24s-24-11-24-24v-51h-28c-7 0-12-8-12-15v-166h224zM328 192c-4 0-8 4-8 8v96c0 4 4 8 8 8s8-4 8-8v-96c0-4-4-8-8-8zM328 176v0c13 0 24 11 24 24v96c0 13-11 24-24 24s-24-11-24-24v-96c0-13 11-24 24-24zM24 192c-4 0-8 4-8 8v96c0 4 4 8 8 8s8-4 8-8v-96c0-4-4-8-8-8zM24 176v0c13 0 24 11 24 24v96c0 13-11 24-24 24s-24-11-24-24v-96c0-13 11-24 24-24zM175 94c-14 0-27 3-38 6l-10 4c-28 12-40 37-44 56h186c-4-18-15-43-44-56l-10-4c-12-4-25-6-39-6v0 0h-1zM105 64v0h1l19 23c13-5 30-9 50-9h1c20 0 36 4 50 9l20-23s1 1 2 1c1 1 2 3 2 3l-19 22c48 21 56 71 57 86h-224c1-15 9-66 57-87l-19-22c0-1 1-1 2-2zM127 139c-7 0-14-6-14-13s6-14 14-14c7 0 13 7 13 14s-5 13-13 13zM225 139c-7 0-13-6-13-13s5-14 13-14c7 0 13 7 13 14s-6 13-13 13z" fill="#000000" />
</svg>
