<?xml version="1.0" encoding="utf-8"?>
<!-- Generated by IcoMoon.io -->
<!DOCTYPE svg PUBLIC "-//W3C//DTD SVG 1.1//EN" "http://www.w3.org/Graphics/SVG/1.1/DTD/svg11.dtd">
<svg version="1.1" xmlns="http://www.w3.org/2000/svg" xmlns:xlink="http://www.w3.org/1999/xlink" width="512" height="512" viewBox="0 0 512 512">
<g>
</g>
	<path d="M216 435v-107h16v107l55-54 12 12-75 73-74-73 11-12zM367 164c45 0 81 37 81 82s-37 82-82 82h-134v-135h-16v135h-126c-50 0-90-40-90-89 0-39 26-71 61-83 5-28 29-51 59-51 10 0 18 2 26 6 19-39 59-65 105-65 64 0 117 51 117 115 0 1-1 2-1 3z" fill="#000000" />
</svg>
