<?xml version="1.0" encoding="utf-8"?>
<!-- Generated by IcoMoon.io -->
<!DOCTYPE svg PUBLIC "-//W3C//DTD SVG 1.1//EN" "http://www.w3.org/Graphics/SVG/1.1/DTD/svg11.dtd">
<svg version="1.1" xmlns="http://www.w3.org/2000/svg" xmlns:xlink="http://www.w3.org/1999/xlink" width="512" height="512" viewBox="0 0 512 512">
<g>
</g>
	<path d="M448 285v0 0c0 63-27 120-70 160l-2 3-37-37 11-11 26 25c16-17 28-36 38-57 10-23 17-47 18-72h-32v-16h32c-1-26-6-51-16-75-9-22-22-42-38-59l-28 28-11-11h-1l28-28c-18-17-38-30-61-40s-48-14-73-15v37h-16v-37c-25 1-50 5-73 15s-43 23-61 40l27 28-11 11-28-28c-16 17-29 37-38 59-10 24-15 49-16 75h32v16h-32c1 25 8 49 18 72 9 21 22 40 38 57l25-25 12 11-37 37v-1c-44-40-72-97-72-161v-1c0-122 100-221 224-221v0 0h1c124 0 223 99 223 221zM208 255l110-68 10 11-82 94-1 1c-5 6-13 10-21 10-15 0-27-11-27-26 0-8 4-15 9-20z" fill="#000000" />
</svg>
