<?xml version="1.0" encoding="utf-8"?>
<!-- Generated by IcoMoon.io -->
<!DOCTYPE svg PUBLIC "-//W3C//DTD SVG 1.1//EN" "http://www.w3.org/Graphics/SVG/1.1/DTD/svg11.dtd">
<svg version="1.1" xmlns="http://www.w3.org/2000/svg" xmlns:xlink="http://www.w3.org/1999/xlink" width="320" height="512" viewBox="0 0 320 512">
<g>
</g>
	<path d="M184 48h-8v64h-64v-64h-9v64h-88v16h13c11 0 19 0 25 3s10 7 13 13 3 8 3 20v178c0 11 0 18-3 24v1c-1 3-4 10-12 14h-1c-5 3-8 3-17 3h-13l-3 16h83v64h9v-64h64v64h8v-65h15c23-1 41-5 55-10 16-6 28-15 37-26 8-11 12-29 13-42 1-14-1-29-4-36s-8-16-21-23c-7-4-14-6-21-8l-46-11 43-19c4-2 7-4 12-9 6-5 9-12 11-16 2-5 4-13 3-22-1-17-4-29-10-37-7-9-17-16-31-21-12-5-24-7-41-8l-15-1v-62zM200 32v0 63c20 1 32 4 45 9 16 6 29 15 38 27s12 28 13 45c1 10 0 20-3 28s-8 16-16 23c-6 6-11 9-16 11 9 2 17 6 25 10 15 8 24 18 29 30 4 10 6 30 5 44-1 16-6 37-16 51-11 14-26 24-45 31-15 6-33 10-59 11v65h-40v-64h-32v64h-41v-64h-87l8-48h28c9 0 8-1 11-2s4-3 5-6 1-9 1-18v-178c0-9 0-10-1-12s-3-4-6-6-9-2-18-2h-28v-48h87v-64h41v64h32v-64h40zM160 150v74h-32v-74h32zM160 272v0 90h-32v-90h32zM200 154v0c6 2 10 7 14 12 4 6 6 13 6 21s-2 15-7 21c-4 5-7 9-13 12v-66zM200 274v0c5 1 8 1 12 3 8 3 14 7 19 13s8 15 8 24c0 11-2 19-10 26s-13 11-23 15c-2 1-4 0-6 1v-82z" fill="#000000" />
</svg>
