<?xml version="1.0" encoding="utf-8"?>
<!-- Generated by IcoMoon.io -->
<!DOCTYPE svg PUBLIC "-//W3C//DTD SVG 1.1//EN" "http://www.w3.org/Graphics/SVG/1.1/DTD/svg11.dtd">
<svg version="1.1" xmlns="http://www.w3.org/2000/svg" xmlns:xlink="http://www.w3.org/1999/xlink" width="512" height="512" viewBox="0 0 512 512">
<g>
</g>
	<path d="M174.033 417.988c0 10.795 0 20.943 0 31.496-37.237 0-74.281 0-111.68 0 0-79.564 0-159.266 0-239.281 37.039 0 74.083 0 111.653 0 0 5.2 0 10.279 0 15.526 20.35-0.387 37.117-6.352 48.993-23.592 19.752-28.674 29.777-60.351 30.958-94.961 0.289-8.488-0.057-16.995 0.068-25.491 0.185-12.563 7.287-18.413 19.254-14.761 18.484 5.642 29.732 19.163 35.7 36.904 6.561 19.505 5.93 39.685 3.54 59.842-1.172 9.884-2.456 19.754-3.764 30.219 2.323 0 4.114 0 5.905 0 31.158 0 62.315-0.001 93.473 0 19.195 0.001 32.807 9.948 36.913 26.511 3.918 15.797-4.608 33.565-20.589 39.97-0.446 0.18-0.811 0.561-1.229 0.859 24.223 15.422 21.405 46.711-3.189 58.598 5.563 8.455 7.608 17.652 4.829 27.514-2.778 9.857-9.154 16.783-17.533 20.604 1.298 6.523 3.117 12.432 3.522 18.438 0.68 10.088-3.776 18.439-13.075 22.158-10.874 4.35-22.257 8.051-33.763 10.084-40.859 7.219-82.098 8.354-123.422 5.123-19.409-1.516-38.753-3.844-58.135-5.725-2.607-0.253-5.261-0.035-8.429-0.035zM125.985 401.584c0.011-8.693-7.102-15.795-15.87-15.844-8.738-0.051-15.967 6.969-16.099 15.631-0.134 8.805 7.345 16.35 16.109 16.252 8.591-0.096 15.849-7.437 15.86-16.039z" fill="#000000" />
</svg>
