<?xml version="1.0" encoding="utf-8"?>
<!-- Generated by IcoMoon.io -->
<!DOCTYPE svg PUBLIC "-//W3C//DTD SVG 1.1//EN" "http://www.w3.org/Graphics/SVG/1.1/DTD/svg11.dtd">
<svg version="1.1" xmlns="http://www.w3.org/2000/svg" xmlns:xlink="http://www.w3.org/1999/xlink" width="512" height="512" viewBox="0 0 512 512">
<g>
</g>
	<path d="M224 64c124 0 224 99 224 221 0 64-28 122-72 163h-304c-44-41-72-99-72-163 0-122 100-221 224-221zM246 292l82-94-10-11-110 68-2 2c-5 5-9 12-9 20 0 15 12 26 27 26 8 0 16-4 21-10zM372 430c35-35 60-87 60-145v0-1c0-84-52-157-125-188-25-11-54-16-83-16v0 0 0c-29 0-57 5-82 16-72 30-126 104-126 188v0 1c0 50 21 109 62 146l1 1 34-34-11-10-23 23c-15-16-23-31-32-50-10-21-15-43-16-67h29v-15h-29c0-23 5-47 15-69 9-20 20-38 35-54l26 26 10-10-25-26c17-16 36-28 57-37 22-9 44-13 68-14v35h14v-35c24 1 46 5 68 14 21 9 40 21 57 37l-26 26h1l10 10 26-26c15 16 26 34 35 54 10 22 14 46 15 69h-29v15h29c-1 24-6 46-16 67-9 19-17 34-32 50l-23-24-11 11 34 34z" fill="#000000" />
</svg>
