<?xml version="1.0" encoding="utf-8"?>
<!-- Generated by IcoMoon.io -->
<!DOCTYPE svg PUBLIC "-//W3C//DTD SVG 1.1//EN" "http://www.w3.org/Graphics/SVG/1.1/DTD/svg11.dtd">
<svg version="1.1" xmlns="http://www.w3.org/2000/svg" xmlns:xlink="http://www.w3.org/1999/xlink" width="512" height="512" viewBox="0 0 512 512">
<g>
</g>
	<path d="M62.212 450.473c0-79.926 0-159.5 0-239.341 37.14 0 74.061 0 111.533 0 0 4.959 0 10.027 0 15.704 17.948-0.959 33.951-4.305 45.541-19.15 19.627-25.14 30.212-53.842 33.536-85.224 1.345-12.704 0.934-25.603 1.118-38.416 0.212-14.752 8.463-20.82 22.286-15.244 17.708 7.142 28.519 20.907 33.682 38.977 5.352 18.731 4.875 37.858 2.56 57-1.192 9.857-2.444 19.708-3.736 30.088 2.425 0 4.223 0 6.021 0 31.32 0 62.641-0.002 93.961 0.001 18.421 0.001 32.195 9.963 36.17 26.152 4.075 16.594-3.476 31.625-20.15 40.139-0.57 0.291-1.080 0.701-1.669 1.090 23.075 14.199 22.905 45.564-3.015 58.635 5.556 8.475 7.551 17.686 4.739 27.541-2.762 9.678-9.028 16.498-17.507 20.475 1.266 6.398 3.118 12.434 3.521 18.564 0.664 10.094-3.872 18.418-13.183 22.084-11.049 4.352-22.599 8.035-34.269 10.102-40.524 7.176-81.429 8.238-122.412 5.066-19.573-1.512-39.081-3.861-58.626-5.754-2.594-0.25-5.233-0.035-8.216-0.035 0 10.654 0 20.922 0 31.547-37.41-0.001-74.449-0.001-111.885-0.001zM79.172 385.443c7.934-5.885 12.095-16.365 23.373-15.676 9.326 0.57 19.64-3.244 27.434 5.256 5.393 5.885 12.812 10.291 13.059 19.795 0.524 20.15 0.665 20.148-16.282 38.74 10.103 0 19.952 0 30.226 0 0-6.563-0.031-12.857 0.011-19.152 0.026-3.998 7.783-12.613 11.635-12.508 13.476 0.363 26.977 0.543 40.409 1.572 17.587 1.348 35.083 3.965 52.679 5.084 27.496 1.75 54.971 0.141 82.161-4.037 14.060-2.162 27.959-5.855 41.631-9.877 8.164-2.398 8.926-5.988 5.335-13.756-4.756-10.291-0.761-23.479 8.864-29.25 8.054-4.832 9.78-10.977 5.385-19.172-5.563-10.375-1.686-24.141 8.698-29.818 9.623-5.262 10.099-16.318 1.754-22.732-6.532-5.020-11.839-10.701-9.801-19.969 0.514-2.336 0.169-5.459 1.574-6.886 3.791-3.845 8.111-7.268 12.6-10.296 4.189-2.827 8.669-10.944 7.565-15.21-1.739-6.715-5.279-11.936-12.411-13.584-4.344-1.003-8.82-1.989-13.242-2.012-32.16-0.169-64.321-0.086-96.483-0.096-5.696-0.001-13.733-7.678-13.309-13.323 1.313-17.412 3.368-34.776 4.345-52.202 0.979-17.433-1.794-34.329-12.194-48.929-3.010-4.227-7.729-7.236-11.664-10.804-0.519 0.364-1.037 0.729-1.556 1.093 0 1.762 0.038 3.527-0.007 5.288-0.322 12.648 0.21 25.391-1.167 37.923-3.428 31.191-13.571 60.063-33.657 84.623-8.709 10.649-17.911 21.194-32.156 25.092-11.724 3.208-23.669 3.505-35.68 3.185-1.039-0.027-2.375-0.481-3.034-1.22-3.803-4.257-9.986-7.104-8.37-14.348-26.246 0-51.966 0-77.724 0-0.001 52.478-0.001 104.577-0.001 157.206zM110.109 386.691c-8.738-0.055-15.968 6.959-16.105 15.621-0.139 8.803 7.334 16.348 16.099 16.258 8.588-0.090 15.85-7.428 15.866-16.029 0.016-8.691-7.093-15.797-15.86-15.85zM79.219 433.531c4.965 0 9.345 0 13.038 0-4.204-4.363-8.584-8.91-13.038-13.533 0 4.52 0 8.926 0 13.533z" fill="#000000" />
</svg>
