<?xml version="1.0" encoding="utf-8"?>
<!-- Generated by IcoMoon.io -->
<!DOCTYPE svg PUBLIC "-//W3C//DTD SVG 1.1//EN" "http://www.w3.org/Graphics/SVG/1.1/DTD/svg11.dtd">
<svg version="1.1" xmlns="http://www.w3.org/2000/svg" xmlns:xlink="http://www.w3.org/1999/xlink" width="384" height="512" viewBox="0 0 384 512">
<g>
</g>
	<path d="M7 164c-9-4-9-11 0-15l169-82c4-2 10-3 16-3s12 1 16 3l169 82c9 4 9 11 0 15l-169 82c-4 2-10 3-16 3s-12-1-16-3zM377 248c9 4 9 12 0 16l-169 81c-4 2-10 4-16 4s-12-2-16-4l-169-81c-9-4-9-12 0-16 0 0 27-13 33-16 5-3 7-3 13 0s123 60 123 60c4 2 10 3 16 3s12-1 16-3c0 0 121-59 125-61s5-2 9 0 35 17 35 17zM377 348c9 4 9 11 0 15l-169 82c-4 2-10 3-16 3s-12-1-16-3l-169-82c-9-4-9-11 0-15 0 0 27-14 33-17 5-3 7-2 13 1s123 59 123 59c4 2 10 3 16 3s12-1 16-3c0 0 121-58 125-60s5-2 9 0 35 17 35 17z" fill="#000000" />
</svg>
