<?xml version="1.0" encoding="utf-8"?>
<!-- Generated by IcoMoon.io -->
<!DOCTYPE svg PUBLIC "-//W3C//DTD SVG 1.1//EN" "http://www.w3.org/Graphics/SVG/1.1/DTD/svg11.dtd">
<svg version="1.1" xmlns="http://www.w3.org/2000/svg" xmlns:xlink="http://www.w3.org/1999/xlink" width="288" height="512" viewBox="0 0 288 512">
<g>
</g>
	<path d="M288 173c0 31-13 59-30 83v0c-11 15-22 28-32 45-22 38-18 73-18 82v1h-32v-128l32-64h-16l-32 64v128h-32v-128l-31-64h-17l32 64v128h-32v-1c0-7 3-44-19-82-10-17-20-30-31-45v0c-17-24-30-52-30-83 0-78 66-141 144-141s144 63 144 141zM112 480v-16h64v16h-64zM96 448v-16h96v16h-96zM96 416v-16h96v16h-96z" fill="#000000" />
</svg>
