<?xml version="1.0" encoding="utf-8"?>
<!-- Generated by IcoMoon.io -->
<!DOCTYPE svg PUBLIC "-//W3C//DTD SVG 1.1//EN" "http://www.w3.org/Graphics/SVG/1.1/DTD/svg11.dtd">
<svg version="1.1" xmlns="http://www.w3.org/2000/svg" xmlns:xlink="http://www.w3.org/1999/xlink" width="512" height="512" viewBox="0 0 512 512">
<g>
</g>
	<path d="M164.213 209.523c0-5.29 0-10.223 0-15.404 88.797 0 177.361 0 266.328 0 0 4.946 0 10.001 0 15.404-88.566 0-177.249 0-266.328 0zM430.703 250.192c0 5.315 0 10.25 0 15.419-88.805 0-177.369 0-266.329 0 0-4.971 0-10.026 0-15.419 88.594 0 177.276 0 266.329 0zM430.701 306.184c0 5.32 0 10.254 0 15.424-88.808 0-177.372 0-266.329 0 0-4.98 0-10.033 0-15.424 88.6 0 177.283 0 266.329 0zM80.841 194.437c4.799 0 9.609-0.193 14.395 0.064 3.498 0.188 5.479-0.719 6.388-4.432 1.14-4.651 2.96-9.134 4.883-14.872 1.507 4.419 2.575 7.786 3.798 11.095 3.551 9.609 0.641 7.961 11.081 8.135 3.625 0.060 7.251 0.009 11.246 0.925-5.179 3.645-10.359 7.29-15.732 11.072 2.057 6.116 4.047 12.034 6.497 19.32-6.307-4.435-11.504-8.091-16.832-11.837-5.285 3.704-10.433 7.312-16.798 11.772 1.892-5.639 3.019-10.197 4.944-14.388 1.799-3.917 0.669-5.937-2.743-7.96-3.964-2.349-7.612-5.23-11.397-7.88 0.088-0.338 0.179-0.676 0.27-1.014zM96.193 261.453c-5.275-3.727-10.412-7.356-15.548-10.987-0.011-0.346-0.022-0.69-0.033-1.036 4.984 0 9.981-0.22 14.948 0.076 3.43 0.204 5.091-0.907 5.985-4.285 1.255-4.737 3.070-9.325 5.007-15.040 2.014 5.944 3.834 10.752 5.236 15.679 0.78 2.745 2.121 3.726 4.933 3.623 5.135-0.188 10.282-0.054 15.913 0.886-4.2 2.934-8.312 6.005-12.633 8.749-2.54 1.611-3.18 3.172-1.977 6.070 1.898 4.57 3.29 9.352 5.376 15.443-6.252-4.332-11.426-7.918-16.9-11.713-5.23 3.676-10.465 7.355-16.833 11.83 2.437-7.203 4.435-13.113 6.526-19.295zM80.732 305.424c4.895 0 9.807-0.248 14.681 0.080 3.69 0.248 5.349-1.113 6.262-4.617 1.208-4.633 2.971-9.123 4.844-14.719 1.998 5.852 3.862 10.629 5.223 15.545 0.834 3.014 2.38 3.887 5.332 3.768 5.074-0.205 10.163-0.057 16.779-0.057-6.483 4.602-11.674 8.285-16.964 12.039 2.096 6.189 4.099 12.104 6.538 19.307-6.246-4.404-11.359-8.010-16.823-11.861-5.249 3.654-10.509 7.316-16.892 11.762 2.073-6.146 3.554-11.164 5.48-16.006 1.020-2.563 0.422-3.865-1.751-5.279-4.395-2.859-8.622-5.979-12.918-8.988 0.070-0.326 0.139-0.65 0.209-0.974z" fill="#000000" />
</svg>
