<?xml version="1.0" encoding="utf-8"?>
<!-- Generated by IcoMoon.io -->
<!DOCTYPE svg PUBLIC "-//W3C//DTD SVG 1.1//EN" "http://www.w3.org/Graphics/SVG/1.1/DTD/svg11.dtd">
<svg version="1.1" xmlns="http://www.w3.org/2000/svg" xmlns:xlink="http://www.w3.org/1999/xlink" width="128" height="512" viewBox="0 0 128 512">
<g>
</g>
	<path d="M68 366c-9 0-17-8-17-17s8-17 17-17 17 8 17 17-8 17-17 17zM102 251c-23 22-22 27-23 53h-19c1-28 7-43 30-64 11-10 19-24 19-39 0-24-19-39-42-39-32 0-49 16-48 46h-19c0-42 25-62 68-62 33 0 60 20 60 54 0 22-11 37-26 51z" fill="#000000" />
</svg>
