<?xml version="1.0" encoding="utf-8"?>
<!-- Generated by IcoMoon.io -->
<!DOCTYPE svg PUBLIC "-//W3C//DTD SVG 1.1//EN" "http://www.w3.org/Graphics/SVG/1.1/DTD/svg11.dtd">
<svg version="1.1" xmlns="http://www.w3.org/2000/svg" xmlns:xlink="http://www.w3.org/1999/xlink" width="512" height="512" viewBox="0 0 512 512">
<g>
</g>
	<path d="M90.199 272.891c-5.6 0-10.705 0.006-15.81-0.002-13.731-0.021-21.769-4.775-24.535-14.504-3.127-10.996 2.187-25.719 12.43-31.261 5.227-2.827 11.5-4.38 17.46-5.027 7.741-0.841 15.652-0.437 23.472-0.121 4.81 0.194 7.292-1.899 8.933-6.138 5.832-15.055 12.045-29.964 17.69-45.085 4.624-12.386 12.787-21.229 24.54-26.994 14.294-7.013 29.084-12.447 45.046-14.071 5.007-0.509 6.89-3.241 6.588-8.030-0.524-8.301-0.226-16.306 6.611-22.562 4.994-4.569 10.362-7.381 17.415-7.286 18.161 0.243 36.328 0.057 54.493 0.090 13.043 0.022 23.466 10.455 23.467 23.403 0.001 12.843 0.129 12.313 12.54 15.319 11.929 2.889 23.801 6.391 35.249 10.79 14.083 5.413 23.286 15.879 28.426 30.317 5.522 15.514 11.945 30.707 17.985 46.035 1.161 2.945 3.168 4.266 6.519 4.19 8.661-0.193 17.33-0.098 25.995-0.057 16.396 0.077 29.2 12.258 30.17 28.651 0.748 12.634-7.752 21.777-20.948 22.251-6.441 0.232-12.897 0.041-20.229 0.041 0.876 2.518 1.293 4.24 2.049 5.801 3.726 7.693 4.415 15.791 4.344 24.256-0.254 30.16-0.191 60.324-0.056 90.486 0.056 12.309-5.507 20.615-16.771 25.156-2.092 0.844-4.491 1.27-6.754 1.291-12.997 0.119-25.996 0.061-38.994 0.057-12.593-0.002-21.521-7.049-24.385-19.293-0.417-1.781-0.741-3.594-0.956-5.41-0.977-8.293-0.957-8.295-9.085-8.295-51.66 0-103.321 0.070-154.98-0.119-4.676-0.018-5.614 1.639-6.354 5.813-1.057 5.957-2.535 12.127-5.331 17.414-3.528 6.672-9.789 10.055-17.776 9.943-13.663-0.188-27.343-0.422-40.99 0.072-10.073 0.363-23.495-9.832-23.579-22.744-0.227-35.162-0.291-70.328 0.14-105.484 0.064-5.215 3.159-10.395 4.854-15.588 0.296-0.901 0.608-1.798 1.117-3.305zM256.477 255.89c0 0.010 0 0.020 0 0.029 35.146 0 70.293 0.034 105.438-0.046 4.128-0.009 8.284-0.442 12.377-1.032 15.57-2.244 19.535-9.073 14.071-23.959-0.344-0.937-0.714-1.863-1.074-2.794-6.547-16.91-13.262-33.757-19.577-50.753-3.659-9.845-10.179-16.391-19.753-20.552-18.913-8.22-38.936-11.906-59.201-12.616-23.748-0.831-47.58 0.081-71.353 0.886-19.343 0.654-37.826 5.433-55.215 14.148-7.294 3.656-12.731 8.974-15.741 16.644-6.018 15.33-12.16 30.613-18.009 46.008-2.060 5.423-3.75 11.040-4.999 16.703-1.465 6.641 0.782 11.332 7.185 13.546 5.724 1.979 11.916 3.57 17.917 3.625 35.975 0.328 71.955 0.163 107.934 0.163zM113.262 261.543c-3.508 9.211-7.009 17.84-10.040 26.633-1.258 3.648-2.085 7.637-2.128 11.482-0.212 18.824-0.097 37.654-0.092 56.48 0.003 10.268 1.857 12.225 12.055 12.73 0.998 0.049 1.999 0.020 2.999 0.020 95.471 0.002 190.941 0.004 286.413-0.002 7.412-0.002 10.524-3.135 10.528-10.574 0.011-20.16 0.017-40.32-0.020-60.48-0.002-1.643-0.003-3.404-0.56-4.904-3.81-10.281-7.768-20.508-11.866-31.244-12.676 10.654-27.507 11.307-42.721 11.273-69.813-0.152-139.624-0.068-209.436-0.066-12.632 0-24.488-2.498-35.132-11.348zM256.465 126.952c10.166 0 20.333-0.036 30.499 0.026 2.339 0.014 4.471-0.014 4.63-3.069 0.626-12.012-2.334-15.275-12.305-15.213-14.5 0.092-29-0.020-43.5 0.039-11.321 0.045-13.601 2.57-13.628 13.978-0.008 3.292 1.011 4.359 4.306 4.302 9.997-0.177 19.999-0.065 29.998-0.063zM127.228 384.891c-7.325 0-14.652-0.068-21.975 0.064-1.302 0.025-3.23 0.512-3.776 1.434-3.686 6.221 1.447 16.424 8.548 16.592 11.643 0.277 23.301 0.1 34.949-0.088 4.711-0.076 7.233-3.031 7.836-7.539 0.285-2.131 0.17-4.32 0.173-6.482 0.002-2.83-1.251-4.104-4.28-4.033-7.154 0.165-14.316 0.052-21.475 0.052zM412.565 384.898c-15.313 0-30.424-0.113-45.527 0.139-1.965 0.031-4.855 1.459-5.68 3.074-3.423 6.713 1.61 14.66 9.175 14.838 8.975 0.209 17.957 0.092 26.934 0.24 14.122 0.234 16.169-2 15.482-16.689-0.015-0.316-0.146-0.627-0.384-1.602zM410.59 239.212c1.969 5.22 3.529 9.758 5.439 14.144 0.482 1.107 2.068 2.432 3.174 2.457 7.972 0.18 15.955 0.202 23.925-0.056 3.141-0.103 4.508-2.193 4.18-5.504-0.604-6.086-4.695-10.39-12.188-10.917-7.894-0.555-15.858-0.124-24.53-0.124zM103.316 238.229c-9.568 0.551-18.353 0.669-27.029 1.699-5.379 0.639-8.796 4.338-9.599 10.001-0.565 3.99 1.052 5.979 5.138 5.969 7.139-0.018 14.283 0.152 21.414-0.073 1.498-0.047 3.738-1.106 4.287-2.313 2.104-4.623 3.658-9.495 5.789-15.283zM153.295 282.891c6.158 0 12.319 0.131 18.473-0.027 13.477-0.348 23.039 6.178 28.991 17.598 6.196 11.889 6.013 24.133-1.685 35.52-9.575 14.164-28.261 19.725-46.439 12.225-11.398-4.705-22.417-11.152-32.268-18.588-14.116-10.656-14.253-30.389-1.568-41.311 4.149-3.572 8.779-5.742 14.527-5.486 6.645 0.295 13.312 0.069 19.969 0.069zM154.296 299.633c0-0.094 0.001-0.188 0.001-0.279-5.658 0-11.317-0.057-16.975 0.018-4.46 0.057-8.329 1.316-9.72 6.16-1.361 4.74 0.241 8.893 4.184 11.359 8.302 5.199 16.716 10.322 25.528 14.553 4 1.92 9.067 2.299 13.63 2.223 9.462-0.16 16.674-7.98 16.64-17.154-0.034-9.139-6.817-16.311-16.317-16.824-5.642-0.304-11.313-0.056-16.971-0.056zM360.38 282.891c6.324 0 12.652 0.16 18.97-0.035 11.106-0.344 18.335 5.408 22.607 14.906 4.492 9.988 3.5 20.346-4.346 27.824-12.727 12.131-27.28 21.818-45.235 24.914-21.188 3.65-39.698-8.432-42.953-28.111-2.817-17.033 7.22-33.865 23.658-38.504 4.815-1.359 10.193-0.801 15.318-0.969 3.991-0.131 7.988-0.025 11.981-0.025zM359.742 299.352c0 0.117 0 0.234 0.001 0.352-5.983 0-11.978-0.238-17.945 0.059-7.346 0.365-13.114 5.486-14.869 12.619-3.243 13.182 8.327 24.158 22.704 21.107 12.973-2.752 23.722-10.113 33.994-18.066 3.27-2.531 4.060-6.297 2.581-10.395-1.462-4.057-4.6-5.555-8.522-5.643-5.979-0.133-11.962-0.033-17.944-0.033z" fill="#000000" />
</svg>
