<?xml version="1.0" encoding="utf-8"?>
<!-- Generated by IcoMoon.io -->
<!DOCTYPE svg PUBLIC "-//W3C//DTD SVG 1.1//EN" "http://www.w3.org/Graphics/SVG/1.1/DTD/svg11.dtd">
<svg version="1.1" xmlns="http://www.w3.org/2000/svg" xmlns:xlink="http://www.w3.org/1999/xlink" width="320" height="512" viewBox="0 0 320 512">
<g>
</g>
	<path d="M106 202v0 0zM267 364c13 5 53 20 53 52h-320c0-32 40-47 53-52s31-6 43-9c7-2 17-5 20-9s1-41 1-41-6-10-9-18-7-32-7-32-7 0-9-12c-2-13-6-17-6-27 0-9 5-10 5-10v0s-4-13-5-42c-1-34 25-68 74-68s75 34 74 68c-1 29-5 42-5 42v0s5 1 5 10c0 10-3 15-6 28-2 12-9 12-9 12s-4 23-7 31-9 18-9 18-2 37 1 41 13 7 20 9c12 3 30 4 43 9zM160 400v0h137c-2-3-4-6-8-8-7-5-16-9-27-13-7-2-17-4-26-5-6-1-10-2-15-3-3-1-21-5-29-15-4-5-6-12-6-32 0-10 1-20 1-20v-4l2-4c1-2 6-9 8-15 2-5 5-19 6-28 0 0 0 1 1-4s8-4 9-8 3-7 5-18-5-12-5-17c0-4 1-5 1-5v0c0-1 4-14 4-38 0-13-5-26-14-35-11-11-25-16-44-16-18 0-34 5-45 16-9 9-13 22-13 35 1 24 4 37 4 38v0s1 3 0 6c-1 5-6 5-4 16s4 14 5 18 8 3 9 8 1 4 1 4c1 9 4 23 6 28 2 6 6 13 8 15l2 4v4s1 10 1 20c0 20-2 27-6 32-8 10-26 14-29 15-5 1-10 2-16 3-9 1-18 3-25 5-11 4-20 8-27 13-4 2-6 5-8 8h137z" fill="#000000" />
</svg>
