<?xml version="1.0" encoding="utf-8"?>
<!-- Generated by IcoMoon.io -->
<!DOCTYPE svg PUBLIC "-//W3C//DTD SVG 1.1//EN" "http://www.w3.org/Graphics/SVG/1.1/DTD/svg11.dtd">
<svg version="1.1" xmlns="http://www.w3.org/2000/svg" xmlns:xlink="http://www.w3.org/1999/xlink" width="192" height="512" viewBox="0 0 192 512">
<g>
</g>
	<path d="M128 192h64l-8 64h-56v192h-83v-192h-45v-64h45v-43c0-54 23-85 91-85h56v64h-34c-27 0-30 9-30 26v38zM170 240l4-32h-62v-54c0-10 1-21 9-30 10-11 25-12 37-12h18v-32h-40c-28 0-49 6-60 18-10 11-15 27-15 51v59h-45v32h45v192h51v-192h58z" fill="#000000" />
</svg>
