<?xml version="1.0" encoding="utf-8"?>
<!-- Generated by IcoMoon.io -->
<!DOCTYPE svg PUBLIC "-//W3C//DTD SVG 1.1//EN" "http://www.w3.org/Graphics/SVG/1.1/DTD/svg11.dtd">
<svg version="1.1" xmlns="http://www.w3.org/2000/svg" xmlns:xlink="http://www.w3.org/1999/xlink" width="416" height="512" viewBox="0 0 416 512">
<g>
</g>
	<path d="M208 48c115 0 208 93 208 208s-93 208-208 208-208-93-208-208 93-208 208-208zM212 366c9 0 17-8 17-17s-8-17-17-17-17 8-17 17 8 17 17 17zM246 251c15-14 26-29 26-51 0-34-27-54-60-54-43 0-68 20-68 62h19c-1-30 16-46 48-46 23 0 42 15 42 39 0 15-8 29-19 39-23 21-29 36-30 64h19c1-26 0-31 23-53z" fill="#000000" />
</svg>
