<?xml version="1.0" encoding="utf-8"?>
<!-- Generated by IcoMoon.io -->
<!DOCTYPE svg PUBLIC "-//W3C//DTD SVG 1.1//EN" "http://www.w3.org/Graphics/SVG/1.1/DTD/svg11.dtd">
<svg version="1.1" xmlns="http://www.w3.org/2000/svg" xmlns:xlink="http://www.w3.org/1999/xlink" width="512" height="512" viewBox="0 0 512 512">
<g>
</g>
	<path d="M161 381l55 54v-242h16v242l55-54 12 12-75 73-74-73zM367 164c45 0 81 37 81 82s-37 82-82 82v0h-101v-16h101c37 0 66-30 66-66s-29-67-66-67h-15v-20c0-55-46-97-101-97-38 0-73 22-90 56l-6 14-14-7c-6-3-13-5-20-5-22 0-40 18-44 39l-1 9-9 3c-30 10-50 36-50 67 0 40 33 74 74 74h91v16h-91c-50 0-90-40-90-89 0-39 26-71 61-83 5-28 29-51 59-51 10 0 18 2 26 6 19-39 59-65 105-65 64 0 117 51 117 115 0 1-1 2-1 3z" fill="#000000" />
</svg>
