<?xml version="1.0" encoding="utf-8"?>
<!-- Generated by IcoMoon.io -->
<!DOCTYPE svg PUBLIC "-//W3C//DTD SVG 1.1//EN" "http://www.w3.org/Graphics/SVG/1.1/DTD/svg11.dtd">
<svg version="1.1" xmlns="http://www.w3.org/2000/svg" xmlns:xlink="http://www.w3.org/1999/xlink" width="384" height="512" viewBox="0 0 384 512">
<g>
</g>
	<path d="M192 64c106 0 192 86 192 192s-86 192-192 192-192-86-192-192 86-192 192-192zM314 152c-17 25-47 47-85 64 5 10 9 20 13 31 33-3 75-4 110-2-2-35-16-68-38-93zM192 96c-14 0-26 2-39 5 23 23 43 53 62 87 34-14 62-33 79-55-28-23-63-37-102-37zM120 114c-41 21-71 58-83 103h25c44 0 85-6 121-17-19-34-40-63-63-86zM32 248v8c0 40 15 78 40 106 24-45 67-83 122-106 4-2 8-3 14-4-3-8-6-16-10-24-40 13-88 20-138 21-9 0-19-1-28-1zM192 416c20 0 39-3 57-10-3-25-8-53-15-79-4-17-10-33-16-49-7 2-13 4-17 6-48 22-86 56-107 98 27 21 61 34 98 34zM278 390c40-26 68-67 73-116-30-2-68-3-99 0 4 12 9 25 12 38 7 27 11 52 14 78z" fill="#000000" />
</svg>
