<?xml version="1.0" encoding="utf-8"?>
<!-- Generated by IcoMoon.io -->
<!DOCTYPE svg PUBLIC "-//W3C//DTD SVG 1.1//EN" "http://www.w3.org/Graphics/SVG/1.1/DTD/svg11.dtd">
<svg version="1.1" xmlns="http://www.w3.org/2000/svg" xmlns:xlink="http://www.w3.org/1999/xlink" width="512" height="512" viewBox="0 0 512 512">
<g>
</g>
	<path d="M192.975 235.763c0 40.991-0.236 81.983 0.069 122.97 0.28 37.541 31.056 64.91 68.418 62.688 29.534-1.754 56.001-26.381 57.242-60.988 0.567-15.811 0.229-31.656 0.251-47.484 0.068-49.99 0.1-99.981 0.214-149.971 0.006-2.454 0.257-5.073 1.169-7.297 0.58-1.413 2.679-3.194 3.944-3.083 1.58 0.141 3.618 1.762 4.343 3.277 0.956 2 1.122 4.517 1.125 6.813 0.060 41.494 0.139 82.987 0.007 124.481-0.077 24.482 0.219 49.002-1.017 73.436-1.018 20.172-8.218 38.623-23.546 52.467-42.213 38.123-101.488 16.441-117.332-28.953-4.054-11.615-6.064-23.486-6.054-35.748 0.060-75.486 0.116-150.973 0.167-226.459 0.008-11.978 1.897-23.563 7.521-34.278 9.385-17.881 25.126-26.797 44.436-26.171 21.849 0.708 38.572 11.858 45.68 33.399 3.119 9.452 4.603 19.858 4.65 29.842 0.299 62.648 0.042 125.3-0.181 187.951-0.045 12.639-0.051 25.346-1.34 37.893-1.018 9.896-5.143 18.875-13.973 24.877-12.805 8.705-25.748 2.359-32.229-6.191-7.162-9.447-9.048-20.611-9.029-32.111 0.091-55.148 0.295-110.298 0.483-165.448 0.004-1.146-0.069-2.599 0.557-3.375 1.349-1.672 3.121-4.123 4.738-4.136 1.559-0.013 4.211 2.452 4.507 4.154 0.846 4.874 0.965 9.913 0.967 14.886 0.005 15.492-0.253 30.984-0.271 46.477-0.046 38.16-0.083 76.32 0.078 114.48 0.019 4.41 0.538 9.135 2.201 13.143 2.456 5.92 6.368 10.639 13.902 11.162 8.287 0.574 12.81-4.172 15.885-10.492 1.747-3.592 2.456-8.020 2.469-12.074 0.247-77.646 0.448-155.295 0.365-232.943-0.030-28.438-24.189-46.662-51.776-39.673-15.958 4.043-28.232 19.538-28.371 37.51-0.322 41.656-0.103 83.315-0.103 124.974-0.055-0.005-0.11-0.005-0.166-0.005z" fill="#000000" />
</svg>
