<?xml version="1.0" encoding="utf-8"?>
<!-- Generated by IcoMoon.io -->
<!DOCTYPE svg PUBLIC "-//W3C//DTD SVG 1.1//EN" "http://www.w3.org/Graphics/SVG/1.1/DTD/svg11.dtd">
<svg version="1.1" xmlns="http://www.w3.org/2000/svg" xmlns:xlink="http://www.w3.org/1999/xlink" width="320" height="512" viewBox="0 0 320 512">
<g>
</g>
	<path d="M238 170c-15 0-26 4-37 8-10 4-21 8-35 8s-25-4-37-8c-11-4-22-8-34-8-11 0-23 3-34 10-12 7-23 18-31 31-12 18-16 47-13 77 3 34 16 69 35 99 13 21 30 45 50 45h1c8 0 13-3 20-6 10-5 23-10 44-10v0c21 0 34 5 44 10 7 3 12 6 19 6v0c22 0 44-35 52-48 8-12 12-20 17-31-12-7-22-16-30-28-10-15-17-33-18-52-1-18 2-37 10-53 6-12 14-22 24-30-14-13-31-20-47-20zM238 154v0c25 0 52 14 71 39-63 36-53 128 11 153-9 20-13 28-24 46-16 25-37 56-65 56h-1c-24 0-31-16-63-16v0c-33 0-40 16-64 16h-1c-28 0-48-28-64-53-44-69-48-150-21-193 19-30 50-48 78-48 29 0 47 16 71 16 23 0 38-16 72-16zM214 84c-11 5-21 13-28 22-4 5-9 13-13 23-1 3-2 6-2 9 11-4 21-11 28-21 4-5 12-18 15-33zM230 64v0c3 23-6 46-18 62-13 17-35 30-56 30h-1c-4-22 6-44 18-60 14-17 37-31 57-32z" fill="#000000" />
</svg>
