<?xml version="1.0" encoding="utf-8"?>
<!-- Generated by IcoMoon.io -->
<!DOCTYPE svg PUBLIC "-//W3C//DTD SVG 1.1//EN" "http://www.w3.org/Graphics/SVG/1.1/DTD/svg11.dtd">
<svg version="1.1" xmlns="http://www.w3.org/2000/svg" xmlns:xlink="http://www.w3.org/1999/xlink" width="416" height="512" viewBox="0 0 416 512">
<g>
</g>
	<path d="M208 48c115 0 208 93 208 208s-93 208-208 208v0 0 0c-115 0-208-93-208-208s93-208 208-208v0 0 0zM208 447c106 0 191-85 191-191s-85-191-191-191v0 0 0c-106 0-191 85-191 191s86 191 191 191v0 0 0zM274 172c6 22 9 48 10 76h-68v-68c20-1 39-4 58-8zM216 82c20 6 41 34 54 75-17 4-36 6-54 7v-82zM145 157c13-42 35-69 55-75v82c-19-1-37-3-55-7zM333 133c-15 8-31 15-48 20-9-29-21-52-36-67 32 8 61 24 84 47zM299 248c-1-29-4-56-10-80 19-6 37-14 54-23 23 28 38 64 40 103h-84zM132 248c1-28 3-54 9-76 19 5 39 7 59 8v68h-68zM284 264c-1 28-4 54-10 76-19-5-38-7-58-8v-68h68zM141 340c-6-22-8-48-9-76h68v68c-20 1-40 3-59 8zM200 430c-20-6-42-33-55-75 18-4 36-6 55-7v82zM249 426c15-15 27-38 36-67 17 5 33 11 48 19-23 23-52 40-84 48zM167 86c-15 15-27 39-36 67-16-5-33-11-48-19 22-23 52-40 84-48zM289 344c6-24 9-51 10-80h84c-2 39-17 75-40 103-17-9-35-17-54-23zM216 348c18 1 37 3 54 7-13 42-34 69-54 75v-82zM127 168c-6 24-11 51-11 80h-83c2-39 17-75 40-103 17 9 35 17 54 23zM116 264c1 29 4 56 10 80-19 6-36 14-53 23-23-28-38-64-40-103h83zM83 378c15-8 32-14 48-19 9 28 21 52 36 67-32-8-62-25-84-48z" fill="#000000" />
</svg>
