<?xml version="1.0" encoding="utf-8"?>
<!-- Generated by IcoMoon.io -->
<!DOCTYPE svg PUBLIC "-//W3C//DTD SVG 1.1//EN" "http://www.w3.org/Graphics/SVG/1.1/DTD/svg11.dtd">
<svg version="1.1" xmlns="http://www.w3.org/2000/svg" xmlns:xlink="http://www.w3.org/1999/xlink" width="416" height="512" viewBox="0 0 416 512">
<g>
</g>
	<path d="M208 48c115 0 208 93 208 208s-93 208-208 208-208-93-208-208 93-208 208-208zM208 447c105 0 191-86 191-191s-86-191-191-191-191 86-191 191 86 191 191 191zM212 146c33 0 60 21 60 55 0 22-11 36-26 50-23 23-22 27-23 53h-19c1-28 7-43 30-64 11-10 19-23 19-38 0-24-19-40-42-40-32 0-49 16-48 46h-19c0-42 25-62 68-62zM212 332c9 0 17 8 17 17s-8 17-17 17-17-8-17-17 8-17 17-17z" fill="#000000" />
</svg>
