<?xml version="1.0" encoding="utf-8"?>
<!-- Generated by IcoMoon.io -->
<!DOCTYPE svg PUBLIC "-//W3C//DTD SVG 1.1//EN" "http://www.w3.org/Graphics/SVG/1.1/DTD/svg11.dtd">
<svg version="1.1" xmlns="http://www.w3.org/2000/svg" xmlns:xlink="http://www.w3.org/1999/xlink" width="320" height="512" viewBox="0 0 320 512">
<g>
</g>
	<path d="M320 153v14h-25v25h-14v-25h-25v-14h25v-25h14v25h25zM267 364c13 5 53 20 53 52h-320c0-32 40-47 53-52s31-6 43-9c7-2 17-5 20-9s1-41 1-41-6-10-9-18-7-32-7-32-7 0-9-12c-2-13-6-17-6-27 0-9 5-10 5-10v0s-4-13-5-42c-1-34 25-68 74-68s75 34 74 68c-1 29-5 42-5 42v0s5 1 5 10c0 10-3 15-6 28-2 12-9 12-9 12s-4 23-7 31-9 18-9 18-2 37 1 41 13 7 20 9c12 3 30 4 43 9z" fill="#000000" />
</svg>
