<?xml version="1.0" encoding="utf-8"?>
<!-- Generated by IcoMoon.io -->
<!DOCTYPE svg PUBLIC "-//W3C//DTD SVG 1.1//EN" "http://www.w3.org/Graphics/SVG/1.1/DTD/svg11.dtd">
<svg version="1.1" xmlns="http://www.w3.org/2000/svg" xmlns:xlink="http://www.w3.org/1999/xlink" width="512" height="512" viewBox="0 0 512 512">
<g>
</g>
	<path d="M424.89 188.735c-3.197-4.832-7.41-8.2-13.153-9.186-3.011-0.518-3.884-2.011-3.806-4.842 0.135-4.964 0.041-9.935 0.034-14.904-0.003-1.845-0.166-3.656-0.69-5.441-2.814-9.562-10.558-15.339-20.764-15.342-55.518-0.017-111.033-0.036-166.552 0.056-3.744 0.005-6.318-1.166-8.426-4.239-3.114-4.541-5.918-9.28-9.196-13.722-4.375-5.932-9.905-8.817-17.396-8.756-22.681 0.184-45.363 0.058-68.046 0.069-12.227 0.007-19.037 5.386-21.825 17.186 0 84.303 0 168.605 0 252.907 0.729 2.332 0.557 4.845 1.976 7.070 4.317 6.771 10.394 10.131 18.393 10.131 86.114-0.002 172.227 0.008 258.339-0.013 10.417-0.002 18.35-6.504 20.573-16.732 0.711-3.273 1.141-6.599 1.732-9.896 10.211-56.968 21.917-113.666 31.010-170.838 0-1.945 0-3.891 0-5.836-0.715-2.559-0.628-5.292-2.203-7.672zM108.327 303.627c0-55.509-0.001-111.013 0.007-166.516 0-1.402-0.001-2.815 0.156-4.204 0.414-3.636 2.376-5.637 5.969-6.125 1.065-0.145 2.154-0.152 3.231-0.152 22.367-0.008 44.734 0.034 67.101-0.060 2.657-0.012 4.538 0.741 6.009 2.93 3.486 5.192 7.023 10.352 10.598 15.482 3.904 5.605 9.020 8.313 16.147 8.292 55.322-0.168 110.646-0.093 165.97-0.093 0.972 0 1.946-0.035 2.916 0.014 4.879 0.241 7.391 2.651 7.485 7.477 0.111 5.617-0.026 11.238 0.063 16.855 0.026 1.641-0.376 2.445-2.139 2.226-0.745-0.094-1.512-0.014-2.268-0.014-79.743 0-159.487-0.002-239.229 0.001-11.442 0.001-19.823 6.194-21.627 16.030-1.75 9.548-3.379 19.119-5.136 28.666-4.743 25.773-9.528 51.539-14.286 77.31-0.138 0.748-0.298 1.448-0.967 1.881z" fill="#000000" />
</svg>
