<?xml version="1.0" encoding="utf-8"?>
<!-- Generated by IcoMoon.io -->
<!DOCTYPE svg PUBLIC "-//W3C//DTD SVG 1.1//EN" "http://www.w3.org/Graphics/SVG/1.1/DTD/svg11.dtd">
<svg version="1.1" xmlns="http://www.w3.org/2000/svg" xmlns:xlink="http://www.w3.org/1999/xlink" width="384" height="512" viewBox="0 0 384 512">
<g>
</g>
	<path d="M384 273l-33 8c-1 5-2 10-3 14l27 20-12 30-34-5c-2 4-5 7-8 11l17 29-22 23-30-17c-3 2-6 5-10 7l5 34-29 12-21-27c-4 1-9 2-14 3l-8 33h-32l-9-33c-4-1-9-2-13-3l-21 28-29-12 4-34c-4-2-7-5-11-8l-30 18-23-22 18-31c-3-4-5-7-7-11l-35 5-12-29 28-22c-1-4-1-8-2-12l-35-9v-32l35-9c1-4 1-8 2-12l-29-22 12-30 36 5c2-4 5-7 7-10l-19-32 22-22 32 19c4-3 8-6 12-8l-5-35 29-13 22 29c4-1 8-1 12-2l9-35h32l9 35c4 1 8 1 12 2l22-28 29 12-5 35c4 2 7 5 11 8l30-18 22 23-17 29c3 4 5 7 7 11l35-5 12 30-28 21c1 4 2 9 3 13l33 9v32zM321 263c0-4-1-8-1-12-1-13-3-25-7-37-1-4-3-8-5-12-5-11-12-22-21-31l-9-9c-10-9-19-16-31-21-4-2-8-3-11-4 0 0-7-2-11-3l-8-2c-6-1-13-3-19-3h-11c-13 1-26 4-38 8-4 1-7 3-11 5-11 5-22 12-31 20-2 1-4 4-5 5s-3 2-4 4c-9 10-16 20-21 32-2 3-4 7-5 11-4 12-6 24-7 37v12c0 6 1 12 2 18 0 0 1 3 3 10s3 10 3 10c1 3 3 7 4 10 5 12 12 22 21 32 2 2 2 3 4 5 1 1 3 2 4 3 9 9 20 16 32 22 4 2 7 3 11 4 12 4 24 7 37 8h13c12-1 25-3 37-7 3-1 7-3 11-5 10-5 20-11 29-19 0 0 3-2 7-6s6-7 6-7c8-9 14-18 19-29 2-5 4-8 5-12 4-12 7-24 8-37zM214 147l-28 103-103 28c-1-5-2-11-2-16v-10c0-11 3-22 7-33l3-9c5-10 11-19 19-28l8-8c8-8 17-13 27-18 3-2 7-3 10-4 11-4 22-7 33-7h10c5 0 11 1 16 2zM87 294l103-28 76 76c-8 6-17 13-26 17-3 1-7 2-10 3-10 4-21 7-32 7h-11c-11 0-22-3-32-7-3-1-8-2-11-4-10-5-19-10-27-18-1-1-2-3-3-4l-4-4c-8-8-14-18-19-28-2-3-3-6-4-9v-1zM298 219c4 10 6 21 7 32v11c-1 11-3 23-7 33-1 4-2 7-4 11-4 9-10 17-17 25l-76-76 28-104 1 1c3 1 7 2 10 3 10 5 20 11 28 19l7 7c8 8 14 18 19 28 2 3 3 7 4 10z" fill="#000000" />
</svg>
