<?xml version="1.0" encoding="utf-8"?>
<!-- Generated by IcoMoon.io -->
<!DOCTYPE svg PUBLIC "-//W3C//DTD SVG 1.1//EN" "http://www.w3.org/Graphics/SVG/1.1/DTD/svg11.dtd">
<svg version="1.1" xmlns="http://www.w3.org/2000/svg" xmlns:xlink="http://www.w3.org/1999/xlink" width="384" height="512" viewBox="0 0 384 512">
<g>
</g>
	<path d="M384 425l-23 23-113-113c-26 21-60 33-96 33-84 0-152-68-152-152s68-152 152-152 152 68 152 152c0 36-12 69-33 95zM56 313c26 26 60 39 96 39s70-14 96-40 40-60 40-96-14-70-40-96-60-40-96-40-70 14-96 40-40 60-40 96 14 71 40 97z" fill="#000000" />
</svg>
