<?xml version="1.0" encoding="utf-8"?>
<!-- Generated by IcoMoon.io -->
<!DOCTYPE svg PUBLIC "-//W3C//DTD SVG 1.1//EN" "http://www.w3.org/Graphics/SVG/1.1/DTD/svg11.dtd">
<svg version="1.1" xmlns="http://www.w3.org/2000/svg" xmlns:xlink="http://www.w3.org/1999/xlink" width="512" height="512" viewBox="0 0 512 512">
<g>
</g>
	<path d="M383.398 303.329l-0.001-11.965h-85.995v85.995l11.964 0.001v-65.569l133.925 133.923 8.459-8.46-133.923-133.924zM134.795 303.482l0.001-11.949h85.9l0.001 85.9h-11.953v-65.497l-133.776 133.775-8.451-8.452 133.776-133.775zM134.788 202.692v11.951h85.891l0.001-85.892h-11.95v65.491l-133.762-133.763-8.451 8.452 133.762 133.76zM383.567 202.509l-0.001 11.934h-85.78l-0.001-85.78h11.937v65.405l133.589-133.589 8.438 8.441-133.589 133.588z" fill="#000000" />
</svg>
