<?xml version="1.0" encoding="utf-8"?>
<!-- Generated by IcoMoon.io -->
<!DOCTYPE svg PUBLIC "-//W3C//DTD SVG 1.1//EN" "http://www.w3.org/Graphics/SVG/1.1/DTD/svg11.dtd">
<svg version="1.1" xmlns="http://www.w3.org/2000/svg" xmlns:xlink="http://www.w3.org/1999/xlink" width="512" height="512" viewBox="0 0 512 512">
<g>
</g>
	<path d="M448.3 424.7l-113.3-113.4c20.8-26 33.3-59.1 33.3-95.1 0-84.1-68.1-152.2-152-152.2-84 0-152 68.2-152 152.2s68.1 152.2 152 152.2c36.2 0 69.4-12.7 95.5-33.801l113.2 113.401 23.3-23.3zM120.1 312.6c-25.7-25.7-39.8-59.9-39.8-96.3s14.2-70.6 39.8-96.3c25.6-25.7 59.9-40 96.2-40s70.5 14.2 96.2 39.9c25.699 25.7 39.8 59.9 39.8 96.3 0 36.4-14.2 70.6-39.8 96.3-25.7 25.7-59.9 39.9-96.2 39.9-36.3 0.1-70.5-14.1-96.2-39.8zM285.305 227.195h-135.336v-20.32h135.336v20.32z" fill="#000000" />
</svg>
