<?xml version="1.0" encoding="utf-8"?>
<!-- Generated by IcoMoon.io -->
<!DOCTYPE svg PUBLIC "-//W3C//DTD SVG 1.1//EN" "http://www.w3.org/Graphics/SVG/1.1/DTD/svg11.dtd">
<svg version="1.1" xmlns="http://www.w3.org/2000/svg" xmlns:xlink="http://www.w3.org/1999/xlink" width="512" height="512" viewBox="0 0 512 512">
<g>
</g>
	<path d="M38.068 290.824c0-44.823 0.078-89.645-0.076-134.467-0.026-7.675 2.491-12.95 9.175-17.353 32.396-21.344 64.488-43.151 96.698-64.779 7.36-4.942 7.618-4.878 15.004 0.087 29.984 20.161 59.981 40.303 89.982 60.44 4.95 3.323 9.283 3.327 14.224 0.006 30.268-20.336 60.58-40.606 90.729-61.114 4.836-3.29 8.563-3.397 13.478-0.061 33.333 22.638 66.89 44.948 100.202 67.617 2.586 1.761 4.373 5.243 5.588 8.3 0.995 2.503 0.77 5.566 0.771 8.38 0.032 88.81 0.038 177.621-0.019 266.43-0.002 3.297-0.339 6.668-1.092 9.869-1.294 5.496-6.060 9.412-12.852 4.758-20.052-13.74-40.316-27.168-60.501-40.715-10.784-7.238-21.59-14.447-32.358-21.707-4.359-2.939-8.529-2.834-12.902 0.102-30.545 20.516-61.183 40.896-91.651 61.523-4.68 3.17-8.292 3.32-13.059 0.080-30.155-20.498-60.485-40.74-90.765-61.057-5.611-3.764-9.098-3.766-14.564-0.096-30.136 20.232-60.264 40.477-90.41 60.691-8.388 5.625-14.015 3.080-15.446-6.98-0.256-1.801-0.149-3.658-0.15-5.488-0.008-44.821-0.007-89.644-0.006-134.466zM265.895 415.063c6.14-4.619 11.021-8.623 16.225-12.148 20.945-14.191 42-28.221 62.986-42.354 3.306-2.227 6.049-4.439 6.039-9.383-0.163-82.783-0.115-165.565-0.13-248.347-0.001-1.382-0.206-2.766-0.382-4.977-4.761 3.563-8.732 6.799-12.961 9.655-21.93 14.813-43.904 29.561-65.918 44.248-4.007 2.673-6.010 5.681-5.997 10.954 0.197 81.949 0.138 163.899 0.138 245.846 0 1.771 0 3.543 0 6.506zM246.041 414.551c0-6.141 0-11.43 0-16.717 0-77.965-0.075-155.933 0.15-233.897 0.018-5.959-1.996-9.438-6.726-12.601-23.375-15.634-46.565-31.542-69.884-47.259-2.814-1.896-6.015-3.221-9.401-5.003 0.265 5.492 0.696 10.291 0.699 15.090 0.042 78.3 0.112 156.6-0.136 234.897-0.019 5.906 2.216 9.131 6.691 12.088 16.668 11.014 33.258 22.146 49.798 33.354 9.442 6.397 18.731 13.022 28.809 20.048zM57.921 416.145c6.529-5.021 11.767-9.361 17.314-13.262 20.018-14.068 40.106-28.037 60.251-41.924 3.86-2.66 5.699-5.609 5.688-10.623-0.17-81.779-0.121-163.559-0.121-245.339 0-1.741 0-3.482 0-5.568-1.117 0.4-1.618 0.471-1.988 0.729-25.661 17.901-51.309 35.819-76.964 53.727-3.097 2.162-4.276 4.905-4.271 8.847 0.119 82.446 0.090 164.894 0.090 247.339 0.001 1.601 0.001 3.202 0.001 6.074zM454.015 414.654c0-6.268 0-11.553 0-16.84 0-78.285-0.069-156.572 0.146-234.856 0.016-5.496-2.125-8.555-6.243-11.353-22.301-15.155-44.501-30.457-66.809-45.601-3.305-2.243-6.994-3.916-10.947-6.095 0.27 5.985 0.688 10.956 0.69 15.926 0.041 78.118 0.086 156.237-0.101 234.356-0.013 5.205 1.804 8.232 5.898 10.977 16.039 10.746 31.963 21.666 47.853 32.633 9.661 6.666 19.179 13.539 29.513 20.853zM303.585 280.648c-2.545-5.186-4.716-9.607-6.966-14.189 5.079-3.527 9.944-6.906 15.345-10.654 3.216 3.611 6.578 7.386 10.555 11.851-6.396 4.389-12.446 8.539-18.934 12.992zM337.345 251.223c-3.785-3.333-7.38-6.498-11.512-10.135 4.492-5.154 8.887-10.194 13.238-15.187 9.136 5.284 8.435 16.13-1.726 25.322zM272.296 288.074c0-5.621 0-10.533 0-15.791 1.985-0.166 3.742-0.313 6.004-0.5 0.846 5.074 1.648 9.889 2.55 15.291-2.904 0.338-5.458 0.637-8.554 1zM196.856 260.723c-4.927-5.588-9.478-10.752-14.218-16.129 4.159-3.567 7.917-6.791 11.982-10.276 4.394 4.973 8.644 9.781 13.198 14.935-3.543 3.706-7.013 7.339-10.962 11.47zM214.978 274.693c3.186-5.133 5.797-9.338 8.418-13.563 4.879 2.291 9.614 4.305 14.102 6.766 1.125 0.617 2.271 2.859 2.006 4.041-0.867 3.865-2.378 7.588-3.952 12.293-6.77-3.136-13.275-6.152-20.574-9.537zM168.358 231.664c-2.782-5.95-0.552-12.497-1.557-19.938 4.596 2.783 8.311 5.033 12.308 7.452-3.149 4.407-6.025 8.431-8.9 12.454-0.617 0.010-1.234 0.021-1.851 0.032zM114.553 227.55c-3.362-3.622-6.748-7.27-10.967-11.815 6.98-4.183 13.565-8.128 20.914-12.531 1.749 5.488 3.375 9.807 4.382 14.266 0.274 1.213-0.946 3.496-2.122 4.173-3.854 2.22-8.005 3.926-12.207 5.907zM82.955 251.664c3.26-7.394 6.208-14.083 9.367-21.249 4.938 3.353 9.010 6.12 13.077 8.882-2.39 5.64-4.695 11.082-7.235 17.074-4.599-1.423-9.262-2.867-15.209-4.707zM439.897 217.387c-4.489 4.366-8.044 7.821-12.645 12.294-2.703-3.54-5.508-7.213-8.835-11.568-3.904 4.564-6.801 7.952-9.817 11.48-4.257-4.435-7.757-8.081-11.852-12.347 3.144-2.594 6.595-5.44 10.431-8.604-3.974-4.154-7.145-7.467-10.554-11.030 3.888-3.507 7.646-6.897 12.353-11.144 2.457 2.983 5.395 6.55 9.171 11.134 3.541-4.463 6.42-8.091 9.505-11.978 4.304 4.64 7.679 8.278 11.891 12.82-3.36 2.556-7.046 5.36-11.64 8.856 4.803 4.041 8.326 7.003 11.992 10.087zM377.159 215.575c0-5.811 0-11.098 0-16.688 2.385-0.693 4.726-1.374 7.517-2.186 1.109 5.326 2.143 10.286 3.209 15.403-3.607 1.167-6.871 2.224-10.726 3.471z" fill="#000000" />
</svg>
