<?xml version="1.0" encoding="utf-8"?>
<!-- Generated by IcoMoon.io -->
<!DOCTYPE svg PUBLIC "-//W3C//DTD SVG 1.1//EN" "http://www.w3.org/Graphics/SVG/1.1/DTD/svg11.dtd">
<svg version="1.1" xmlns="http://www.w3.org/2000/svg" xmlns:xlink="http://www.w3.org/1999/xlink" width="320" height="512" viewBox="0 0 320 512">
<g>
</g>
	<path d="M238 154v0c25 0 52 14 71 39-63 36-53 128 11 153-9 20-13 28-24 46-16 25-37 56-65 56h-1c-24 0-31-16-63-16v0c-33 0-40 16-64 16h-1c-28 0-48-28-64-53-44-69-48-150-21-193 19-30 50-48 78-48 29 0 47 16 71 16 23 0 38-16 72-16zM230 64v0c3 23-6 46-18 62-13 17-35 30-56 30h-1c-4-22 6-44 18-60 14-17 37-31 57-32z" fill="#000000" />
</svg>
