<?xml version="1.0" encoding="utf-8"?>
<!-- Generated by IcoMoon.io -->
<!DOCTYPE svg PUBLIC "-//W3C//DTD SVG 1.1//EN" "http://www.w3.org/Graphics/SVG/1.1/DTD/svg11.dtd">
<svg version="1.1" xmlns="http://www.w3.org/2000/svg" xmlns:xlink="http://www.w3.org/1999/xlink" width="384" height="512" viewBox="0 0 384 512">
<g>
</g>
	<path d="M64 160c0-21 11-32 32-32s32 11 32 32-11 32-32 32-32-11-32-32zM375 289c6 6 9 14 9 23s-3 16-9 22l-105 105c-6 6-13 9-22 9s-17-3-23-9l-214-207c-8-8-11-17-11-28v-108c0-9 3-17 9-23s14-9 23-9h111c11 0 20 4 28 12zM96 208c13 0 25-5 34-14s14-21 14-34-5-25-14-34-21-14-34-14-25 5-34 14-14 21-14 34 5 25 14 34 21 14 34 14z" fill="#000000" />
</svg>
