<?xml version="1.0" encoding="utf-8"?>
<!-- Generated by IcoMoon.io -->
<!DOCTYPE svg PUBLIC "-//W3C//DTD SVG 1.1//EN" "http://www.w3.org/Graphics/SVG/1.1/DTD/svg11.dtd">
<svg version="1.1" xmlns="http://www.w3.org/2000/svg" xmlns:xlink="http://www.w3.org/1999/xlink" width="512" height="512" viewBox="0 0 512 512">
<g>
</g>
	<path d="M184.044 109.822c52.612 0 105.226 0.135 157.837-0.039 50.41-0.166 78.126 42.354 76.979 77.034-0.005 0.166 0.015 0.335-0.002 0.5-1.018 9.924 0.467 16.998 11.768 21.822 12.742 5.438 17.782 18.206 18.924 31.996 1.423 17.18-6.188 29.271-20.559 38.023-2.872 1.75-5.465 4.977-6.763 8.111-5.673 13.686-10.689 27.641-16.234 41.381-1.787 4.426-4.702 8.387-6.618 12.771-0.797 1.82-1.081 4.523-0.313 6.256 3.1 6.996 6.741 13.754 10.104 20.637 2.686 5.496 4.438 11.176 2.587 17.357-2.7 9.012-7.99 15.41-17.819 16.648-10.335 1.303-19.41-0.945-24.724-10.928-4.928-9.258-9.615-18.648-14.162-28.1-1.904-3.959-4.542-5.623-8.976-5.617-58.99 0.092-117.981 0.094-176.972-0.004-4.449-0.008-7.117 1.678-8.988 5.613-4.005 8.42-8.178 16.766-12.426 25.068-6.024 11.777-13.371 15.617-26.456 14.055-13.763-1.643-22.478-17.609-16.595-30.863 3.375-7.604 7.181-15.025 11.029-22.406 1.841-3.529 1.777-6.246-0.843-9.525-2.335-2.926-3.936-6.557-5.333-10.086-5.637-14.242-10.891-28.637-16.722-42.797-1.226-2.977-3.825-5.98-6.592-7.623-12.89-7.652-20.728-18.463-20.658-33.611 0.085-18.516 7.624-32.97 25.654-40.17 3.935-1.571 5.338-3.55 5.233-7.692-0.346-13.694 0.092-27.321 5.407-40.295 11.719-28.608 39.31-47.309 70.234-47.512 4-0.025 7.999-0.003 11.999-0.004zM112.177 218.487c9.514 2.765 14.91 9.471 18.534 18.257 4.314 10.462 9.121 20.72 13.715 31.066 3.789 8.533 2.435 8.461 11.835 5.455 29.652-9.479 59.973-15.369 91.135-16.547 39.259-1.487 77.332 4.939 114.427 17.516 4.119 1.396 5.933 0.438 7.582-3.443 4.948-11.639 10.407-23.061 15.379-34.69 3.622-8.469 8.555-15.389 17.994-17.696 0-5.343 0-10.314 0-15.299-12.086 0.974-23.57 8.948-29.66 21.154-4.161 8.338-7.727 16.973-11.523 25.492-3.037 6.819-3.019 6.847-10.253 4.761-26.029-7.498-52.525-12.282-79.612-13.473-37.482-1.647-74.073 3.889-110.001 14.219-4.147 1.192-5.98 0.283-7.579-3.572-3.826-9.229-7.822-18.4-12.16-27.397-5.993-12.429-16.347-19.124-29.813-21.719 0 5.446 0 10.58 0 15.916z" fill="#000000" />
</svg>
