<?xml version="1.0" encoding="utf-8"?>
<!-- Generated by IcoMoon.io -->
<!DOCTYPE svg PUBLIC "-//W3C//DTD SVG 1.1//EN" "http://www.w3.org/Graphics/SVG/1.1/DTD/svg11.dtd">
<svg version="1.1" xmlns="http://www.w3.org/2000/svg" xmlns:xlink="http://www.w3.org/1999/xlink" width="512" height="512" viewBox="0 0 512 512">
<g>
</g>
	<path d="M426.278 141.187c-50.865 0.325-101.736 0.14-152.604 0.103-3.089-0.002-6.95 1.291-9.063-0.567-1.998-1.757-0.546-5.64-0.705-8.58-0.676-12.49-10.259-22.171-22.833-22.708-5.324-0.227-10.665-0.090-15.999-0.091-47.747-0.003-95.494 0.038-143.239-0.046-6.943-0.012-13.024 1.792-18.232 6.449-4.027 3.602-5.819 8.445-7.614 13.305 0 88.284 0 176.567 0 264.852 0.852 4.346 1.941 8.481 5.107 11.96 5.573 6.122 12.551 8.639 20.552 8.754 9.369 0.136 18.741 0.042 28.11 0.035 7.288-0.005 14.577 0.119 21.863-0.063 4.113-0.103 5.006-1.080 5.23-5.134 0.137-2.469 0.052-4.944 0.083-7.416 0.033-2.609 1.298-3.795 3.859-3.76 0.91 0.015 1.822-0.026 2.733-0.031 7.322-0.028 7.322-0.028 7.336 7.209 0.020 9.079 0.126 9.196 9.086 9.196 64.030 0.003 128.060 0.001 192.090 0 1.432 0 2.863-0.040 4.293-0.049 3.249-0.021 4.701-1.688 4.751-4.855 0.042-2.604 0.070-5.207 0.051-7.809-0.019-2.655 1.232-3.575 3.812-3.716 10.042-0.546 10.038-0.608 10.146 9.279 0.006 0.521-0.006-0.13 0.003 0.391 0.095 5.932 0.834 6.724 6.834 6.741 16.008 0.045 32.016 0.11 48.022-0.016 14.342-0.111 22.748-6.9 26.048-20.719 0-77.607 0-155.213 0-232.819-5.201-16.549-15.966-19.983-29.72-19.895zM440.010 387.051c-0.003 7.493-2.716 10.125-10.126 10.145-11.586 0.027-23.174-0.074-34.758 0.068-2.575 0.032-3.367-0.678-3.206-3.233 0.221-3.502-0.030-7.030 0.092-10.541 0.060-1.72-0.493-2.202-2.199-2.196-14.45 0.063-28.9 0.086-43.351-0.017-2.258-0.016-2.514 0.914-2.452 2.758 0.113 3.381-0.118 6.777 0.082 10.15 0.145 2.42-0.636 3.163-3.053 3.069-4.68-0.18-9.372-0.052-14.058-0.052-51.554 0-103.108-0.038-154.662 0.083-3.563 0.009-4.828-0.856-4.439-4.464 0.319-2.96-0.069-5.989 0.109-8.974 0.127-2.124-0.681-2.569-2.652-2.559-14.321 0.075-28.642 0.073-42.961 0-1.862-0.010-2.476 0.496-2.407 2.39 0.14 3.771-0.033 7.551 0.075 11.324 0.047 1.69-0.491 2.24-2.199 2.23-12.627-0.073-25.256 0.017-37.882-0.115-4.541-0.049-7.201-2.666-7.774-7.146-0.214-1.669-0.22-3.373-0.22-5.062-0.012-41.139-0.009-82.279-0.009-123.418 0-41.269 0-82.538 0-123.807 0-1.172-0.039-2.346 0.032-3.514 0.372-6.087 3.281-8.934 9.452-8.937 52.334-0.028 104.67-0.028 157.005 0 6.449 0.003 9.495 3.131 9.59 9.622 0.056 3.774-0.077 7.554 0.037 11.325 0.107 3.596-1.585 8.519 0.679 10.415 2.169 1.817 6.923 0.624 10.541 0.625 41.139 0.018 82.278 0.011 123.417 0.011 15.622 0 31.244-0.011 46.867 0.006 7.573 0.008 10.429 2.748 10.432 10.318 0.027 73.166 0.028 146.331-0.002 219.496zM163.992 325.222c-18.749 0-37.498-0.101-56.244 0.093-3.417 0.035-3.841-1.169-3.25-3.938 1.791-8.399 7.049-13.967 14.412-17.858 5.979-3.16 12.377-5.352 18.554-8.058 1.542-0.676 3.066-1.403 4.55-2.198 4.675-2.501 7.589-5.982 7.479-11.729-0.088-4.515 0.728-9.026-2.958-12.73-1.038-1.044-1.53-2.697-2.081-4.144-1.327-3.497-2.295-6.889-5.025-9.984-2.713-3.076-3.716-7.834-0.694-11.919 1.010-1.363 0.37-2.467 0.13-3.662-1.516-7.566-2.487-15.154-1.041-22.845 1.826-9.723 7.661-15.639 17.24-17.878 5.656-1.322 11.6-2.148 16.866 0.388 4.55 2.191 9.148 4.578 13.347 7.449 4.164 2.847 5.325 7.523 5.862 12.274 0.787 6.943-0.091 13.76-1.804 20.491-0.311 1.223-0.819 2.259-0.112 3.685 2.839 5.732 1.882 9.942-2.985 14.448-0.091 0.084-0.312 0.101-0.328 0.179-2.056 9.587-10.365 17.719-6.875 28.564 1.52 4.729 5.669 6.922 9.859 8.848 6.599 3.033 13.532 5.295 19.977 8.69 7.766 4.091 13.177 9.911 14.766 18.904 0.466 2.634-0.241 2.991-2.62 2.98-19.009-0.086-38.018-0.050-57.025-0.050zM335.681 245.333c-22.647 0-45.296-0.060-67.941 0.070-3.045 0.018-4.168-0.702-3.867-3.844 0.285-2.967 0.249-5.997 0.007-8.971-0.227-2.786 0.76-3.459 3.473-3.446 22.775 0.107 45.555 0.061 68.333 0.061 22.907 0 45.815 0.057 68.723-0.070 2.91-0.016 3.954 0.681 3.693 3.656-0.262 2.971-0.264 6.001 0 8.97 0.265 2.987-0.796 3.66-3.694 3.645-22.911-0.127-45.819-0.071-68.727-0.071zM335.67 285.294c-22.644 0-45.288-0.055-67.931 0.066-2.963 0.017-4.193-0.587-3.869-3.777 0.302-2.964 0.256-5.996 0.009-8.969-0.232-2.813 0.818-3.452 3.493-3.435 17.438 0.113 34.877 0.059 52.315 0.059 28.11 0 56.221 0.054 84.329-0.074 3.22-0.017 4.419 0.765 4.085 4.068-0.286 2.833-0.297 5.745 0.005 8.576 0.332 3.113-0.948 3.563-3.724 3.549-22.903-0.112-45.807-0.063-68.712-0.063zM336.087 309.347c22.781 0 45.563 0.055 68.344-0.068 2.902-0.017 3.939 0.66 3.673 3.649-0.276 3.1-0.233 6.257-0.008 9.362 0.183 2.525-0.798 2.982-3.109 2.979-45.952-0.063-91.905-0.068-137.857 0.009-2.532 0.003-3.444-0.601-3.249-3.215 0.232-3.108 0.247-6.26-0.002-9.362-0.226-2.809 0.803-3.427 3.476-3.414 22.909 0.104 45.822 0.060 68.732 0.060z" fill="#000000" />
</svg>
