<?xml version="1.0" encoding="utf-8"?>
<!-- Generated by IcoMoon.io -->
<!DOCTYPE svg PUBLIC "-//W3C//DTD SVG 1.1//EN" "http://www.w3.org/Graphics/SVG/1.1/DTD/svg11.dtd">
<svg version="1.1" xmlns="http://www.w3.org/2000/svg" xmlns:xlink="http://www.w3.org/1999/xlink" width="512" height="512" viewBox="0 0 512 512">
<g>
</g>
	<path d="M303.882 448.527c0-42.625 0-84.889 0-127.395-31.967 0-63.564 0-95.71 0 0 42.393 0 84.775 0 127.457-32.262 0-63.977 0-96.062 0 0-53.123 0-106.055 0-159.553-15.889 0-31.426 0-48.231 0 64.385-75.119 127.948-149.277 192.115-224.139 63.91 74.556 127.558 148.805 191.906 223.872-16.427 0-31.926 0-47.781 0 0 53.535 0 106.467 0 159.758-32.082 0-63.796 0-96.237 0zM190.878 304.252c43.774 0 86.824 0 130.242 0 0 42.625 0 84.891 0 127.33 20.755 0 41.138 0 62.066 0 0-53.354 0-106.404 0-159.869 8.773 0 17.007 0 26.231 0-51.49-60.071-102.347-119.4-153.423-178.988-51.245 59.794-102.065 119.092-153.731 179.376 9.828 0 18.098 0 26.901 0 0 53.43 0 106.479 0 159.547 20.813 0 41.079 0 61.713 0 0.001-42.502 0.001-84.767 0.001-127.396z" fill="#000000" />
</svg>
