<?xml version="1.0" encoding="utf-8"?>
<!-- Generated by IcoMoon.io -->
<!DOCTYPE svg PUBLIC "-//W3C//DTD SVG 1.1//EN" "http://www.w3.org/Graphics/SVG/1.1/DTD/svg11.dtd">
<svg version="1.1" xmlns="http://www.w3.org/2000/svg" xmlns:xlink="http://www.w3.org/1999/xlink" width="384" height="512" viewBox="0 0 384 512">
<g>
</g>
	<path d="M144 150v-54h16v54h-16zM0 256v-16h55v16h-55zM44 149l10-11 32 32-11 11zM223 180l-11-11 32-32 11 11zM56 352l-10-11 31-31 11 11zM129 295c-4 3-8 7-12 12-23-12-39-36-39-63 0-39 32-71 71-71 21 0 40 10 53 25-4 2-9 4-14 8-10-11-23-17-39-17-30 0-55 25-55 55 0 23 15 43 35 51zM235 240c-34 0-63 28-63 62v12s1 10 1 10c-5 0-12 1-14 1-19 3-33 18-33 37 0 10 3 19 10 26s16 11 26 11h157c27 0 49-22 49-49s-22-50-49-50c-2 0-4 1-6 1l-14 2-3-14c-3-14-11-26-22-35s-25-14-39-14zM235 224v0c37 0 68 26 76 61h8c36 0 65 29 65 65s-29 66-65 66h-157c-28 0-52-24-52-53 0-27 21-51 47-53v-8c0-43 35-78 78-78z" fill="#000000" />
</svg>
