<?xml version="1.0" encoding="utf-8"?>
<!-- Generated by IcoMoon.io -->
<!DOCTYPE svg PUBLIC "-//W3C//DTD SVG 1.1//EN" "http://www.w3.org/Graphics/SVG/1.1/DTD/svg11.dtd">
<svg version="1.1" xmlns="http://www.w3.org/2000/svg" xmlns:xlink="http://www.w3.org/1999/xlink" width="512" height="512" viewBox="0 0 512 512">
<g>
</g>
	<path d="M443.667 308.238c-2.639 34.385-8.648 70.676-27.722 103.531-10.89 18.758-25.386 33.41-46.974 39.391-10.699 2.965-21.545 4.066-32.471 0.838-19.131-5.652-29.863-19.725-30.613-39.658-0.494-13.154 3.587-24.533 12.042-34.492 3.342-3.936 6.813-7.795 9.801-11.99 9.601-13.473 8.661-27.447-2.514-39.508-7.584-8.186-15.353-16.203-22.896-24.426-12.922-14.088-17.865-30.592-14.075-49.4 2.755-13.674 10.239-24.471 22.649-30.745 40.229-20.339 86.914-11.708 114.362 23.639 13.626 17.545 18.306 38.168 18.411 62.82zM155.461 108.896c11.273 1.987 22.835 2.976 33.764 6.148 33.297 9.666 46.745 49.283 26.299 77.436-6.81 9.376-15.364 17.487-23.14 26.16-2.111 2.356-4.353 4.597-6.429 6.983-10.322 11.865-11.183 24.908-2.183 37.909 3.403 4.916 7.467 9.371 11.216 14.047 12.742 15.896 14.732 36.555 5.329 53.842-6.997 12.863-18.136 19.104-32.332 20.357-23.342 2.061-42.819-5.848-58.558-23.131-14.573-16.004-23.182-35.162-29.461-55.566-7.45-24.206-11.005-49.058-11.57-74.289-1.086-48.52 39.469-89.795 87.065-89.896zM240.319 87.523c-0.176 11.183-4.647 20.153-13.794 26.414-11.831 8.1-26.546 3.154-31.39-10.263-4.57-12.658 0.642-28.842 11.738-36.449 13.333-9.139 30.97-1.227 33.126 14.887 0.241 1.808 0.222 3.652 0.32 5.411zM271.599 189.5c0.316-10.477 3.431-18.779 12.96-23.081 8.804-3.975 16.657-1.275 23.459 4.793 6.216 5.546 9.473 12.723 10.296 21.018 0.61 6.153-0.443 11.944-3.688 17.245-5.965 9.742-17.503 12.897-27.38 7.172-10.589-6.138-15.174-15.855-15.647-27.147zM155.82 85.778c0.214-8.262 1.927-14.052 6.721-18.56 6.038-5.679 14.903-4.582 19.413 2.329 5.178 7.933 4.423 19.962-1.703 27.119-6.87 8.026-16.712 7.121-21.618-2.264-1.648-3.154-2.257-6.852-2.813-8.624zM326.731 183.329c0.108-10.276 5.616-17.893 13.247-18.329 7.432-0.424 14.426 6.861 15.755 16.521 0.821 5.977-0.047 11.643-3.73 16.602-4.847 6.528-12.698 7.297-18.678 1.789-4.82-4.441-6.924-10.048-6.594-16.583zM143.731 90.532c-0.038 0.664-0.041 1.333-0.119 1.992-0.75 6.335-4.304 11.007-9.022 11.88-4.629 0.856-9.53-2.448-12.185-8.433-2.546-5.742-2.954-11.657-0.175-17.398 3.45-7.126 11.399-8.42 16.176-2.162 2.979 3.903 4.387 9.003 6.5 13.567-0.392 0.186-0.784 0.37-1.175 0.554zM368.124 193.508c0.375-7.486 1.809-12.854 6.457-16.83 5.012-4.288 10.938-3.348 14.471 2.215 4.53 7.131 2.556 19.345-3.987 24.677-4.703 3.832-10.589 3.273-13.807-1.875-1.781-2.85-2.472-6.382-3.134-8.187zM398.959 206.581c-0.087-7.651 6.562-15.382 13.404-15.589 5.279-0.159 9.108 3.822 9.264 9.63 0.209 7.811-6.689 15.411-13.997 15.423-5.171 0.009-8.605-3.74-8.671-9.464zM112.954 104.789c0.051 5.849-3.661 10.038-8.851 9.988-6.824-0.066-13.675-7.649-13.827-15.304-0.114-5.805 3.55-9.816 8.943-9.791 7.166 0.034 13.666 7.184 13.735 15.107zM423.389 223.892c0.446-7.59 6.806-14.236 13.099-13.689 4.381 0.38 7.371 4.321 7.006 9.229-0.531 7.135-6.93 13.796-12.911 13.44-4.532-0.269-7.49-3.963-7.194-8.98zM88.557 122.911c0.055 4.887-2.909 8.285-7.322 8.396-6.375 0.159-12.842-6.955-12.866-14.153-0.017-5.023 3.208-8.418 7.94-8.356 6.321 0.082 12.166 6.818 12.248 14.113z" fill="#000000" />
</svg>
