<?xml version="1.0" encoding="utf-8"?>
<!-- Generated by IcoMoon.io -->
<!DOCTYPE svg PUBLIC "-//W3C//DTD SVG 1.1//EN" "http://www.w3.org/Graphics/SVG/1.1/DTD/svg11.dtd">
<svg version="1.1" xmlns="http://www.w3.org/2000/svg" xmlns:xlink="http://www.w3.org/1999/xlink" width="512" height="512" viewBox="0 0 512 512">
<g>
</g>
	<path d="M438.656 386.494l-75.391-75.388 10.059-10.057-10.050-10.051-30.145 30.145-50.276-50.26 60.402-60.416c8.045 2.867 16.457 4.317 25.084 4.317 19.909 0 38.629-7.752 52.713-21.823 21.726-21.74 27.889-54.051 15.7-82.308l-4.143-9.621-32.395 32.395-26.085 0.354 0.346-24.878 33.026-33.019-9.599-4.158c-9.42-4.074-19.423-6.143-29.722-6.143-19.915 0-38.628 7.753-52.69 21.829-20.615 20.603-27.236 50.691-17.485 77.86l-60.38 60.381-85.454-85.438 10.058-10.052-55.265-55.272-30.179 30.139 55.292 55.286 10.043-10.051 85.453 85.438-60.389 60.389c-8.065-2.888-16.514-4.348-25.168-4.348-19.907 0-38.627 7.754-52.697 21.831-21.774 21.761-27.923 54.114-15.673 82.406l4.157 9.592 33.020-33.020 24.87-0.333-0.354 26.084-32.395 32.396 9.621 4.144c9.392 4.047 19.352 6.101 29.612 6.101 19.914 0 38.619-7.746 52.689-21.813 20.58-20.589 27.208-50.644 17.52-77.77l60.416-60.424 50.274 50.255-30.166 30.166 10.051 10.051 10.052-10.051 75.38 75.38c6.713 6.721 15.646 10.419 25.133 10.419 9.489 0 18.416-3.698 25.134-10.419 13.858-13.845 13.851-36.389-0.004-50.245zM96.903 105.033l10.058-10.038 35.17 35.17-10.051 10.053-35.177-35.185zM197.548 342.439c9.857 22.886 4.859 49.046-12.729 66.643-11.384 11.384-26.521 17.651-42.638 17.651-4.631 0-9.184-0.514-13.619-1.542l20.914-20.915 0.631-46.463-45.25 0.611-21.587 21.587c-4.748-20.128 1.083-41.369 16.104-56.384 11.389-11.389 26.535-17.664 42.646-17.664 8.349 0 16.443 1.673 24.070 4.977l4.436 1.916 144.243-144.243-1.915-4.435c-9.919-22.915-4.937-49.095 12.688-66.713 11.384-11.389 26.529-17.664 42.64-17.664 4.671 0 9.26 0.528 13.736 1.562l-21.573 21.571-0.625 45.257 46.464-0.632 20.936-20.928c4.691 20.094-1.146 41.293-16.118 56.279-11.396 11.383-26.541 17.659-42.66 17.659-8.321 0-16.396-1.666-24.009-4.943l-4.429-1.907-144.265 144.293 1.909 4.427zM428.613 426.691c-4.033 4.032-9.392 6.254-15.085 6.254-5.697 0-11.051-2.222-15.083-6.254l-75.38-75.382 30.152-30.153 75.389 75.39c8.314 8.315 8.314 21.837 0.007 30.145z" fill="#000000" />
</svg>
