<?xml version="1.0" encoding="utf-8"?>
<!-- Generated by IcoMoon.io -->
<!DOCTYPE svg PUBLIC "-//W3C//DTD SVG 1.1//EN" "http://www.w3.org/Graphics/SVG/1.1/DTD/svg11.dtd">
<svg version="1.1" xmlns="http://www.w3.org/2000/svg" xmlns:xlink="http://www.w3.org/1999/xlink" width="512" height="512" viewBox="0 0 512 512">
<g>
</g>
	<path d="M224 32c124 0 224 103 224 230 0 101-64 188-153 218h-4c-8 0-12-7-12-12 0-8 1-31 1-62 0-21-8-36-16-43 50-6 103-25 103-113 0-25-9-46-23-62 2-6 10-29-2-61h-5c-8 0-27 3-57 24-18-5-37-8-56-8s-38 3-56 8c-30-21-49-24-57-24h-5c-12 32-4 55-2 61-14 16-23 37-23 62 0 88 52 107 102 113-6 6-12 16-14 31-6 3-16 6-26 6-13 0-28-5-39-25 0 0-13-22-35-24v0c-2 0-21 0-1 14 0 0 15 8 25 34 0 0 10 33 53 33 7 0 14 0 22-2v39c0 5-3 11-11 11h-4c-89-30-153-116-153-218 0-127 100-230 224-230zM146 448c-15 0-28-4-38-9 14 10 28 17 44 23v-14h-6zM157 375c-16-4-35-10-52-24 6 6 11 11 13 16 7 12 14 17 25 17 4 0 9-1 12-2 1-2 1-5 2-7zM347 434c17-13 32-28 45-46 26-37 40-80 40-126 0-29-5-58-16-84-10-25-26-48-45-68s-41-34-66-45c-26-11-53-17-81-17s-55 6-81 17c-25 11-47 25-66 45s-35 42-45 68c-11 26-16 55-16 84 0 46 14 89 40 126 10 14 22 27 35 38-7-8-11-16-13-22-7-18-15-24-17-25h-2v-1c-5-3-20-13-15-28 3-9 12-15 25-15h1c13 1 24 6 32 13-21-19-37-48-37-98 0-24 7-47 21-66-3-13-6-34 5-62l3-8 7-2c2 0 5-1 10-1 12 0 31 3 60 22 17-4 35-6 53-6v0 0c18 0 36 2 53 6 29-19 48-22 60-22 5 0 8 1 10 1l7 2 3 7c11 27 8 50 5 63 14 19 21 41 21 66 0 92-55 117-92 125 3 8 5 18 5 30v57c18-7 35-16 51-28z" fill="#000000" />
</svg>
