<?xml version="1.0" encoding="utf-8"?>
<!-- Generated by IcoMoon.io -->
<!DOCTYPE svg PUBLIC "-//W3C//DTD SVG 1.1//EN" "http://www.w3.org/Graphics/SVG/1.1/DTD/svg11.dtd">
<svg version="1.1" xmlns="http://www.w3.org/2000/svg" xmlns:xlink="http://www.w3.org/1999/xlink" width="512" height="512" viewBox="0 0 512 512">
<g>
</g>
	<path d="M224 32c124 0 224 103 224 230 0 101-64 188-153 218h-4c-8 0-12-7-12-12 0-8 1-31 1-62 0-21-8-36-16-43 50-6 103-25 103-113 0-25-9-46-23-62 2-6 10-29-2-61h-5c-8 0-27 3-57 24-18-5-37-8-56-8s-38 3-56 8c-30-21-49-24-57-24h-5c-12 32-4 55-2 61-14 16-23 37-23 62 0 88 52 107 102 113-6 6-12 16-14 31-6 3-16 6-26 6-13 0-28-5-39-25 0 0-13-22-35-24v0c-2 0-21 0-1 14 0 0 15 8 25 34 0 0 10 33 53 33 7 0 14 0 22-2v39c0 5-3 11-11 11h-4c-89-30-153-116-153-218 0-127 100-230 224-230z" fill="#000000" />
</svg>
