<?xml version="1.0" encoding="utf-8"?>
<!-- Generated by IcoMoon.io -->
<!DOCTYPE svg PUBLIC "-//W3C//DTD SVG 1.1//EN" "http://www.w3.org/Graphics/SVG/1.1/DTD/svg11.dtd">
<svg version="1.1" xmlns="http://www.w3.org/2000/svg" xmlns:xlink="http://www.w3.org/1999/xlink" width="256" height="512" viewBox="0 0 256 512">
<g>
</g>
	<path d="M128 354c-44 0-79-38-79-84v-154c0-46 35-84 79-84s79 38 79 84v154c0 46-35 84-79 84zM239 192h17v80c0 67-51 122-117 127v63h69v18h-161v-18h73v-63c-67-5-120-60-120-127v-80h19v80c0 60 50 109 110 109s110-49 110-109v-80z" fill="#000000" />
</svg>
