<?xml version="1.0" encoding="utf-8"?>
<!-- Generated by IcoMoon.io -->
<!DOCTYPE svg PUBLIC "-//W3C//DTD SVG 1.1//EN" "http://www.w3.org/Graphics/SVG/1.1/DTD/svg11.dtd">
<svg version="1.1" xmlns="http://www.w3.org/2000/svg" xmlns:xlink="http://www.w3.org/1999/xlink" width="320" height="512" viewBox="0 0 320 512">
<g>
</g>
	<path d="M294 144c16 0 26 9 26 25v202c0 16-10 29-26 29h-266c-16 0-28-13-28-29v-235c0-15 12-24 28-24h60c6 0 14 5 21 13 8 9 14 19 19 19h166zM28 128c-2 0-12-1-12 8v56h288v-23c0-7-3-9-10-9h-166c-14 0-18-10-30-24-6-7-11-8-15-8h-55zM294 384c7 0 10-7 10-13v-163h-288v163c0 7 6 13 12 13h266z" fill="#000000" />
</svg>
