<?xml version="1.0" encoding="utf-8"?>
<!-- Generated by IcoMoon.io -->
<!DOCTYPE svg PUBLIC "-//W3C//DTD SVG 1.1//EN" "http://www.w3.org/Graphics/SVG/1.1/DTD/svg11.dtd">
<svg version="1.1" xmlns="http://www.w3.org/2000/svg" xmlns:xlink="http://www.w3.org/1999/xlink" width="416" height="512" viewBox="0 0 416 512">
<g>
</g>
	<path d="M189 272l-1-2s-89-118-86-120 121 85 121 85c1 1 1 2 2 3 5 5 8 11 8 18 0 14-11 25-25 25-8 0-14-3-19-9zM208 48c115 0 208 93 208 208s-93 208-208 208-208-93-208-208c0-57 23-109 61-147l12 12c-35 35-56 82-56 135 0 106 85 191 191 191s191-85 191-191c0-100-77-183-175-191v95h-16v-112z" fill="#000000" />
</svg>
